solid OpenSCAD_Model
  facet normal -0.000000 0.000000 -1.000000
    outer loop
      vertex -12.700000 0.000000 0.000000
      vertex -12.422475 2.640478 0.000000
      vertex -12.422475 -2.640478 0.000000
    endloop
  endfacet
  facet normal 0.000000 -0.000000 -1.000000
    outer loop
      vertex -12.422475 -2.640478 0.000000
      vertex -12.422475 2.640478 0.000000
      vertex -11.602027 5.165555 0.000000
    endloop
  endfacet
  facet normal 0.000000 0.000000 -1.000000
    outer loop
      vertex -12.422475 -2.640478 0.000000
      vertex -11.602027 5.165555 0.000000
      vertex -10.274516 7.464873 0.000000
    endloop
  endfacet
  facet normal 0.000000 0.000000 -1.000000
    outer loop
      vertex -12.422475 -2.640478 0.000000
      vertex -10.274516 7.464873 0.000000
      vertex -8.497959 9.437939 0.000000
    endloop
  endfacet
  facet normal 0.000000 0.000000 -1.000000
    outer loop
      vertex -9.592227 4.270735 0.000000
      vertex -8.497959 9.437939 0.000000
      vertex -6.350000 10.998523 0.000000
    endloop
  endfacet
  facet normal 0.000000 0.000000 -1.000000
    outer loop
      vertex -7.025871 7.803021 0.000000
      vertex -6.350000 10.998523 0.000000
      vertex -3.924516 12.078418 0.000000
    endloop
  endfacet
  facet normal -0.000000 -0.000000 -1.000000
    outer loop
      vertex -10.500000 12.095238 0.000000
      vertex -10.500000 15.455238 0.000000
      vertex -3.845382 12.095238 0.000000
    endloop
  endfacet
  facet normal 0.000000 0.000000 -1.000000
    outer loop
      vertex -3.845382 12.095238 0.000000
      vertex -10.500000 15.455238 0.000000
      vertex -6.720000 15.455238 0.000000
    endloop
  endfacet
  facet normal 0.000000 0.000000 -1.000000
    outer loop
      vertex -3.845382 12.095238 0.000000
      vertex -6.720000 15.455238 0.000000
      vertex -6.720000 28.895238 0.000000
    endloop
  endfacet
  facet normal 0.000000 -0.000000 -1.000000
    outer loop
      vertex -3.845382 12.095238 0.000000
      vertex -6.720000 28.895238 0.000000
      vertex 6.720000 28.895238 0.000000
    endloop
  endfacet
  facet normal 0.000000 0.000000 -1.000000
    outer loop
      vertex 1.097549 10.442480 0.000000
      vertex 6.720000 28.895238 0.000000
      vertex 6.720000 15.455238 0.000000
    endloop
  endfacet
  facet normal 0.000000 0.000000 -1.000000
    outer loop
      vertex 3.845382 12.095238 0.000000
      vertex 6.720000 15.455238 0.000000
      vertex 10.500000 15.455238 0.000000
    endloop
  endfacet
  facet normal 0.000000 0.000000 -1.000000
    outer loop
      vertex 8.494678 -6.171745 0.000000
      vertex 10.274516 -7.464873 0.000000
      vertex 7.025871 -7.803021 0.000000
    endloop
  endfacet
  facet normal 0.000000 0.000000 -1.000000
    outer loop
      vertex 8.497959 9.437939 0.000000
      vertex 5.250000 9.093267 0.000000
      vertex 6.350000 10.998523 0.000000
    endloop
  endfacet
  facet normal -0.000000 0.000000 -1.000000
    outer loop
      vertex -3.845382 12.095238 0.000000
      vertex 6.720000 28.895238 0.000000
      vertex -5.250000 9.093267 0.000000
    endloop
  endfacet
  facet normal 0.000000 -0.000000 -1.000000
    outer loop
      vertex -10.500000 0.000000 0.000000
      vertex -12.422475 -2.640478 0.000000
      vertex -10.270550 2.183073 0.000000
    endloop
  endfacet
  facet normal -0.000000 0.000000 -1.000000
    outer loop
      vertex 7.025871 7.803021 0.000000
      vertex 8.497959 9.437939 0.000000
      vertex 10.274516 7.464873 0.000000
    endloop
  endfacet
  facet normal -0.000000 0.000000 -1.000000
    outer loop
      vertex 8.494678 6.171745 0.000000
      vertex 10.274516 7.464873 0.000000
      vertex 11.602027 5.165555 0.000000
    endloop
  endfacet
  facet normal -0.000000 0.000000 -1.000000
    outer loop
      vertex 10.500000 0.000000 0.000000
      vertex 12.422475 2.640478 0.000000
      vertex 12.700000 0.000000 0.000000
    endloop
  endfacet
  facet normal -0.000000 0.000000 -1.000000
    outer loop
      vertex 10.270550 -2.183073 0.000000
      vertex 12.700000 0.000000 0.000000
      vertex 12.422475 -2.640478 0.000000
    endloop
  endfacet
  facet normal -0.000000 0.000000 -1.000000
    outer loop
      vertex 9.592227 -4.270735 0.000000
      vertex 12.422475 -2.640478 0.000000
      vertex 11.602027 -5.165555 0.000000
    endloop
  endfacet
  facet normal -0.000000 0.000000 -1.000000
    outer loop
      vertex 8.494678 -6.171745 0.000000
      vertex 11.602027 -5.165555 0.000000
      vertex 10.274516 -7.464873 0.000000
    endloop
  endfacet
  facet normal -0.000000 0.000000 -1.000000
    outer loop
      vertex 7.025871 -7.803021 0.000000
      vertex 10.274516 -7.464873 0.000000
      vertex 8.497959 -9.437939 0.000000
    endloop
  endfacet
  facet normal 0.000000 0.000000 -1.000000
    outer loop
      vertex 5.250000 -9.093267 0.000000
      vertex 8.497959 -9.437939 0.000000
      vertex 6.350000 -10.998523 0.000000
    endloop
  endfacet
  facet normal 0.000000 0.000000 -1.000000
    outer loop
      vertex 1.097549 -10.442480 0.000000
      vertex 6.350000 -10.998523 0.000000
      vertex 3.924516 -12.078418 0.000000
    endloop
  endfacet
  facet normal 0.000000 0.000000 -1.000000
    outer loop
      vertex -1.097549 -10.442480 0.000000
      vertex 3.924516 -12.078418 0.000000
      vertex 1.327511 -12.630428 0.000000
    endloop
  endfacet
  facet normal 0.000000 0.000000 -1.000000
    outer loop
      vertex -5.250000 -9.093267 0.000000
      vertex 1.327511 -12.630428 0.000000
      vertex -1.327511 -12.630428 0.000000
    endloop
  endfacet
  facet normal 0.000000 0.000000 -1.000000
    outer loop
      vertex -7.025871 -7.803021 0.000000
      vertex -1.327511 -12.630428 0.000000
      vertex -3.924516 -12.078418 0.000000
    endloop
  endfacet
  facet normal 0.000000 0.000000 -1.000000
    outer loop
      vertex -12.422475 -2.640478 0.000000
      vertex -3.924516 -12.078418 0.000000
      vertex -6.350000 -10.998523 0.000000
    endloop
  endfacet
  facet normal 0.000000 0.000000 -1.000000
    outer loop
      vertex -12.422475 -2.640478 0.000000
      vertex -6.350000 -10.998523 0.000000
      vertex -8.497959 -9.437939 0.000000
    endloop
  endfacet
  facet normal 0.000000 0.000000 -1.000000
    outer loop
      vertex -12.422475 -2.640478 0.000000
      vertex -8.497959 -9.437939 0.000000
      vertex -10.274516 -7.464873 0.000000
    endloop
  endfacet
  facet normal 0.000000 0.000000 -1.000000
    outer loop
      vertex -12.422475 -2.640478 0.000000
      vertex -10.274516 -7.464873 0.000000
      vertex -11.602027 -5.165555 0.000000
    endloop
  endfacet
  facet normal 0.000000 0.000000 -1.000000
    outer loop
      vertex -7.025871 7.803021 0.000000
      vertex -3.924516 12.078418 0.000000
      vertex -3.845382 12.095238 0.000000
    endloop
  endfacet
  facet normal 0.000000 0.000000 -1.000000
    outer loop
      vertex -9.592227 -4.270735 0.000000
      vertex -12.422475 -2.640478 0.000000
      vertex -10.270550 -2.183073 0.000000
    endloop
  endfacet
  facet normal 0.000000 0.000000 -1.000000
    outer loop
      vertex -8.494678 -6.171745 0.000000
      vertex -12.422475 -2.640478 0.000000
      vertex -9.592227 -4.270735 0.000000
    endloop
  endfacet
  facet normal 0.000000 0.000000 -1.000000
    outer loop
      vertex -7.025871 -7.803021 0.000000
      vertex -12.422475 -2.640478 0.000000
      vertex -8.494678 -6.171745 0.000000
    endloop
  endfacet
  facet normal 0.000000 0.000000 -1.000000
    outer loop
      vertex -5.250000 -9.093267 0.000000
      vertex -1.327511 -12.630428 0.000000
      vertex -7.025871 -7.803021 0.000000
    endloop
  endfacet
  facet normal 0.000000 0.000000 -1.000000
    outer loop
      vertex -12.422475 -2.640478 0.000000
      vertex -7.025871 -7.803021 0.000000
      vertex -3.924516 -12.078418 0.000000
    endloop
  endfacet
  facet normal 0.000000 0.000000 -1.000000
    outer loop
      vertex -3.244678 -9.986093 0.000000
      vertex 1.327511 -12.630428 0.000000
      vertex -5.250000 -9.093267 0.000000
    endloop
  endfacet
  facet normal 0.000000 0.000000 -1.000000
    outer loop
      vertex -1.097549 -10.442480 0.000000
      vertex 1.327511 -12.630428 0.000000
      vertex -3.244678 -9.986093 0.000000
    endloop
  endfacet
  facet normal 0.000000 0.000000 -1.000000
    outer loop
      vertex 3.244678 -9.986093 0.000000
      vertex 6.350000 -10.998523 0.000000
      vertex 1.097549 -10.442480 0.000000
    endloop
  endfacet
  facet normal 0.000000 0.000000 -1.000000
    outer loop
      vertex 5.250000 -9.093267 0.000000
      vertex 6.350000 -10.998523 0.000000
      vertex 3.244678 -9.986093 0.000000
    endloop
  endfacet
  facet normal -0.000000 0.000000 -1.000000
    outer loop
      vertex 1.097549 10.442480 0.000000
      vertex 3.924516 12.078418 0.000000
      vertex 3.244678 9.986093 0.000000
    endloop
  endfacet
  facet normal 0.000000 0.000000 -1.000000
    outer loop
      vertex 1.097549 -10.442480 0.000000
      vertex 3.924516 -12.078418 0.000000
      vertex -1.097549 -10.442480 0.000000
    endloop
  endfacet
  facet normal -0.000000 0.000000 -1.000000
    outer loop
      vertex 10.270550 2.183073 0.000000
      vertex 12.422475 2.640478 0.000000
      vertex 10.500000 0.000000 0.000000
    endloop
  endfacet
  facet normal 0.000000 0.000000 -1.000000
    outer loop
      vertex 11.602027 5.165555 0.000000
      vertex 12.422475 2.640478 0.000000
      vertex 10.270550 2.183073 0.000000
    endloop
  endfacet
  facet normal 0.000000 0.000000 -1.000000
    outer loop
      vertex 10.500000 0.000000 0.000000
      vertex 12.700000 0.000000 0.000000
      vertex 10.270550 -2.183073 0.000000
    endloop
  endfacet
  facet normal 0.000000 0.000000 -1.000000
    outer loop
      vertex 11.602027 5.165555 0.000000
      vertex 10.270550 2.183073 0.000000
      vertex 9.592227 4.270735 0.000000
    endloop
  endfacet
  facet normal 0.000000 0.000000 -1.000000
    outer loop
      vertex 10.270550 -2.183073 0.000000
      vertex 12.422475 -2.640478 0.000000
      vertex 9.592227 -4.270735 0.000000
    endloop
  endfacet
  facet normal 0.000000 0.000000 -1.000000
    outer loop
      vertex 9.592227 -4.270735 0.000000
      vertex 11.602027 -5.165555 0.000000
      vertex 8.494678 -6.171745 0.000000
    endloop
  endfacet
  facet normal 0.000000 0.000000 -1.000000
    outer loop
      vertex -9.592227 4.270735 0.000000
      vertex -6.350000 10.998523 0.000000
      vertex -8.494678 6.171745 0.000000
    endloop
  endfacet
  facet normal -0.000000 0.000000 -1.000000
    outer loop
      vertex -1.097549 10.442480 0.000000
      vertex 6.720000 28.895238 0.000000
      vertex 1.097549 10.442480 0.000000
    endloop
  endfacet
  facet normal 0.000000 0.000000 -1.000000
    outer loop
      vertex -5.250000 9.093267 0.000000
      vertex 6.720000 28.895238 0.000000
      vertex -3.244678 9.986093 0.000000
    endloop
  endfacet
  facet normal 0.000000 0.000000 -1.000000
    outer loop
      vertex -3.244678 9.986093 0.000000
      vertex 6.720000 28.895238 0.000000
      vertex -1.097549 10.442480 0.000000
    endloop
  endfacet
  facet normal 0.000000 0.000000 -1.000000
    outer loop
      vertex -7.025871 7.803021 0.000000
      vertex -3.845382 12.095238 0.000000
      vertex -5.250000 9.093267 0.000000
    endloop
  endfacet
  facet normal 0.000000 0.000000 -1.000000
    outer loop
      vertex -10.270550 -2.183073 0.000000
      vertex -12.422475 -2.640478 0.000000
      vertex -10.500000 0.000000 0.000000
    endloop
  endfacet
  facet normal 0.000000 0.000000 -1.000000
    outer loop
      vertex -8.494678 6.171745 0.000000
      vertex -6.350000 10.998523 0.000000
      vertex -7.025871 7.803021 0.000000
    endloop
  endfacet
  facet normal 0.000000 0.000000 -1.000000
    outer loop
      vertex 1.097549 10.442480 0.000000
      vertex 6.720000 15.455238 0.000000
      vertex 3.845382 12.095238 0.000000
    endloop
  endfacet
  facet normal 0.000000 0.000000 -1.000000
    outer loop
      vertex -12.422475 -2.640478 0.000000
      vertex -8.497959 9.437939 0.000000
      vertex -9.592227 4.270735 0.000000
    endloop
  endfacet
  facet normal 0.000000 -0.000000 -1.000000
    outer loop
      vertex -10.270550 2.183073 0.000000
      vertex -12.422475 -2.640478 0.000000
      vertex -9.592227 4.270735 0.000000
    endloop
  endfacet
  facet normal 0.000000 0.000000 -1.000000
    outer loop
      vertex 1.097549 10.442480 0.000000
      vertex 3.845382 12.095238 0.000000
      vertex 3.924516 12.078418 0.000000
    endloop
  endfacet
  facet normal -0.000000 0.000000 -1.000000
    outer loop
      vertex 3.845382 12.095238 0.000000
      vertex 10.500000 15.455238 0.000000
      vertex 10.500000 12.095238 0.000000
    endloop
  endfacet
  facet normal 0.000000 0.000000 -1.000000
    outer loop
      vertex 7.025871 -7.803021 0.000000
      vertex 8.497959 -9.437939 0.000000
      vertex 5.250000 -9.093267 0.000000
    endloop
  endfacet
  facet normal 0.000000 0.000000 -1.000000
    outer loop
      vertex 6.350000 10.998523 0.000000
      vertex 3.244678 9.986093 0.000000
      vertex 3.924516 12.078418 0.000000
    endloop
  endfacet
  facet normal -0.000000 0.000000 -1.000000
    outer loop
      vertex 3.244678 9.986093 0.000000
      vertex 6.350000 10.998523 0.000000
      vertex 5.250000 9.093267 0.000000
    endloop
  endfacet
  facet normal -0.000000 0.000000 -1.000000
    outer loop
      vertex 5.250000 9.093267 0.000000
      vertex 8.497959 9.437939 0.000000
      vertex 7.025871 7.803021 0.000000
    endloop
  endfacet
  facet normal 0.000000 0.000000 -1.000000
    outer loop
      vertex 7.025871 7.803021 0.000000
      vertex 10.274516 7.464873 0.000000
      vertex 8.494678 6.171745 0.000000
    endloop
  endfacet
  facet normal 0.000000 0.000000 -1.000000
    outer loop
      vertex 8.494678 6.171745 0.000000
      vertex 11.602027 5.165555 0.000000
      vertex 9.592227 4.270735 0.000000
    endloop
  endfacet
  facet normal -0.994522 0.104528 0.000000
    outer loop
      vertex -12.700000 0.000000 0.000000
      vertex -12.700000 0.000000 5.000000
      vertex -12.422475 2.640478 0.000000
    endloop
  endfacet
  facet normal -0.994522 0.104528 0.000000
    outer loop
      vertex -12.422475 2.640478 0.000000
      vertex -12.700000 0.000000 5.000000
      vertex -12.422475 2.640478 5.000000
    endloop
  endfacet
  facet normal -0.994522 -0.104528 -0.000000
    outer loop
      vertex -12.700000 0.000000 0.000000
      vertex -12.422475 -2.640478 0.000000
      vertex -12.700000 0.000000 5.000000
    endloop
  endfacet
  facet normal -0.994522 -0.104528 0.000000
    outer loop
      vertex -12.700000 0.000000 5.000000
      vertex -12.422475 -2.640478 0.000000
      vertex -12.422475 -2.640478 5.000000
    endloop
  endfacet
  facet normal -0.951057 -0.309017 -0.000000
    outer loop
      vertex -12.422475 -2.640478 0.000000
      vertex -11.602027 -5.165555 0.000000
      vertex -12.422475 -2.640478 5.000000
    endloop
  endfacet
  facet normal -0.951057 -0.309017 0.000000
    outer loop
      vertex -12.422475 -2.640478 5.000000
      vertex -11.602027 -5.165555 0.000000
      vertex -11.602027 -5.165555 5.000000
    endloop
  endfacet
  facet normal -0.866025 -0.500000 -0.000000
    outer loop
      vertex -11.602027 -5.165555 0.000000
      vertex -10.274516 -7.464873 0.000000
      vertex -11.602027 -5.165555 5.000000
    endloop
  endfacet
  facet normal -0.866025 -0.500000 0.000000
    outer loop
      vertex -11.602027 -5.165555 5.000000
      vertex -10.274516 -7.464873 0.000000
      vertex -10.274516 -7.464873 5.000000
    endloop
  endfacet
  facet normal -0.743145 -0.669131 -0.000000
    outer loop
      vertex -10.274516 -7.464873 0.000000
      vertex -8.497959 -9.437939 0.000000
      vertex -10.274516 -7.464873 5.000000
    endloop
  endfacet
  facet normal -0.743145 -0.669131 0.000000
    outer loop
      vertex -10.274516 -7.464873 5.000000
      vertex -8.497959 -9.437939 0.000000
      vertex -8.497959 -9.437939 5.000000
    endloop
  endfacet
  facet normal -0.587785 -0.809017 0.000000
    outer loop
      vertex -8.497959 -9.437939 5.000000
      vertex -8.497959 -9.437939 0.000000
      vertex -6.350000 -10.998523 0.000000
    endloop
  endfacet
  facet normal -0.587785 -0.809017 0.000000
    outer loop
      vertex -6.350000 -10.998523 5.000000
      vertex -8.497959 -9.437939 5.000000
      vertex -6.350000 -10.998523 0.000000
    endloop
  endfacet
  facet normal -0.406737 -0.913545 0.000000
    outer loop
      vertex -6.350000 -10.998523 5.000000
      vertex -6.350000 -10.998523 0.000000
      vertex -3.924516 -12.078418 0.000000
    endloop
  endfacet
  facet normal -0.406737 -0.913545 0.000000
    outer loop
      vertex -3.924516 -12.078418 5.000000
      vertex -6.350000 -10.998523 5.000000
      vertex -3.924516 -12.078418 0.000000
    endloop
  endfacet
  facet normal -0.207912 -0.978148 0.000000
    outer loop
      vertex -3.924516 -12.078418 5.000000
      vertex -3.924516 -12.078418 0.000000
      vertex -1.327511 -12.630428 0.000000
    endloop
  endfacet
  facet normal -0.207912 -0.978148 0.000000
    outer loop
      vertex -1.327511 -12.630428 5.000000
      vertex -3.924516 -12.078418 5.000000
      vertex -1.327511 -12.630428 0.000000
    endloop
  endfacet
  facet normal 0.000000 -1.000000 0.000000
    outer loop
      vertex -1.327511 -12.630428 5.000000
      vertex -1.327511 -12.630428 0.000000
      vertex 1.327511 -12.630428 0.000000
    endloop
  endfacet
  facet normal 0.000000 -1.000000 0.000000
    outer loop
      vertex 1.327511 -12.630428 5.000000
      vertex -1.327511 -12.630428 5.000000
      vertex 1.327511 -12.630428 0.000000
    endloop
  endfacet
  facet normal 0.207912 -0.978148 0.000000
    outer loop
      vertex 1.327511 -12.630428 5.000000
      vertex 1.327511 -12.630428 0.000000
      vertex 3.924516 -12.078418 0.000000
    endloop
  endfacet
  facet normal 0.207912 -0.978148 0.000000
    outer loop
      vertex 3.924516 -12.078418 5.000000
      vertex 1.327511 -12.630428 5.000000
      vertex 3.924516 -12.078418 0.000000
    endloop
  endfacet
  facet normal 0.406737 -0.913545 0.000000
    outer loop
      vertex 3.924516 -12.078418 5.000000
      vertex 3.924516 -12.078418 0.000000
      vertex 6.350000 -10.998523 0.000000
    endloop
  endfacet
  facet normal 0.406737 -0.913545 0.000000
    outer loop
      vertex 6.350000 -10.998523 5.000000
      vertex 3.924516 -12.078418 5.000000
      vertex 6.350000 -10.998523 0.000000
    endloop
  endfacet
  facet normal 0.587785 -0.809017 0.000000
    outer loop
      vertex 6.350000 -10.998523 5.000000
      vertex 6.350000 -10.998523 0.000000
      vertex 8.497959 -9.437939 0.000000
    endloop
  endfacet
  facet normal 0.587785 -0.809017 0.000000
    outer loop
      vertex 8.497959 -9.437939 5.000000
      vertex 6.350000 -10.998523 5.000000
      vertex 8.497959 -9.437939 0.000000
    endloop
  endfacet
  facet normal 0.743145 -0.669131 0.000000
    outer loop
      vertex 8.497959 -9.437939 5.000000
      vertex 8.497959 -9.437939 0.000000
      vertex 10.274516 -7.464873 0.000000
    endloop
  endfacet
  facet normal 0.743145 -0.669131 0.000000
    outer loop
      vertex 10.274516 -7.464873 5.000000
      vertex 8.497959 -9.437939 5.000000
      vertex 10.274516 -7.464873 0.000000
    endloop
  endfacet
  facet normal 0.866025 -0.500000 0.000000
    outer loop
      vertex 10.274516 -7.464873 5.000000
      vertex 10.274516 -7.464873 0.000000
      vertex 11.602027 -5.165555 0.000000
    endloop
  endfacet
  facet normal 0.866025 -0.500000 0.000000
    outer loop
      vertex 11.602027 -5.165555 5.000000
      vertex 10.274516 -7.464873 5.000000
      vertex 11.602027 -5.165555 0.000000
    endloop
  endfacet
  facet normal 0.951057 -0.309017 0.000000
    outer loop
      vertex 11.602027 -5.165555 5.000000
      vertex 11.602027 -5.165555 0.000000
      vertex 12.422475 -2.640478 0.000000
    endloop
  endfacet
  facet normal 0.951057 -0.309017 0.000000
    outer loop
      vertex 12.422475 -2.640478 5.000000
      vertex 11.602027 -5.165555 5.000000
      vertex 12.422475 -2.640478 0.000000
    endloop
  endfacet
  facet normal 0.994522 -0.104528 0.000000
    outer loop
      vertex 12.422475 -2.640478 5.000000
      vertex 12.422475 -2.640478 0.000000
      vertex 12.700000 0.000000 0.000000
    endloop
  endfacet
  facet normal 0.994522 -0.104528 0.000000
    outer loop
      vertex 12.700000 0.000000 5.000000
      vertex 12.422475 -2.640478 5.000000
      vertex 12.700000 0.000000 0.000000
    endloop
  endfacet
  facet normal 0.994522 0.104528 0.000000
    outer loop
      vertex 12.700000 0.000000 0.000000
      vertex 12.422475 2.640478 0.000000
      vertex 12.422475 2.640478 5.000000
    endloop
  endfacet
  facet normal 0.994522 0.104528 -0.000000
    outer loop
      vertex 12.700000 0.000000 5.000000
      vertex 12.700000 0.000000 0.000000
      vertex 12.422475 2.640478 5.000000
    endloop
  endfacet
  facet normal 0.951057 0.309017 0.000000
    outer loop
      vertex 12.422475 2.640478 0.000000
      vertex 11.602027 5.165555 0.000000
      vertex 11.602027 5.165555 5.000000
    endloop
  endfacet
  facet normal 0.951057 0.309017 -0.000000
    outer loop
      vertex 12.422475 2.640478 5.000000
      vertex 12.422475 2.640478 0.000000
      vertex 11.602027 5.165555 5.000000
    endloop
  endfacet
  facet normal 0.866025 0.500000 0.000000
    outer loop
      vertex 11.602027 5.165555 0.000000
      vertex 10.274516 7.464873 0.000000
      vertex 10.274516 7.464873 5.000000
    endloop
  endfacet
  facet normal 0.866025 0.500000 -0.000000
    outer loop
      vertex 11.602027 5.165555 5.000000
      vertex 11.602027 5.165555 0.000000
      vertex 10.274516 7.464873 5.000000
    endloop
  endfacet
  facet normal 0.743145 0.669131 0.000000
    outer loop
      vertex 10.274516 7.464873 0.000000
      vertex 8.497959 9.437939 0.000000
      vertex 8.497959 9.437939 5.000000
    endloop
  endfacet
  facet normal 0.743145 0.669131 -0.000000
    outer loop
      vertex 10.274516 7.464873 5.000000
      vertex 10.274516 7.464873 0.000000
      vertex 8.497959 9.437939 5.000000
    endloop
  endfacet
  facet normal 0.587785 0.809017 0.000000
    outer loop
      vertex 6.350000 10.998523 0.000000
      vertex 6.350000 10.998523 5.000000
      vertex 8.497959 9.437939 0.000000
    endloop
  endfacet
  facet normal 0.587785 0.809017 0.000000
    outer loop
      vertex 8.497959 9.437939 0.000000
      vertex 6.350000 10.998523 5.000000
      vertex 8.497959 9.437939 5.000000
    endloop
  endfacet
  facet normal 0.406737 0.913545 0.000000
    outer loop
      vertex 3.924516 12.078418 0.000000
      vertex 3.924516 12.078418 5.000000
      vertex 6.350000 10.998523 0.000000
    endloop
  endfacet
  facet normal 0.406737 0.913545 0.000000
    outer loop
      vertex 6.350000 10.998523 0.000000
      vertex 3.924516 12.078418 5.000000
      vertex 6.350000 10.998523 5.000000
    endloop
  endfacet
  facet normal 0.207912 0.978148 0.000000
    outer loop
      vertex 3.845382 12.095238 0.000000
      vertex 3.845382 12.095238 5.000000
      vertex 3.924516 12.078418 0.000000
    endloop
  endfacet
  facet normal 0.207912 0.978148 0.000000
    outer loop
      vertex 3.924516 12.078418 0.000000
      vertex 3.845382 12.095238 5.000000
      vertex 3.924516 12.078418 5.000000
    endloop
  endfacet
  facet normal 0.000000 -1.000000 0.000000
    outer loop
      vertex 3.845382 12.095238 5.000000
      vertex 3.845382 12.095238 0.000000
      vertex 10.500000 12.095238 0.000000
    endloop
  endfacet
  facet normal 0.000000 -1.000000 0.000000
    outer loop
      vertex 10.500000 12.095238 5.000000
      vertex 3.845382 12.095238 5.000000
      vertex 10.500000 12.095238 0.000000
    endloop
  endfacet
  facet normal 1.000000 0.000000 -0.000000
    outer loop
      vertex 10.500000 12.095238 5.000000
      vertex 10.500000 12.095238 0.000000
      vertex 10.500000 15.455238 0.000000
    endloop
  endfacet
  facet normal 1.000000 0.000000 0.000000
    outer loop
      vertex 10.500000 15.455238 5.000000
      vertex 10.500000 12.095238 5.000000
      vertex 10.500000 15.455238 0.000000
    endloop
  endfacet
  facet normal 0.000000 1.000000 0.000000
    outer loop
      vertex 6.720000 15.455238 0.000000
      vertex 6.720000 15.455238 5.000000
      vertex 10.500000 15.455238 0.000000
    endloop
  endfacet
  facet normal 0.000000 1.000000 0.000000
    outer loop
      vertex 10.500000 15.455238 0.000000
      vertex 6.720000 15.455238 5.000000
      vertex 10.500000 15.455238 5.000000
    endloop
  endfacet
  facet normal 1.000000 0.000000 -0.000000
    outer loop
      vertex 6.720000 15.455238 5.000000
      vertex 6.720000 15.455238 0.000000
      vertex 6.720000 28.895238 0.000000
    endloop
  endfacet
  facet normal 1.000000 0.000000 0.000000
    outer loop
      vertex 6.720000 28.895238 5.000000
      vertex 6.720000 15.455238 5.000000
      vertex 6.720000 28.895238 0.000000
    endloop
  endfacet
  facet normal 0.000000 1.000000 0.000000
    outer loop
      vertex -6.720000 28.895238 0.000000
      vertex -6.720000 28.895238 5.000000
      vertex 6.720000 28.895238 0.000000
    endloop
  endfacet
  facet normal 0.000000 1.000000 0.000000
    outer loop
      vertex 6.720000 28.895238 0.000000
      vertex -6.720000 28.895238 5.000000
      vertex 6.720000 28.895238 5.000000
    endloop
  endfacet
  facet normal -1.000000 -0.000000 -0.000000
    outer loop
      vertex -6.720000 15.455238 0.000000
      vertex -6.720000 15.455238 5.000000
      vertex -6.720000 28.895238 0.000000
    endloop
  endfacet
  facet normal -1.000000 0.000000 0.000000
    outer loop
      vertex -6.720000 28.895238 0.000000
      vertex -6.720000 15.455238 5.000000
      vertex -6.720000 28.895238 5.000000
    endloop
  endfacet
  facet normal 0.000000 1.000000 0.000000
    outer loop
      vertex -10.500000 15.455238 0.000000
      vertex -10.500000 15.455238 5.000000
      vertex -6.720000 15.455238 0.000000
    endloop
  endfacet
  facet normal 0.000000 1.000000 0.000000
    outer loop
      vertex -6.720000 15.455238 0.000000
      vertex -10.500000 15.455238 5.000000
      vertex -6.720000 15.455238 5.000000
    endloop
  endfacet
  facet normal -1.000000 -0.000000 -0.000000
    outer loop
      vertex -10.500000 12.095238 0.000000
      vertex -10.500000 12.095238 5.000000
      vertex -10.500000 15.455238 0.000000
    endloop
  endfacet
  facet normal -1.000000 0.000000 0.000000
    outer loop
      vertex -10.500000 15.455238 0.000000
      vertex -10.500000 12.095238 5.000000
      vertex -10.500000 15.455238 5.000000
    endloop
  endfacet
  facet normal 0.000000 -1.000000 0.000000
    outer loop
      vertex -10.500000 12.095238 5.000000
      vertex -10.500000 12.095238 0.000000
      vertex -3.845382 12.095238 0.000000
    endloop
  endfacet
  facet normal 0.000000 -1.000000 0.000000
    outer loop
      vertex -3.845382 12.095238 5.000000
      vertex -10.500000 12.095238 5.000000
      vertex -3.845382 12.095238 0.000000
    endloop
  endfacet
  facet normal -0.207912 0.978148 0.000000
    outer loop
      vertex -3.924516 12.078418 0.000000
      vertex -3.924516 12.078418 5.000000
      vertex -3.845382 12.095238 0.000000
    endloop
  endfacet
  facet normal -0.207912 0.978148 0.000000
    outer loop
      vertex -3.845382 12.095238 0.000000
      vertex -3.924516 12.078418 5.000000
      vertex -3.845382 12.095238 5.000000
    endloop
  endfacet
  facet normal -0.406737 0.913545 0.000000
    outer loop
      vertex -6.350000 10.998523 0.000000
      vertex -6.350000 10.998523 5.000000
      vertex -3.924516 12.078418 0.000000
    endloop
  endfacet
  facet normal -0.406737 0.913545 0.000000
    outer loop
      vertex -3.924516 12.078418 0.000000
      vertex -6.350000 10.998523 5.000000
      vertex -3.924516 12.078418 5.000000
    endloop
  endfacet
  facet normal -0.587785 0.809017 0.000000
    outer loop
      vertex -8.497959 9.437939 0.000000
      vertex -8.497959 9.437939 5.000000
      vertex -6.350000 10.998523 0.000000
    endloop
  endfacet
  facet normal -0.587785 0.809017 0.000000
    outer loop
      vertex -6.350000 10.998523 0.000000
      vertex -8.497959 9.437939 5.000000
      vertex -6.350000 10.998523 5.000000
    endloop
  endfacet
  facet normal -0.743145 0.669131 0.000000
    outer loop
      vertex -10.274516 7.464873 0.000000
      vertex -10.274516 7.464873 5.000000
      vertex -8.497959 9.437939 0.000000
    endloop
  endfacet
  facet normal -0.743145 0.669131 0.000000
    outer loop
      vertex -8.497959 9.437939 0.000000
      vertex -10.274516 7.464873 5.000000
      vertex -8.497959 9.437939 5.000000
    endloop
  endfacet
  facet normal -0.866025 0.500000 0.000000
    outer loop
      vertex -11.602027 5.165555 0.000000
      vertex -11.602027 5.165555 5.000000
      vertex -10.274516 7.464873 0.000000
    endloop
  endfacet
  facet normal -0.866025 0.500000 0.000000
    outer loop
      vertex -10.274516 7.464873 0.000000
      vertex -11.602027 5.165555 5.000000
      vertex -10.274516 7.464873 5.000000
    endloop
  endfacet
  facet normal -0.951057 0.309017 0.000000
    outer loop
      vertex -12.422475 2.640478 0.000000
      vertex -12.422475 2.640478 5.000000
      vertex -11.602027 5.165555 0.000000
    endloop
  endfacet
  facet normal -0.951057 0.309017 0.000000
    outer loop
      vertex -11.602027 5.165555 0.000000
      vertex -12.422475 2.640478 5.000000
      vertex -11.602027 5.165555 5.000000
    endloop
  endfacet
  facet normal 0.994522 0.104528 0.000000
    outer loop
      vertex -10.500000 0.000000 5.000000
      vertex -10.270550 -2.183073 5.000000
      vertex -10.270550 -2.183073 0.000000
    endloop
  endfacet
  facet normal 0.994522 0.104528 0.000000
    outer loop
      vertex -10.500000 0.000000 0.000000
      vertex -10.500000 0.000000 5.000000
      vertex -10.270550 -2.183073 0.000000
    endloop
  endfacet
  facet normal 0.994522 -0.104528 0.000000
    outer loop
      vertex -10.270550 2.183073 0.000000
      vertex -10.270550 2.183073 5.000000
      vertex -10.500000 0.000000 5.000000
    endloop
  endfacet
  facet normal 0.994522 -0.104528 0.000000
    outer loop
      vertex -10.500000 0.000000 0.000000
      vertex -10.270550 2.183073 0.000000
      vertex -10.500000 0.000000 5.000000
    endloop
  endfacet
  facet normal 0.951057 -0.309017 0.000000
    outer loop
      vertex -9.592227 4.270735 0.000000
      vertex -9.592227 4.270735 5.000000
      vertex -10.270550 2.183073 5.000000
    endloop
  endfacet
  facet normal 0.951057 -0.309017 0.000000
    outer loop
      vertex -10.270550 2.183073 0.000000
      vertex -9.592227 4.270735 0.000000
      vertex -10.270550 2.183073 5.000000
    endloop
  endfacet
  facet normal 0.866025 -0.500000 0.000000
    outer loop
      vertex -8.494678 6.171745 0.000000
      vertex -8.494678 6.171745 5.000000
      vertex -9.592227 4.270735 5.000000
    endloop
  endfacet
  facet normal 0.866025 -0.500000 0.000000
    outer loop
      vertex -9.592227 4.270735 0.000000
      vertex -8.494678 6.171745 0.000000
      vertex -9.592227 4.270735 5.000000
    endloop
  endfacet
  facet normal 0.743145 -0.669131 0.000000
    outer loop
      vertex -7.025871 7.803021 0.000000
      vertex -7.025871 7.803021 5.000000
      vertex -8.494678 6.171745 5.000000
    endloop
  endfacet
  facet normal 0.743145 -0.669131 0.000000
    outer loop
      vertex -8.494678 6.171745 0.000000
      vertex -7.025871 7.803021 0.000000
      vertex -8.494678 6.171745 5.000000
    endloop
  endfacet
  facet normal 0.587785 -0.809017 0.000000
    outer loop
      vertex -5.250000 9.093267 0.000000
      vertex -5.250000 9.093267 5.000000
      vertex -7.025871 7.803021 5.000000
    endloop
  endfacet
  facet normal 0.587785 -0.809017 0.000000
    outer loop
      vertex -7.025871 7.803021 0.000000
      vertex -5.250000 9.093267 0.000000
      vertex -7.025871 7.803021 5.000000
    endloop
  endfacet
  facet normal 0.406737 -0.913545 0.000000
    outer loop
      vertex -3.244678 9.986093 0.000000
      vertex -3.244678 9.986093 5.000000
      vertex -5.250000 9.093267 5.000000
    endloop
  endfacet
  facet normal 0.406737 -0.913545 0.000000
    outer loop
      vertex -5.250000 9.093267 0.000000
      vertex -3.244678 9.986093 0.000000
      vertex -5.250000 9.093267 5.000000
    endloop
  endfacet
  facet normal 0.207912 -0.978148 0.000000
    outer loop
      vertex -1.097549 10.442480 0.000000
      vertex -1.097549 10.442480 5.000000
      vertex -3.244678 9.986093 5.000000
    endloop
  endfacet
  facet normal 0.207912 -0.978148 0.000000
    outer loop
      vertex -3.244678 9.986093 0.000000
      vertex -1.097549 10.442480 0.000000
      vertex -3.244678 9.986093 5.000000
    endloop
  endfacet
  facet normal 0.000000 -1.000000 0.000000
    outer loop
      vertex 1.097549 10.442480 0.000000
      vertex 1.097549 10.442480 5.000000
      vertex -1.097549 10.442480 5.000000
    endloop
  endfacet
  facet normal -0.000000 -1.000000 -0.000000
    outer loop
      vertex -1.097549 10.442480 0.000000
      vertex 1.097549 10.442480 0.000000
      vertex -1.097549 10.442480 5.000000
    endloop
  endfacet
  facet normal -0.207912 -0.978148 -0.000000
    outer loop
      vertex 3.244678 9.986093 0.000000
      vertex 3.244678 9.986093 5.000000
      vertex 1.097549 10.442480 5.000000
    endloop
  endfacet
  facet normal -0.207912 -0.978148 -0.000000
    outer loop
      vertex 1.097549 10.442480 0.000000
      vertex 3.244678 9.986093 0.000000
      vertex 1.097549 10.442480 5.000000
    endloop
  endfacet
  facet normal -0.406737 -0.913545 -0.000000
    outer loop
      vertex 5.250000 9.093267 0.000000
      vertex 5.250000 9.093267 5.000000
      vertex 3.244678 9.986093 5.000000
    endloop
  endfacet
  facet normal -0.406737 -0.913545 -0.000000
    outer loop
      vertex 3.244678 9.986093 0.000000
      vertex 5.250000 9.093267 0.000000
      vertex 3.244678 9.986093 5.000000
    endloop
  endfacet
  facet normal -0.587785 -0.809017 -0.000000
    outer loop
      vertex 7.025871 7.803021 0.000000
      vertex 7.025871 7.803021 5.000000
      vertex 5.250000 9.093267 5.000000
    endloop
  endfacet
  facet normal -0.587785 -0.809017 -0.000000
    outer loop
      vertex 5.250000 9.093267 0.000000
      vertex 7.025871 7.803021 0.000000
      vertex 5.250000 9.093267 5.000000
    endloop
  endfacet
  facet normal -0.743145 -0.669131 0.000000
    outer loop
      vertex 8.494678 6.171745 5.000000
      vertex 7.025871 7.803021 5.000000
      vertex 8.494678 6.171745 0.000000
    endloop
  endfacet
  facet normal -0.743145 -0.669131 0.000000
    outer loop
      vertex 8.494678 6.171745 0.000000
      vertex 7.025871 7.803021 5.000000
      vertex 7.025871 7.803021 0.000000
    endloop
  endfacet
  facet normal -0.866025 -0.500000 0.000000
    outer loop
      vertex 9.592227 4.270735 5.000000
      vertex 8.494678 6.171745 5.000000
      vertex 9.592227 4.270735 0.000000
    endloop
  endfacet
  facet normal -0.866025 -0.500000 0.000000
    outer loop
      vertex 9.592227 4.270735 0.000000
      vertex 8.494678 6.171745 5.000000
      vertex 8.494678 6.171745 0.000000
    endloop
  endfacet
  facet normal -0.951057 -0.309017 0.000000
    outer loop
      vertex 10.270550 2.183073 5.000000
      vertex 9.592227 4.270735 5.000000
      vertex 10.270550 2.183073 0.000000
    endloop
  endfacet
  facet normal -0.951057 -0.309017 0.000000
    outer loop
      vertex 10.270550 2.183073 0.000000
      vertex 9.592227 4.270735 5.000000
      vertex 9.592227 4.270735 0.000000
    endloop
  endfacet
  facet normal -0.994522 -0.104528 0.000000
    outer loop
      vertex 10.500000 0.000000 5.000000
      vertex 10.270550 2.183073 5.000000
      vertex 10.500000 0.000000 0.000000
    endloop
  endfacet
  facet normal -0.994522 -0.104528 0.000000
    outer loop
      vertex 10.500000 0.000000 0.000000
      vertex 10.270550 2.183073 5.000000
      vertex 10.270550 2.183073 0.000000
    endloop
  endfacet
  facet normal -0.994522 0.104528 0.000000
    outer loop
      vertex 10.500000 0.000000 5.000000
      vertex 10.500000 0.000000 0.000000
      vertex 10.270550 -2.183073 5.000000
    endloop
  endfacet
  facet normal -0.994522 0.104528 0.000000
    outer loop
      vertex 10.270550 -2.183073 5.000000
      vertex 10.500000 0.000000 0.000000
      vertex 10.270550 -2.183073 0.000000
    endloop
  endfacet
  facet normal -0.951057 0.309017 0.000000
    outer loop
      vertex 10.270550 -2.183073 5.000000
      vertex 10.270550 -2.183073 0.000000
      vertex 9.592227 -4.270735 5.000000
    endloop
  endfacet
  facet normal -0.951057 0.309017 0.000000
    outer loop
      vertex 9.592227 -4.270735 5.000000
      vertex 10.270550 -2.183073 0.000000
      vertex 9.592227 -4.270735 0.000000
    endloop
  endfacet
  facet normal -0.866025 0.500000 0.000000
    outer loop
      vertex 9.592227 -4.270735 5.000000
      vertex 9.592227 -4.270735 0.000000
      vertex 8.494678 -6.171745 5.000000
    endloop
  endfacet
  facet normal -0.866025 0.500000 0.000000
    outer loop
      vertex 8.494678 -6.171745 5.000000
      vertex 9.592227 -4.270735 0.000000
      vertex 8.494678 -6.171745 0.000000
    endloop
  endfacet
  facet normal -0.743145 0.669131 0.000000
    outer loop
      vertex 8.494678 -6.171745 5.000000
      vertex 8.494678 -6.171745 0.000000
      vertex 7.025871 -7.803021 5.000000
    endloop
  endfacet
  facet normal -0.743145 0.669131 0.000000
    outer loop
      vertex 7.025871 -7.803021 5.000000
      vertex 8.494678 -6.171745 0.000000
      vertex 7.025871 -7.803021 0.000000
    endloop
  endfacet
  facet normal -0.587785 0.809017 0.000000
    outer loop
      vertex 7.025871 -7.803021 5.000000
      vertex 7.025871 -7.803021 0.000000
      vertex 5.250000 -9.093267 5.000000
    endloop
  endfacet
  facet normal -0.587785 0.809017 0.000000
    outer loop
      vertex 5.250000 -9.093267 5.000000
      vertex 7.025871 -7.803021 0.000000
      vertex 5.250000 -9.093267 0.000000
    endloop
  endfacet
  facet normal -0.406737 0.913545 0.000000
    outer loop
      vertex 5.250000 -9.093267 5.000000
      vertex 5.250000 -9.093267 0.000000
      vertex 3.244678 -9.986093 5.000000
    endloop
  endfacet
  facet normal -0.406737 0.913545 0.000000
    outer loop
      vertex 3.244678 -9.986093 5.000000
      vertex 5.250000 -9.093267 0.000000
      vertex 3.244678 -9.986093 0.000000
    endloop
  endfacet
  facet normal -0.207912 0.978148 0.000000
    outer loop
      vertex 3.244678 -9.986093 5.000000
      vertex 3.244678 -9.986093 0.000000
      vertex 1.097549 -10.442480 5.000000
    endloop
  endfacet
  facet normal -0.207912 0.978148 0.000000
    outer loop
      vertex 1.097549 -10.442480 5.000000
      vertex 3.244678 -9.986093 0.000000
      vertex 1.097549 -10.442480 0.000000
    endloop
  endfacet
  facet normal 0.000000 1.000000 0.000000
    outer loop
      vertex 1.097549 -10.442480 5.000000
      vertex 1.097549 -10.442480 0.000000
      vertex -1.097549 -10.442480 5.000000
    endloop
  endfacet
  facet normal 0.000000 1.000000 -0.000000
    outer loop
      vertex -1.097549 -10.442480 5.000000
      vertex 1.097549 -10.442480 0.000000
      vertex -1.097549 -10.442480 0.000000
    endloop
  endfacet
  facet normal 0.207912 0.978148 -0.000000
    outer loop
      vertex -1.097549 -10.442480 5.000000
      vertex -1.097549 -10.442480 0.000000
      vertex -3.244678 -9.986093 5.000000
    endloop
  endfacet
  facet normal 0.207912 0.978148 -0.000000
    outer loop
      vertex -3.244678 -9.986093 5.000000
      vertex -1.097549 -10.442480 0.000000
      vertex -3.244678 -9.986093 0.000000
    endloop
  endfacet
  facet normal 0.406737 0.913545 -0.000000
    outer loop
      vertex -3.244678 -9.986093 5.000000
      vertex -3.244678 -9.986093 0.000000
      vertex -5.250000 -9.093267 5.000000
    endloop
  endfacet
  facet normal 0.406737 0.913545 -0.000000
    outer loop
      vertex -5.250000 -9.093267 5.000000
      vertex -3.244678 -9.986093 0.000000
      vertex -5.250000 -9.093267 0.000000
    endloop
  endfacet
  facet normal 0.587785 0.809017 -0.000000
    outer loop
      vertex -5.250000 -9.093267 5.000000
      vertex -5.250000 -9.093267 0.000000
      vertex -7.025871 -7.803021 5.000000
    endloop
  endfacet
  facet normal 0.587785 0.809017 -0.000000
    outer loop
      vertex -7.025871 -7.803021 5.000000
      vertex -5.250000 -9.093267 0.000000
      vertex -7.025871 -7.803021 0.000000
    endloop
  endfacet
  facet normal 0.743145 0.669131 0.000000
    outer loop
      vertex -8.494678 -6.171745 5.000000
      vertex -7.025871 -7.803021 5.000000
      vertex -7.025871 -7.803021 0.000000
    endloop
  endfacet
  facet normal 0.743145 0.669131 0.000000
    outer loop
      vertex -8.494678 -6.171745 0.000000
      vertex -8.494678 -6.171745 5.000000
      vertex -7.025871 -7.803021 0.000000
    endloop
  endfacet
  facet normal 0.866025 0.500000 0.000000
    outer loop
      vertex -9.592227 -4.270735 5.000000
      vertex -8.494678 -6.171745 5.000000
      vertex -8.494678 -6.171745 0.000000
    endloop
  endfacet
  facet normal 0.866025 0.500000 0.000000
    outer loop
      vertex -9.592227 -4.270735 0.000000
      vertex -9.592227 -4.270735 5.000000
      vertex -8.494678 -6.171745 0.000000
    endloop
  endfacet
  facet normal 0.951057 0.309017 0.000000
    outer loop
      vertex -10.270550 -2.183073 5.000000
      vertex -9.592227 -4.270735 5.000000
      vertex -9.592227 -4.270735 0.000000
    endloop
  endfacet
  facet normal 0.951057 0.309017 0.000000
    outer loop
      vertex -10.270550 -2.183073 0.000000
      vertex -10.270550 -2.183073 5.000000
      vertex -9.592227 -4.270735 0.000000
    endloop
  endfacet
  facet normal 0.000000 0.000000 1.000000
    outer loop
      vertex -12.422475 2.640478 5.000000
      vertex -12.700000 0.000000 5.000000
      vertex -12.422475 -2.640478 5.000000
    endloop
  endfacet
  facet normal 0.000000 0.000000 1.000000
    outer loop
      vertex -10.274516 -7.464873 5.000000
      vertex -12.422475 2.640478 5.000000
      vertex -11.602027 -5.165555 5.000000
    endloop
  endfacet
  facet normal 0.000000 0.000000 1.000000
    outer loop
      vertex -11.602027 -5.165555 5.000000
      vertex -12.422475 2.640478 5.000000
      vertex -12.422475 -2.640478 5.000000
    endloop
  endfacet
  facet normal 0.000000 0.000000 1.000000
    outer loop
      vertex -8.497959 -9.437939 5.000000
      vertex -12.422475 2.640478 5.000000
      vertex -10.274516 -7.464873 5.000000
    endloop
  endfacet
  facet normal -0.000000 -0.000000 1.000000
    outer loop
      vertex -9.592227 -4.270735 5.000000
      vertex -12.422475 2.640478 5.000000
      vertex -8.497959 -9.437939 5.000000
    endloop
  endfacet
  facet normal 0.000000 -0.000000 1.000000
    outer loop
      vertex 8.494678 -6.171745 5.000000
      vertex 7.025871 -7.803021 5.000000
      vertex 10.274516 -7.464873 5.000000
    endloop
  endfacet
  facet normal 0.000000 0.000000 1.000000
    outer loop
      vertex -10.270550 2.183073 5.000000
      vertex -9.592227 4.270735 5.000000
      vertex -12.422475 2.640478 5.000000
    endloop
  endfacet
  facet normal 0.000000 -0.000000 1.000000
    outer loop
      vertex 1.097549 -10.442480 5.000000
      vertex -1.097549 -10.442480 5.000000
      vertex 1.327511 -12.630428 5.000000
    endloop
  endfacet
  facet normal 0.000000 0.000000 1.000000
    outer loop
      vertex 9.592227 4.270735 5.000000
      vertex 10.270550 2.183073 5.000000
      vertex 12.422475 2.640478 5.000000
    endloop
  endfacet
  facet normal 0.000000 0.000000 1.000000
    outer loop
      vertex 8.494678 6.171745 5.000000
      vertex 9.592227 4.270735 5.000000
      vertex 11.602027 5.165555 5.000000
    endloop
  endfacet
  facet normal -0.000000 0.000000 1.000000
    outer loop
      vertex -9.592227 4.270735 5.000000
      vertex -8.494678 6.171745 5.000000
      vertex -12.422475 2.640478 5.000000
    endloop
  endfacet
  facet normal 0.000000 0.000000 1.000000
    outer loop
      vertex 10.270550 2.183073 5.000000
      vertex 10.500000 0.000000 5.000000
      vertex 12.700000 0.000000 5.000000
    endloop
  endfacet
  facet normal 0.000000 0.000000 1.000000
    outer loop
      vertex -1.097549 10.442480 5.000000
      vertex 3.845382 12.095238 5.000000
      vertex 6.720000 15.455238 5.000000
    endloop
  endfacet
  facet normal 0.000000 0.000000 1.000000
    outer loop
      vertex -1.097549 10.442480 5.000000
      vertex 1.097549 10.442480 5.000000
      vertex 3.924516 12.078418 5.000000
    endloop
  endfacet
  facet normal 0.000000 0.000000 1.000000
    outer loop
      vertex -3.244678 9.986093 5.000000
      vertex -1.097549 10.442480 5.000000
      vertex 6.720000 15.455238 5.000000
    endloop
  endfacet
  facet normal 0.000000 0.000000 1.000000
    outer loop
      vertex 10.500000 15.455238 5.000000
      vertex 3.845382 12.095238 5.000000
      vertex 10.500000 12.095238 5.000000
    endloop
  endfacet
  facet normal 0.000000 -0.000000 1.000000
    outer loop
      vertex 6.720000 15.455238 5.000000
      vertex 3.845382 12.095238 5.000000
      vertex 10.500000 15.455238 5.000000
    endloop
  endfacet
  facet normal -0.000000 -0.000000 1.000000
    outer loop
      vertex -8.494678 -6.171745 5.000000
      vertex -9.592227 -4.270735 5.000000
      vertex -6.350000 -10.998523 5.000000
    endloop
  endfacet
  facet normal 0.000000 0.000000 1.000000
    outer loop
      vertex -10.274516 7.464873 5.000000
      vertex -11.602027 5.165555 5.000000
      vertex -12.422475 2.640478 5.000000
    endloop
  endfacet
  facet normal 0.000000 -0.000000 1.000000
    outer loop
      vertex -6.720000 28.895238 5.000000
      vertex -6.720000 15.455238 5.000000
      vertex 6.720000 28.895238 5.000000
    endloop
  endfacet
  facet normal 0.000000 0.000000 1.000000
    outer loop
      vertex -3.924516 12.078418 5.000000
      vertex -6.350000 10.998523 5.000000
      vertex -12.422475 2.640478 5.000000
    endloop
  endfacet
  facet normal 0.000000 0.000000 1.000000
    outer loop
      vertex 6.720000 28.895238 5.000000
      vertex -3.845382 12.095238 5.000000
      vertex 6.720000 15.455238 5.000000
    endloop
  endfacet
  facet normal 0.000000 -0.000000 1.000000
    outer loop
      vertex -3.924516 12.078418 5.000000
      vertex -12.422475 2.640478 5.000000
      vertex -3.845382 12.095238 5.000000
    endloop
  endfacet
  facet normal 0.000000 0.000000 1.000000
    outer loop
      vertex -9.592227 -4.270735 5.000000
      vertex -10.270550 -2.183073 5.000000
      vertex -12.422475 2.640478 5.000000
    endloop
  endfacet
  facet normal 0.000000 0.000000 1.000000
    outer loop
      vertex -10.270550 -2.183073 5.000000
      vertex -10.500000 0.000000 5.000000
      vertex -12.422475 2.640478 5.000000
    endloop
  endfacet
  facet normal 0.000000 -0.000000 1.000000
    outer loop
      vertex -8.497959 9.437939 5.000000
      vertex -12.422475 2.640478 5.000000
      vertex -6.350000 10.998523 5.000000
    endloop
  endfacet
  facet normal 0.000000 -0.000000 1.000000
    outer loop
      vertex 7.025871 -7.803021 5.000000
      vertex 5.250000 -9.093267 5.000000
      vertex 8.497959 -9.437939 5.000000
    endloop
  endfacet
  facet normal 0.000000 -0.000000 1.000000
    outer loop
      vertex -10.274516 7.464873 5.000000
      vertex -12.422475 2.640478 5.000000
      vertex -8.497959 9.437939 5.000000
    endloop
  endfacet
  facet normal 0.000000 -0.000000 1.000000
    outer loop
      vertex 5.250000 -9.093267 5.000000
      vertex 3.244678 -9.986093 5.000000
      vertex 6.350000 -10.998523 5.000000
    endloop
  endfacet
  facet normal 0.000000 -0.000000 1.000000
    outer loop
      vertex 9.592227 -4.270735 5.000000
      vertex 8.494678 -6.171745 5.000000
      vertex 11.602027 -5.165555 5.000000
    endloop
  endfacet
  facet normal 0.000000 0.000000 1.000000
    outer loop
      vertex 5.250000 9.093267 5.000000
      vertex 7.025871 7.803021 5.000000
      vertex 8.497959 9.437939 5.000000
    endloop
  endfacet
  facet normal 0.000000 0.000000 1.000000
    outer loop
      vertex -3.845382 12.095238 5.000000
      vertex -12.422475 2.640478 5.000000
      vertex -8.494678 6.171745 5.000000
    endloop
  endfacet
  facet normal 0.000000 0.000000 1.000000
    outer loop
      vertex -1.097549 10.442480 5.000000
      vertex 3.924516 12.078418 5.000000
      vertex 3.845382 12.095238 5.000000
    endloop
  endfacet
  facet normal 0.000000 0.000000 1.000000
    outer loop
      vertex -3.845382 12.095238 5.000000
      vertex -8.494678 6.171745 5.000000
      vertex -7.025871 7.803021 5.000000
    endloop
  endfacet
  facet normal 0.000000 -0.000000 1.000000
    outer loop
      vertex -3.845382 12.095238 5.000000
      vertex -5.250000 9.093267 5.000000
      vertex 6.720000 15.455238 5.000000
    endloop
  endfacet
  facet normal 0.000000 0.000000 1.000000
    outer loop
      vertex -3.845382 12.095238 5.000000
      vertex -7.025871 7.803021 5.000000
      vertex -5.250000 9.093267 5.000000
    endloop
  endfacet
  facet normal 0.000000 0.000000 1.000000
    outer loop
      vertex -5.250000 9.093267 5.000000
      vertex -3.244678 9.986093 5.000000
      vertex 6.720000 15.455238 5.000000
    endloop
  endfacet
  facet normal 0.000000 -0.000000 1.000000
    outer loop
      vertex 3.924516 12.078418 5.000000
      vertex 1.097549 10.442480 5.000000
      vertex 6.350000 10.998523 5.000000
    endloop
  endfacet
  facet normal 0.000000 0.000000 1.000000
    outer loop
      vertex 1.097549 10.442480 5.000000
      vertex 3.244678 9.986093 5.000000
      vertex 6.350000 10.998523 5.000000
    endloop
  endfacet
  facet normal 0.000000 -0.000000 1.000000
    outer loop
      vertex 6.350000 10.998523 5.000000
      vertex 5.250000 9.093267 5.000000
      vertex 8.497959 9.437939 5.000000
    endloop
  endfacet
  facet normal 0.000000 -0.000000 1.000000
    outer loop
      vertex 8.497959 9.437939 5.000000
      vertex 7.025871 7.803021 5.000000
      vertex 10.274516 7.464873 5.000000
    endloop
  endfacet
  facet normal 0.000000 0.000000 1.000000
    outer loop
      vertex 3.244678 9.986093 5.000000
      vertex 5.250000 9.093267 5.000000
      vertex 6.350000 10.998523 5.000000
    endloop
  endfacet
  facet normal 0.000000 -0.000000 1.000000
    outer loop
      vertex 10.274516 7.464873 5.000000
      vertex 8.494678 6.171745 5.000000
      vertex 11.602027 5.165555 5.000000
    endloop
  endfacet
  facet normal 0.000000 -0.000000 1.000000
    outer loop
      vertex 11.602027 5.165555 5.000000
      vertex 9.592227 4.270735 5.000000
      vertex 12.422475 2.640478 5.000000
    endloop
  endfacet
  facet normal 0.000000 -0.000000 1.000000
    outer loop
      vertex 12.422475 2.640478 5.000000
      vertex 10.270550 2.183073 5.000000
      vertex 12.700000 0.000000 5.000000
    endloop
  endfacet
  facet normal 0.000000 0.000000 1.000000
    outer loop
      vertex 12.700000 0.000000 5.000000
      vertex 10.500000 0.000000 5.000000
      vertex 12.422475 -2.640478 5.000000
    endloop
  endfacet
  facet normal -0.000000 0.000000 1.000000
    outer loop
      vertex 12.422475 -2.640478 5.000000
      vertex 10.270550 -2.183073 5.000000
      vertex 11.602027 -5.165555 5.000000
    endloop
  endfacet
  facet normal 0.000000 0.000000 1.000000
    outer loop
      vertex 7.025871 7.803021 5.000000
      vertex 8.494678 6.171745 5.000000
      vertex 10.274516 7.464873 5.000000
    endloop
  endfacet
  facet normal 0.000000 -0.000000 1.000000
    outer loop
      vertex 10.270550 -2.183073 5.000000
      vertex 9.592227 -4.270735 5.000000
      vertex 11.602027 -5.165555 5.000000
    endloop
  endfacet
  facet normal 0.000000 0.000000 1.000000
    outer loop
      vertex 11.602027 -5.165555 5.000000
      vertex 8.494678 -6.171745 5.000000
      vertex 10.274516 -7.464873 5.000000
    endloop
  endfacet
  facet normal 0.000000 0.000000 1.000000
    outer loop
      vertex 10.274516 -7.464873 5.000000
      vertex 7.025871 -7.803021 5.000000
      vertex 8.497959 -9.437939 5.000000
    endloop
  endfacet
  facet normal -0.000000 0.000000 1.000000
    outer loop
      vertex 8.497959 -9.437939 5.000000
      vertex 5.250000 -9.093267 5.000000
      vertex 6.350000 -10.998523 5.000000
    endloop
  endfacet
  facet normal -0.000000 0.000000 1.000000
    outer loop
      vertex 6.350000 -10.998523 5.000000
      vertex 3.244678 -9.986093 5.000000
      vertex 3.924516 -12.078418 5.000000
    endloop
  endfacet
  facet normal 0.000000 -0.000000 1.000000
    outer loop
      vertex 10.500000 0.000000 5.000000
      vertex 10.270550 -2.183073 5.000000
      vertex 12.422475 -2.640478 5.000000
    endloop
  endfacet
  facet normal -0.000000 0.000000 1.000000
    outer loop
      vertex 3.924516 -12.078418 5.000000
      vertex 1.097549 -10.442480 5.000000
      vertex 1.327511 -12.630428 5.000000
    endloop
  endfacet
  facet normal -0.000000 0.000000 1.000000
    outer loop
      vertex 1.327511 -12.630428 5.000000
      vertex -1.097549 -10.442480 5.000000
      vertex -1.327511 -12.630428 5.000000
    endloop
  endfacet
  facet normal -0.000000 0.000000 1.000000
    outer loop
      vertex -1.097549 -10.442480 5.000000
      vertex -3.244678 -9.986093 5.000000
      vertex -1.327511 -12.630428 5.000000
    endloop
  endfacet
  facet normal 0.000000 0.000000 1.000000
    outer loop
      vertex -1.327511 -12.630428 5.000000
      vertex -5.250000 -9.093267 5.000000
      vertex -3.924516 -12.078418 5.000000
    endloop
  endfacet
  facet normal 0.000000 0.000000 1.000000
    outer loop
      vertex -3.924516 -12.078418 5.000000
      vertex -7.025871 -7.803021 5.000000
      vertex -6.350000 -10.998523 5.000000
    endloop
  endfacet
  facet normal -0.000000 -0.000000 1.000000
    outer loop
      vertex -7.025871 -7.803021 5.000000
      vertex -8.494678 -6.171745 5.000000
      vertex -6.350000 -10.998523 5.000000
    endloop
  endfacet
  facet normal 0.000000 0.000000 1.000000
    outer loop
      vertex -6.350000 -10.998523 5.000000
      vertex -9.592227 -4.270735 5.000000
      vertex -8.497959 -9.437939 5.000000
    endloop
  endfacet
  facet normal 0.000000 -0.000000 1.000000
    outer loop
      vertex 3.244678 -9.986093 5.000000
      vertex 1.097549 -10.442480 5.000000
      vertex 3.924516 -12.078418 5.000000
    endloop
  endfacet
  facet normal 0.000000 0.000000 1.000000
    outer loop
      vertex -6.720000 15.455238 5.000000
      vertex -10.500000 15.455238 5.000000
      vertex -10.500000 12.095238 5.000000
    endloop
  endfacet
  facet normal 0.000000 0.000000 1.000000
    outer loop
      vertex -6.720000 15.455238 5.000000
      vertex -3.845382 12.095238 5.000000
      vertex 6.720000 28.895238 5.000000
    endloop
  endfacet
  facet normal 0.000000 0.000000 1.000000
    outer loop
      vertex -10.500000 12.095238 5.000000
      vertex -3.845382 12.095238 5.000000
      vertex -6.720000 15.455238 5.000000
    endloop
  endfacet
  facet normal -0.000000 -0.000000 1.000000
    outer loop
      vertex -5.250000 -9.093267 5.000000
      vertex -7.025871 -7.803021 5.000000
      vertex -3.924516 -12.078418 5.000000
    endloop
  endfacet
  facet normal -0.000000 -0.000000 1.000000
    outer loop
      vertex -3.244678 -9.986093 5.000000
      vertex -5.250000 -9.093267 5.000000
      vertex -1.327511 -12.630428 5.000000
    endloop
  endfacet
  facet normal 0.000000 0.000000 1.000000
    outer loop
      vertex -10.500000 0.000000 5.000000
      vertex -10.270550 2.183073 5.000000
      vertex -12.422475 2.640478 5.000000
    endloop
  endfacet
endsolid OpenSCAD_Model
