solid OpenSCAD_Model
  facet normal -0.000000 0.000000 -1.000000
    outer loop
      vertex -13.400000 0.000000 0.000000
      vertex -13.107178 2.786017 0.000000
      vertex -13.107178 -2.786017 0.000000
    endloop
  endfacet
  facet normal 0.000000 -0.000000 -1.000000
    outer loop
      vertex -13.107178 -2.786017 0.000000
      vertex -13.107178 2.786017 0.000000
      vertex -12.241509 5.450271 0.000000
    endloop
  endfacet
  facet normal 0.000000 0.000000 -1.000000
    outer loop
      vertex -13.107178 -2.786017 0.000000
      vertex -12.241509 5.450271 0.000000
      vertex -10.840828 7.876322 0.000000
    endloop
  endfacet
  facet normal 0.000000 0.000000 -1.000000
    outer loop
      vertex -13.107178 -2.786017 0.000000
      vertex -10.840828 7.876322 0.000000
      vertex -8.966350 9.958141 0.000000
    endloop
  endfacet
  facet normal 0.000000 0.000000 -1.000000
    outer loop
      vertex -13.107178 -2.786017 0.000000
      vertex -8.966350 9.958141 0.000000
      vertex -6.700000 11.604740 0.000000
    endloop
  endfacet
  facet normal 0.000000 0.000000 -1.000000
    outer loop
      vertex -13.107178 -2.786017 0.000000
      vertex -6.700000 11.604740 0.000000
      vertex -5.729343 12.036905 0.000000
    endloop
  endfacet
  facet normal -0.000000 -0.000000 -1.000000
    outer loop
      vertex -10.500000 12.036905 0.000000
      vertex -10.500000 14.936905 0.000000
      vertex -5.729343 12.036905 0.000000
    endloop
  endfacet
  facet normal 0.000000 0.000000 -1.000000
    outer loop
      vertex -5.729343 12.036905 0.000000
      vertex -10.500000 14.936905 0.000000
      vertex -7.875000 14.936905 0.000000
    endloop
  endfacet
  facet normal 0.000000 0.000000 -1.000000
    outer loop
      vertex -5.729343 12.036905 0.000000
      vertex -7.875000 14.936905 0.000000
      vertex -7.875000 34.211905 0.000000
    endloop
  endfacet
  facet normal 0.000000 -0.000000 -1.000000
    outer loop
      vertex -5.729343 12.036905 0.000000
      vertex -7.875000 34.211905 0.000000
      vertex 7.875000 34.211905 0.000000
    endloop
  endfacet
  facet normal 0.000000 -0.000000 -1.000000
    outer loop
      vertex -10.270550 2.183073 0.000000
      vertex -13.107178 -2.786017 0.000000
      vertex -9.592227 4.270735 0.000000
    endloop
  endfacet
  facet normal 0.000000 0.000000 -1.000000
    outer loop
      vertex 1.097549 10.442480 0.000000
      vertex 7.875000 34.211905 0.000000
      vertex 7.875000 14.936905 0.000000
    endloop
  endfacet
  facet normal 0.000000 0.000000 -1.000000
    outer loop
      vertex 5.729343 12.036905 0.000000
      vertex 7.875000 14.936905 0.000000
      vertex 10.500000 14.936905 0.000000
    endloop
  endfacet
  facet normal 0.000000 0.000000 -1.000000
    outer loop
      vertex 1.097549 10.442480 0.000000
      vertex 7.875000 14.936905 0.000000
      vertex 5.729343 12.036905 0.000000
    endloop
  endfacet
  facet normal 0.000000 0.000000 -1.000000
    outer loop
      vertex 8.494678 -6.171745 0.000000
      vertex 10.840828 -7.876322 0.000000
      vertex 7.025871 -7.803021 0.000000
    endloop
  endfacet
  facet normal 0.000000 -0.000000 -1.000000
    outer loop
      vertex -10.500000 0.000000 0.000000
      vertex -13.107178 -2.786017 0.000000
      vertex -10.270550 2.183073 0.000000
    endloop
  endfacet
  facet normal 0.000000 0.000000 -1.000000
    outer loop
      vertex 7.025871 7.803021 0.000000
      vertex 8.966350 9.958141 0.000000
      vertex 10.840828 7.876322 0.000000
    endloop
  endfacet
  facet normal 0.000000 0.000000 -1.000000
    outer loop
      vertex 10.270550 -2.183073 0.000000
      vertex 13.107178 -2.786017 0.000000
      vertex 9.592227 -4.270735 0.000000
    endloop
  endfacet
  facet normal -0.000000 0.000000 -1.000000
    outer loop
      vertex 10.500000 0.000000 0.000000
      vertex 13.107178 2.786017 0.000000
      vertex 13.400000 0.000000 0.000000
    endloop
  endfacet
  facet normal -0.000000 0.000000 -1.000000
    outer loop
      vertex 10.270550 -2.183073 0.000000
      vertex 13.400000 0.000000 0.000000
      vertex 13.107178 -2.786017 0.000000
    endloop
  endfacet
  facet normal -0.000000 0.000000 -1.000000
    outer loop
      vertex 9.592227 -4.270735 0.000000
      vertex 13.107178 -2.786017 0.000000
      vertex 12.241509 -5.450271 0.000000
    endloop
  endfacet
  facet normal -0.000000 0.000000 -1.000000
    outer loop
      vertex 8.494678 -6.171745 0.000000
      vertex 12.241509 -5.450271 0.000000
      vertex 10.840828 -7.876322 0.000000
    endloop
  endfacet
  facet normal 0.000000 0.000000 -1.000000
    outer loop
      vertex 7.025871 -7.803021 0.000000
      vertex 10.840828 -7.876322 0.000000
      vertex 8.966350 -9.958141 0.000000
    endloop
  endfacet
  facet normal -0.000000 0.000000 -1.000000
    outer loop
      vertex 3.244678 -9.986093 0.000000
      vertex 8.966350 -9.958141 0.000000
      vertex 6.700000 -11.604740 0.000000
    endloop
  endfacet
  facet normal 0.000000 0.000000 -1.000000
    outer loop
      vertex 1.097549 -10.442480 0.000000
      vertex 6.700000 -11.604740 0.000000
      vertex 4.140828 -12.744157 0.000000
    endloop
  endfacet
  facet normal 0.000000 0.000000 -1.000000
    outer loop
      vertex -1.097549 -10.442480 0.000000
      vertex 4.140828 -12.744157 0.000000
      vertex 1.400681 -13.326593 0.000000
    endloop
  endfacet
  facet normal 0.000000 0.000000 -1.000000
    outer loop
      vertex -5.250000 -9.093267 0.000000
      vertex 1.400681 -13.326593 0.000000
      vertex -1.400681 -13.326593 0.000000
    endloop
  endfacet
  facet normal 0.000000 0.000000 -1.000000
    outer loop
      vertex -13.107178 -2.786017 0.000000
      vertex -1.400681 -13.326593 0.000000
      vertex -4.140828 -12.744157 0.000000
    endloop
  endfacet
  facet normal 0.000000 0.000000 -1.000000
    outer loop
      vertex -13.107178 -2.786017 0.000000
      vertex -4.140828 -12.744157 0.000000
      vertex -6.700000 -11.604740 0.000000
    endloop
  endfacet
  facet normal 0.000000 0.000000 -1.000000
    outer loop
      vertex -13.107178 -2.786017 0.000000
      vertex -6.700000 -11.604740 0.000000
      vertex -8.966350 -9.958141 0.000000
    endloop
  endfacet
  facet normal 0.000000 0.000000 -1.000000
    outer loop
      vertex -13.107178 -2.786017 0.000000
      vertex -8.966350 -9.958141 0.000000
      vertex -10.840828 -7.876322 0.000000
    endloop
  endfacet
  facet normal 0.000000 0.000000 -1.000000
    outer loop
      vertex -13.107178 -2.786017 0.000000
      vertex -10.840828 -7.876322 0.000000
      vertex -12.241509 -5.450271 0.000000
    endloop
  endfacet
  facet normal 0.000000 0.000000 -1.000000
    outer loop
      vertex -8.494678 6.171745 0.000000
      vertex 7.875000 34.211905 0.000000
      vertex -7.025871 7.803021 0.000000
    endloop
  endfacet
  facet normal 0.000000 0.000000 -1.000000
    outer loop
      vertex -9.592227 -4.270735 0.000000
      vertex -13.107178 -2.786017 0.000000
      vertex -10.270550 -2.183073 0.000000
    endloop
  endfacet
  facet normal 0.000000 0.000000 -1.000000
    outer loop
      vertex -8.494678 -6.171745 0.000000
      vertex -13.107178 -2.786017 0.000000
      vertex -9.592227 -4.270735 0.000000
    endloop
  endfacet
  facet normal 0.000000 0.000000 -1.000000
    outer loop
      vertex -5.250000 -9.093267 0.000000
      vertex -1.400681 -13.326593 0.000000
      vertex -7.025871 -7.803021 0.000000
    endloop
  endfacet
  facet normal 0.000000 0.000000 -1.000000
    outer loop
      vertex -13.107178 -2.786017 0.000000
      vertex -8.494678 -6.171745 0.000000
      vertex -7.025871 -7.803021 0.000000
    endloop
  endfacet
  facet normal 0.000000 0.000000 -1.000000
    outer loop
      vertex -13.107178 -2.786017 0.000000
      vertex -7.025871 -7.803021 0.000000
      vertex -1.400681 -13.326593 0.000000
    endloop
  endfacet
  facet normal 0.000000 0.000000 -1.000000
    outer loop
      vertex -3.244678 -9.986093 0.000000
      vertex 1.400681 -13.326593 0.000000
      vertex -5.250000 -9.093267 0.000000
    endloop
  endfacet
  facet normal 0.000000 0.000000 -1.000000
    outer loop
      vertex -1.097549 -10.442480 0.000000
      vertex 1.400681 -13.326593 0.000000
      vertex -3.244678 -9.986093 0.000000
    endloop
  endfacet
  facet normal 0.000000 0.000000 -1.000000
    outer loop
      vertex 5.250000 -9.093267 0.000000
      vertex 8.966350 -9.958141 0.000000
      vertex 3.244678 -9.986093 0.000000
    endloop
  endfacet
  facet normal 0.000000 0.000000 -1.000000
    outer loop
      vertex 7.025871 -7.803021 0.000000
      vertex 8.966350 -9.958141 0.000000
      vertex 5.250000 -9.093267 0.000000
    endloop
  endfacet
  facet normal 0.000000 0.000000 -1.000000
    outer loop
      vertex 3.244678 -9.986093 0.000000
      vertex 6.700000 -11.604740 0.000000
      vertex 1.097549 -10.442480 0.000000
    endloop
  endfacet
  facet normal 0.000000 0.000000 -1.000000
    outer loop
      vertex 1.097549 -10.442480 0.000000
      vertex 4.140828 -12.744157 0.000000
      vertex -1.097549 -10.442480 0.000000
    endloop
  endfacet
  facet normal -0.000000 0.000000 -1.000000
    outer loop
      vertex 10.270550 2.183073 0.000000
      vertex 13.107178 2.786017 0.000000
      vertex 10.500000 0.000000 0.000000
    endloop
  endfacet
  facet normal 0.000000 0.000000 -1.000000
    outer loop
      vertex 12.241509 5.450271 0.000000
      vertex 13.107178 2.786017 0.000000
      vertex 10.270550 2.183073 0.000000
    endloop
  endfacet
  facet normal 0.000000 0.000000 -1.000000
    outer loop
      vertex 10.500000 0.000000 0.000000
      vertex 13.400000 0.000000 0.000000
      vertex 10.270550 -2.183073 0.000000
    endloop
  endfacet
  facet normal 0.000000 0.000000 -1.000000
    outer loop
      vertex 12.241509 5.450271 0.000000
      vertex 10.270550 2.183073 0.000000
      vertex 9.592227 4.270735 0.000000
    endloop
  endfacet
  facet normal 0.000000 0.000000 -1.000000
    outer loop
      vertex 10.840828 7.876322 0.000000
      vertex 12.241509 5.450271 0.000000
      vertex 8.494678 6.171745 0.000000
    endloop
  endfacet
  facet normal 0.000000 0.000000 -1.000000
    outer loop
      vertex 9.592227 -4.270735 0.000000
      vertex 12.241509 -5.450271 0.000000
      vertex 8.494678 -6.171745 0.000000
    endloop
  endfacet
  facet normal 0.000000 0.000000 -1.000000
    outer loop
      vertex 8.966350 9.958141 0.000000
      vertex 5.250000 9.093267 0.000000
      vertex 6.700000 11.604740 0.000000
    endloop
  endfacet
  facet normal -0.000000 0.000000 -1.000000
    outer loop
      vertex -1.097549 10.442480 0.000000
      vertex 7.875000 34.211905 0.000000
      vertex 1.097549 10.442480 0.000000
    endloop
  endfacet
  facet normal 0.000000 0.000000 -1.000000
    outer loop
      vertex -7.025871 7.803021 0.000000
      vertex 7.875000 34.211905 0.000000
      vertex -5.250000 9.093267 0.000000
    endloop
  endfacet
  facet normal 0.000000 0.000000 -1.000000
    outer loop
      vertex -3.244678 9.986093 0.000000
      vertex 7.875000 34.211905 0.000000
      vertex -1.097549 10.442480 0.000000
    endloop
  endfacet
  facet normal 0.000000 0.000000 -1.000000
    outer loop
      vertex -5.250000 9.093267 0.000000
      vertex 7.875000 34.211905 0.000000
      vertex -3.244678 9.986093 0.000000
    endloop
  endfacet
  facet normal 0.000000 0.000000 -1.000000
    outer loop
      vertex -10.270550 -2.183073 0.000000
      vertex -13.107178 -2.786017 0.000000
      vertex -10.500000 0.000000 0.000000
    endloop
  endfacet
  facet normal -0.000000 0.000000 -1.000000
    outer loop
      vertex -5.729343 12.036905 0.000000
      vertex 7.875000 34.211905 0.000000
      vertex -8.494678 6.171745 0.000000
    endloop
  endfacet
  facet normal 0.000000 0.000000 -1.000000
    outer loop
      vertex -5.729343 12.036905 0.000000
      vertex -8.494678 6.171745 0.000000
      vertex -9.592227 4.270735 0.000000
    endloop
  endfacet
  facet normal 0.000000 0.000000 -1.000000
    outer loop
      vertex -5.729343 12.036905 0.000000
      vertex -9.592227 4.270735 0.000000
      vertex -13.107178 -2.786017 0.000000
    endloop
  endfacet
  facet normal -0.000000 0.000000 -1.000000
    outer loop
      vertex 5.729343 12.036905 0.000000
      vertex 10.500000 14.936905 0.000000
      vertex 10.500000 12.036905 0.000000
    endloop
  endfacet
  facet normal 0.000000 0.000000 -1.000000
    outer loop
      vertex 6.700000 11.604740 0.000000
      vertex 3.244678 9.986093 0.000000
      vertex 5.729343 12.036905 0.000000
    endloop
  endfacet
  facet normal -0.000000 0.000000 -1.000000
    outer loop
      vertex 1.097549 10.442480 0.000000
      vertex 5.729343 12.036905 0.000000
      vertex 3.244678 9.986093 0.000000
    endloop
  endfacet
  facet normal -0.000000 0.000000 -1.000000
    outer loop
      vertex 3.244678 9.986093 0.000000
      vertex 6.700000 11.604740 0.000000
      vertex 5.250000 9.093267 0.000000
    endloop
  endfacet
  facet normal -0.000000 0.000000 -1.000000
    outer loop
      vertex 5.250000 9.093267 0.000000
      vertex 8.966350 9.958141 0.000000
      vertex 7.025871 7.803021 0.000000
    endloop
  endfacet
  facet normal -0.000000 0.000000 -1.000000
    outer loop
      vertex 7.025871 7.803021 0.000000
      vertex 10.840828 7.876322 0.000000
      vertex 8.494678 6.171745 0.000000
    endloop
  endfacet
  facet normal 0.000000 0.000000 -1.000000
    outer loop
      vertex 8.494678 6.171745 0.000000
      vertex 12.241509 5.450271 0.000000
      vertex 9.592227 4.270735 0.000000
    endloop
  endfacet
  facet normal -0.994522 0.104528 0.000000
    outer loop
      vertex -13.400000 0.000000 0.000000
      vertex -13.400000 0.000000 5.000000
      vertex -13.107178 2.786017 0.000000
    endloop
  endfacet
  facet normal -0.994522 0.104528 0.000000
    outer loop
      vertex -13.107178 2.786017 0.000000
      vertex -13.400000 0.000000 5.000000
      vertex -13.107178 2.786017 5.000000
    endloop
  endfacet
  facet normal -0.994522 -0.104528 -0.000000
    outer loop
      vertex -13.400000 0.000000 0.000000
      vertex -13.107178 -2.786017 0.000000
      vertex -13.400000 0.000000 5.000000
    endloop
  endfacet
  facet normal -0.994522 -0.104528 0.000000
    outer loop
      vertex -13.400000 0.000000 5.000000
      vertex -13.107178 -2.786017 0.000000
      vertex -13.107178 -2.786017 5.000000
    endloop
  endfacet
  facet normal -0.951057 -0.309017 -0.000000
    outer loop
      vertex -13.107178 -2.786017 0.000000
      vertex -12.241509 -5.450271 0.000000
      vertex -13.107178 -2.786017 5.000000
    endloop
  endfacet
  facet normal -0.951057 -0.309017 0.000000
    outer loop
      vertex -13.107178 -2.786017 5.000000
      vertex -12.241509 -5.450271 0.000000
      vertex -12.241509 -5.450271 5.000000
    endloop
  endfacet
  facet normal -0.866025 -0.500000 -0.000000
    outer loop
      vertex -12.241509 -5.450271 0.000000
      vertex -10.840828 -7.876322 0.000000
      vertex -12.241509 -5.450271 5.000000
    endloop
  endfacet
  facet normal -0.866025 -0.500000 0.000000
    outer loop
      vertex -12.241509 -5.450271 5.000000
      vertex -10.840828 -7.876322 0.000000
      vertex -10.840828 -7.876322 5.000000
    endloop
  endfacet
  facet normal -0.743145 -0.669131 -0.000000
    outer loop
      vertex -10.840828 -7.876322 0.000000
      vertex -8.966350 -9.958141 0.000000
      vertex -10.840828 -7.876322 5.000000
    endloop
  endfacet
  facet normal -0.743145 -0.669131 0.000000
    outer loop
      vertex -10.840828 -7.876322 5.000000
      vertex -8.966350 -9.958141 0.000000
      vertex -8.966350 -9.958141 5.000000
    endloop
  endfacet
  facet normal -0.587785 -0.809017 0.000000
    outer loop
      vertex -8.966350 -9.958141 5.000000
      vertex -8.966350 -9.958141 0.000000
      vertex -6.700000 -11.604740 0.000000
    endloop
  endfacet
  facet normal -0.587785 -0.809017 0.000000
    outer loop
      vertex -6.700000 -11.604740 5.000000
      vertex -8.966350 -9.958141 5.000000
      vertex -6.700000 -11.604740 0.000000
    endloop
  endfacet
  facet normal -0.406737 -0.913545 0.000000
    outer loop
      vertex -6.700000 -11.604740 5.000000
      vertex -6.700000 -11.604740 0.000000
      vertex -4.140828 -12.744157 0.000000
    endloop
  endfacet
  facet normal -0.406737 -0.913545 0.000000
    outer loop
      vertex -4.140828 -12.744157 5.000000
      vertex -6.700000 -11.604740 5.000000
      vertex -4.140828 -12.744157 0.000000
    endloop
  endfacet
  facet normal -0.207912 -0.978148 0.000000
    outer loop
      vertex -4.140828 -12.744157 5.000000
      vertex -4.140828 -12.744157 0.000000
      vertex -1.400681 -13.326593 0.000000
    endloop
  endfacet
  facet normal -0.207912 -0.978148 0.000000
    outer loop
      vertex -1.400681 -13.326593 5.000000
      vertex -4.140828 -12.744157 5.000000
      vertex -1.400681 -13.326593 0.000000
    endloop
  endfacet
  facet normal 0.000000 -1.000000 0.000000
    outer loop
      vertex -1.400681 -13.326593 5.000000
      vertex -1.400681 -13.326593 0.000000
      vertex 1.400681 -13.326593 0.000000
    endloop
  endfacet
  facet normal 0.000000 -1.000000 0.000000
    outer loop
      vertex 1.400681 -13.326593 5.000000
      vertex -1.400681 -13.326593 5.000000
      vertex 1.400681 -13.326593 0.000000
    endloop
  endfacet
  facet normal 0.207912 -0.978148 0.000000
    outer loop
      vertex 1.400681 -13.326593 5.000000
      vertex 1.400681 -13.326593 0.000000
      vertex 4.140828 -12.744157 0.000000
    endloop
  endfacet
  facet normal 0.207912 -0.978148 0.000000
    outer loop
      vertex 4.140828 -12.744157 5.000000
      vertex 1.400681 -13.326593 5.000000
      vertex 4.140828 -12.744157 0.000000
    endloop
  endfacet
  facet normal 0.406737 -0.913545 0.000000
    outer loop
      vertex 4.140828 -12.744157 5.000000
      vertex 4.140828 -12.744157 0.000000
      vertex 6.700000 -11.604740 0.000000
    endloop
  endfacet
  facet normal 0.406737 -0.913545 0.000000
    outer loop
      vertex 6.700000 -11.604740 5.000000
      vertex 4.140828 -12.744157 5.000000
      vertex 6.700000 -11.604740 0.000000
    endloop
  endfacet
  facet normal 0.587785 -0.809017 0.000000
    outer loop
      vertex 6.700000 -11.604740 5.000000
      vertex 6.700000 -11.604740 0.000000
      vertex 8.966350 -9.958141 0.000000
    endloop
  endfacet
  facet normal 0.587785 -0.809017 0.000000
    outer loop
      vertex 8.966350 -9.958141 5.000000
      vertex 6.700000 -11.604740 5.000000
      vertex 8.966350 -9.958141 0.000000
    endloop
  endfacet
  facet normal 0.743145 -0.669131 0.000000
    outer loop
      vertex 8.966350 -9.958141 5.000000
      vertex 8.966350 -9.958141 0.000000
      vertex 10.840828 -7.876322 0.000000
    endloop
  endfacet
  facet normal 0.743145 -0.669131 0.000000
    outer loop
      vertex 10.840828 -7.876322 5.000000
      vertex 8.966350 -9.958141 5.000000
      vertex 10.840828 -7.876322 0.000000
    endloop
  endfacet
  facet normal 0.866025 -0.500000 0.000000
    outer loop
      vertex 10.840828 -7.876322 5.000000
      vertex 10.840828 -7.876322 0.000000
      vertex 12.241509 -5.450271 0.000000
    endloop
  endfacet
  facet normal 0.866025 -0.500000 0.000000
    outer loop
      vertex 12.241509 -5.450271 5.000000
      vertex 10.840828 -7.876322 5.000000
      vertex 12.241509 -5.450271 0.000000
    endloop
  endfacet
  facet normal 0.951057 -0.309017 0.000000
    outer loop
      vertex 12.241509 -5.450271 5.000000
      vertex 12.241509 -5.450271 0.000000
      vertex 13.107178 -2.786017 0.000000
    endloop
  endfacet
  facet normal 0.951057 -0.309017 0.000000
    outer loop
      vertex 13.107178 -2.786017 5.000000
      vertex 12.241509 -5.450271 5.000000
      vertex 13.107178 -2.786017 0.000000
    endloop
  endfacet
  facet normal 0.994522 -0.104528 0.000000
    outer loop
      vertex 13.107178 -2.786017 5.000000
      vertex 13.107178 -2.786017 0.000000
      vertex 13.400000 0.000000 0.000000
    endloop
  endfacet
  facet normal 0.994522 -0.104528 0.000000
    outer loop
      vertex 13.400000 0.000000 5.000000
      vertex 13.107178 -2.786017 5.000000
      vertex 13.400000 0.000000 0.000000
    endloop
  endfacet
  facet normal 0.994522 0.104528 0.000000
    outer loop
      vertex 13.400000 0.000000 0.000000
      vertex 13.107178 2.786017 0.000000
      vertex 13.107178 2.786017 5.000000
    endloop
  endfacet
  facet normal 0.994522 0.104528 -0.000000
    outer loop
      vertex 13.400000 0.000000 5.000000
      vertex 13.400000 0.000000 0.000000
      vertex 13.107178 2.786017 5.000000
    endloop
  endfacet
  facet normal 0.951057 0.309017 0.000000
    outer loop
      vertex 13.107178 2.786017 0.000000
      vertex 12.241509 5.450271 0.000000
      vertex 12.241509 5.450271 5.000000
    endloop
  endfacet
  facet normal 0.951057 0.309017 -0.000000
    outer loop
      vertex 13.107178 2.786017 5.000000
      vertex 13.107178 2.786017 0.000000
      vertex 12.241509 5.450271 5.000000
    endloop
  endfacet
  facet normal 0.866025 0.500000 0.000000
    outer loop
      vertex 12.241509 5.450271 0.000000
      vertex 10.840828 7.876322 0.000000
      vertex 10.840828 7.876322 5.000000
    endloop
  endfacet
  facet normal 0.866025 0.500000 -0.000000
    outer loop
      vertex 12.241509 5.450271 5.000000
      vertex 12.241509 5.450271 0.000000
      vertex 10.840828 7.876322 5.000000
    endloop
  endfacet
  facet normal 0.743145 0.669131 0.000000
    outer loop
      vertex 10.840828 7.876322 0.000000
      vertex 8.966350 9.958141 0.000000
      vertex 8.966350 9.958141 5.000000
    endloop
  endfacet
  facet normal 0.743145 0.669131 -0.000000
    outer loop
      vertex 10.840828 7.876322 5.000000
      vertex 10.840828 7.876322 0.000000
      vertex 8.966350 9.958141 5.000000
    endloop
  endfacet
  facet normal 0.587785 0.809017 0.000000
    outer loop
      vertex 6.700000 11.604740 0.000000
      vertex 6.700000 11.604740 5.000000
      vertex 8.966350 9.958141 0.000000
    endloop
  endfacet
  facet normal 0.587785 0.809017 0.000000
    outer loop
      vertex 8.966350 9.958141 0.000000
      vertex 6.700000 11.604740 5.000000
      vertex 8.966350 9.958141 5.000000
    endloop
  endfacet
  facet normal 0.406737 0.913545 0.000000
    outer loop
      vertex 5.729343 12.036905 0.000000
      vertex 5.729343 12.036905 5.000000
      vertex 6.700000 11.604740 0.000000
    endloop
  endfacet
  facet normal 0.406737 0.913545 0.000000
    outer loop
      vertex 6.700000 11.604740 0.000000
      vertex 5.729343 12.036905 5.000000
      vertex 6.700000 11.604740 5.000000
    endloop
  endfacet
  facet normal 0.000000 -1.000000 0.000000
    outer loop
      vertex 5.729343 12.036905 5.000000
      vertex 5.729343 12.036905 0.000000
      vertex 10.500000 12.036905 0.000000
    endloop
  endfacet
  facet normal 0.000000 -1.000000 0.000000
    outer loop
      vertex 10.500000 12.036905 5.000000
      vertex 5.729343 12.036905 5.000000
      vertex 10.500000 12.036905 0.000000
    endloop
  endfacet
  facet normal 1.000000 0.000000 -0.000000
    outer loop
      vertex 10.500000 12.036905 5.000000
      vertex 10.500000 12.036905 0.000000
      vertex 10.500000 14.936905 0.000000
    endloop
  endfacet
  facet normal 1.000000 0.000000 0.000000
    outer loop
      vertex 10.500000 14.936905 5.000000
      vertex 10.500000 12.036905 5.000000
      vertex 10.500000 14.936905 0.000000
    endloop
  endfacet
  facet normal 0.000000 1.000000 0.000000
    outer loop
      vertex 1.597917 14.936905 2.500000
      vertex 1.597917 14.936905 5.000000
      vertex 7.875000 14.936905 2.500000
    endloop
  endfacet
  facet normal 0.000000 1.000000 0.000000
    outer loop
      vertex 7.875000 14.936905 2.500000
      vertex 1.597917 14.936905 5.000000
      vertex 10.500000 14.936905 5.000000
    endloop
  endfacet
  facet normal 0.000000 1.000000 0.000000
    outer loop
      vertex 7.875000 14.936905 2.500000
      vertex 10.500000 14.936905 5.000000
      vertex 10.500000 14.936905 0.000000
    endloop
  endfacet
  facet normal 0.000000 1.000000 -0.000000
    outer loop
      vertex 7.875000 14.936905 2.500000
      vertex 10.500000 14.936905 0.000000
      vertex 7.875000 14.936905 0.000000
    endloop
  endfacet
  facet normal 1.000000 0.000000 -0.000000
    outer loop
      vertex 7.875000 14.936905 2.500000
      vertex 7.875000 14.936905 0.000000
      vertex 7.875000 34.211905 0.000000
    endloop
  endfacet
  facet normal 1.000000 0.000000 0.000000
    outer loop
      vertex 7.875000 34.211905 2.500000
      vertex 7.875000 14.936905 2.500000
      vertex 7.875000 34.211905 0.000000
    endloop
  endfacet
  facet normal 0.000000 1.000000 0.000000
    outer loop
      vertex -7.875000 34.211905 0.000000
      vertex -7.875000 34.211905 2.500000
      vertex 7.875000 34.211905 0.000000
    endloop
  endfacet
  facet normal 0.000000 1.000000 0.000000
    outer loop
      vertex 7.875000 34.211905 0.000000
      vertex -7.875000 34.211905 2.500000
      vertex 7.875000 34.211905 2.500000
    endloop
  endfacet
  facet normal -1.000000 -0.000000 -0.000000
    outer loop
      vertex -7.875000 14.936905 0.000000
      vertex -7.875000 14.936905 2.500000
      vertex -7.875000 34.211905 0.000000
    endloop
  endfacet
  facet normal -1.000000 0.000000 0.000000
    outer loop
      vertex -7.875000 34.211905 0.000000
      vertex -7.875000 14.936905 2.500000
      vertex -7.875000 34.211905 2.500000
    endloop
  endfacet
  facet normal 0.000000 1.000000 0.000000
    outer loop
      vertex -10.500000 14.936905 0.000000
      vertex -10.500000 14.936905 5.000000
      vertex -7.875000 14.936905 0.000000
    endloop
  endfacet
  facet normal 0.000000 1.000000 0.000000
    outer loop
      vertex -7.875000 14.936905 2.500000
      vertex -10.500000 14.936905 5.000000
      vertex -5.820000 14.936905 5.000000
    endloop
  endfacet
  facet normal 0.000000 1.000000 0.000000
    outer loop
      vertex -7.875000 14.936905 0.000000
      vertex -10.500000 14.936905 5.000000
      vertex -7.875000 14.936905 2.500000
    endloop
  endfacet
  facet normal 0.000000 1.000000 0.000000
    outer loop
      vertex -7.875000 14.936905 2.500000
      vertex -5.820000 14.936905 5.000000
      vertex -5.820000 14.936905 2.500000
    endloop
  endfacet
  facet normal -1.000000 -0.000000 -0.000000
    outer loop
      vertex -10.500000 12.036905 0.000000
      vertex -10.500000 12.036905 5.000000
      vertex -10.500000 14.936905 0.000000
    endloop
  endfacet
  facet normal -1.000000 0.000000 0.000000
    outer loop
      vertex -10.500000 14.936905 0.000000
      vertex -10.500000 12.036905 5.000000
      vertex -10.500000 14.936905 5.000000
    endloop
  endfacet
  facet normal 0.000000 -1.000000 0.000000
    outer loop
      vertex -10.500000 12.036905 5.000000
      vertex -10.500000 12.036905 0.000000
      vertex -5.729343 12.036905 0.000000
    endloop
  endfacet
  facet normal 0.000000 -1.000000 0.000000
    outer loop
      vertex -5.729343 12.036905 5.000000
      vertex -10.500000 12.036905 5.000000
      vertex -5.729343 12.036905 0.000000
    endloop
  endfacet
  facet normal -0.406737 0.913545 0.000000
    outer loop
      vertex -6.700000 11.604740 0.000000
      vertex -6.700000 11.604740 5.000000
      vertex -5.729343 12.036905 0.000000
    endloop
  endfacet
  facet normal -0.406737 0.913545 0.000000
    outer loop
      vertex -5.729343 12.036905 0.000000
      vertex -6.700000 11.604740 5.000000
      vertex -5.729343 12.036905 5.000000
    endloop
  endfacet
  facet normal -0.587785 0.809017 0.000000
    outer loop
      vertex -8.966350 9.958141 0.000000
      vertex -8.966350 9.958141 5.000000
      vertex -6.700000 11.604740 0.000000
    endloop
  endfacet
  facet normal -0.587785 0.809017 0.000000
    outer loop
      vertex -6.700000 11.604740 0.000000
      vertex -8.966350 9.958141 5.000000
      vertex -6.700000 11.604740 5.000000
    endloop
  endfacet
  facet normal -0.743145 0.669131 0.000000
    outer loop
      vertex -10.840828 7.876322 0.000000
      vertex -10.840828 7.876322 5.000000
      vertex -8.966350 9.958141 0.000000
    endloop
  endfacet
  facet normal -0.743145 0.669131 0.000000
    outer loop
      vertex -8.966350 9.958141 0.000000
      vertex -10.840828 7.876322 5.000000
      vertex -8.966350 9.958141 5.000000
    endloop
  endfacet
  facet normal -0.866025 0.500000 0.000000
    outer loop
      vertex -12.241509 5.450271 0.000000
      vertex -12.241509 5.450271 5.000000
      vertex -10.840828 7.876322 0.000000
    endloop
  endfacet
  facet normal -0.866025 0.500000 0.000000
    outer loop
      vertex -10.840828 7.876322 0.000000
      vertex -12.241509 5.450271 5.000000
      vertex -10.840828 7.876322 5.000000
    endloop
  endfacet
  facet normal -0.951057 0.309017 0.000000
    outer loop
      vertex -13.107178 2.786017 0.000000
      vertex -13.107178 2.786017 5.000000
      vertex -12.241509 5.450271 0.000000
    endloop
  endfacet
  facet normal -0.951057 0.309017 0.000000
    outer loop
      vertex -12.241509 5.450271 0.000000
      vertex -13.107178 2.786017 5.000000
      vertex -12.241509 5.450271 5.000000
    endloop
  endfacet
  facet normal 0.994522 0.104528 0.000000
    outer loop
      vertex -10.500000 0.000000 5.000000
      vertex -10.270550 -2.183073 5.000000
      vertex -10.270550 -2.183073 0.000000
    endloop
  endfacet
  facet normal 0.994522 0.104528 0.000000
    outer loop
      vertex -10.500000 0.000000 0.000000
      vertex -10.500000 0.000000 5.000000
      vertex -10.270550 -2.183073 0.000000
    endloop
  endfacet
  facet normal 0.994522 -0.104528 0.000000
    outer loop
      vertex -10.270550 2.183073 0.000000
      vertex -10.270550 2.183073 5.000000
      vertex -10.500000 0.000000 5.000000
    endloop
  endfacet
  facet normal 0.994522 -0.104528 0.000000
    outer loop
      vertex -10.500000 0.000000 0.000000
      vertex -10.270550 2.183073 0.000000
      vertex -10.500000 0.000000 5.000000
    endloop
  endfacet
  facet normal 0.951057 -0.309017 0.000000
    outer loop
      vertex -9.592227 4.270735 0.000000
      vertex -9.592227 4.270735 5.000000
      vertex -10.270550 2.183073 5.000000
    endloop
  endfacet
  facet normal 0.951057 -0.309017 0.000000
    outer loop
      vertex -10.270550 2.183073 0.000000
      vertex -9.592227 4.270735 0.000000
      vertex -10.270550 2.183073 5.000000
    endloop
  endfacet
  facet normal 0.866025 -0.500000 0.000000
    outer loop
      vertex -8.494678 6.171745 0.000000
      vertex -8.494678 6.171745 5.000000
      vertex -9.592227 4.270735 5.000000
    endloop
  endfacet
  facet normal 0.866025 -0.500000 0.000000
    outer loop
      vertex -9.592227 4.270735 0.000000
      vertex -8.494678 6.171745 0.000000
      vertex -9.592227 4.270735 5.000000
    endloop
  endfacet
  facet normal 0.743145 -0.669131 0.000000
    outer loop
      vertex -7.025871 7.803021 0.000000
      vertex -7.025871 7.803021 5.000000
      vertex -8.494678 6.171745 5.000000
    endloop
  endfacet
  facet normal 0.743145 -0.669131 0.000000
    outer loop
      vertex -8.494678 6.171745 0.000000
      vertex -7.025871 7.803021 0.000000
      vertex -8.494678 6.171745 5.000000
    endloop
  endfacet
  facet normal 0.587785 -0.809017 0.000000
    outer loop
      vertex -5.250000 9.093267 0.000000
      vertex -5.250000 9.093267 5.000000
      vertex -7.025871 7.803021 5.000000
    endloop
  endfacet
  facet normal 0.587785 -0.809017 0.000000
    outer loop
      vertex -7.025871 7.803021 0.000000
      vertex -5.250000 9.093267 0.000000
      vertex -7.025871 7.803021 5.000000
    endloop
  endfacet
  facet normal 0.406737 -0.913545 0.000000
    outer loop
      vertex -3.244678 9.986093 0.000000
      vertex -3.244678 9.986093 5.000000
      vertex -5.250000 9.093267 5.000000
    endloop
  endfacet
  facet normal 0.406737 -0.913545 0.000000
    outer loop
      vertex -5.250000 9.093267 0.000000
      vertex -3.244678 9.986093 0.000000
      vertex -5.250000 9.093267 5.000000
    endloop
  endfacet
  facet normal 0.207912 -0.978148 0.000000
    outer loop
      vertex -1.097549 10.442480 0.000000
      vertex -1.097549 10.442480 5.000000
      vertex -3.244678 9.986093 5.000000
    endloop
  endfacet
  facet normal 0.207912 -0.978148 0.000000
    outer loop
      vertex -3.244678 9.986093 0.000000
      vertex -1.097549 10.442480 0.000000
      vertex -3.244678 9.986093 5.000000
    endloop
  endfacet
  facet normal 0.000000 -1.000000 0.000000
    outer loop
      vertex 1.097549 10.442480 0.000000
      vertex 1.097549 10.442480 5.000000
      vertex -1.097549 10.442480 5.000000
    endloop
  endfacet
  facet normal -0.000000 -1.000000 -0.000000
    outer loop
      vertex -1.097549 10.442480 0.000000
      vertex 1.097549 10.442480 0.000000
      vertex -1.097549 10.442480 5.000000
    endloop
  endfacet
  facet normal -0.207912 -0.978148 -0.000000
    outer loop
      vertex 3.244678 9.986093 0.000000
      vertex 3.244678 9.986093 5.000000
      vertex 1.097549 10.442480 5.000000
    endloop
  endfacet
  facet normal -0.207912 -0.978148 -0.000000
    outer loop
      vertex 1.097549 10.442480 0.000000
      vertex 3.244678 9.986093 0.000000
      vertex 1.097549 10.442480 5.000000
    endloop
  endfacet
  facet normal -0.406737 -0.913545 -0.000000
    outer loop
      vertex 5.250000 9.093267 0.000000
      vertex 5.250000 9.093267 5.000000
      vertex 3.244678 9.986093 5.000000
    endloop
  endfacet
  facet normal -0.406737 -0.913545 -0.000000
    outer loop
      vertex 3.244678 9.986093 0.000000
      vertex 5.250000 9.093267 0.000000
      vertex 3.244678 9.986093 5.000000
    endloop
  endfacet
  facet normal -0.587785 -0.809017 -0.000000
    outer loop
      vertex 7.025871 7.803021 0.000000
      vertex 7.025871 7.803021 5.000000
      vertex 5.250000 9.093267 5.000000
    endloop
  endfacet
  facet normal -0.587785 -0.809017 -0.000000
    outer loop
      vertex 5.250000 9.093267 0.000000
      vertex 7.025871 7.803021 0.000000
      vertex 5.250000 9.093267 5.000000
    endloop
  endfacet
  facet normal -0.743145 -0.669131 0.000000
    outer loop
      vertex 8.494678 6.171745 5.000000
      vertex 7.025871 7.803021 5.000000
      vertex 8.494678 6.171745 0.000000
    endloop
  endfacet
  facet normal -0.743145 -0.669131 0.000000
    outer loop
      vertex 8.494678 6.171745 0.000000
      vertex 7.025871 7.803021 5.000000
      vertex 7.025871 7.803021 0.000000
    endloop
  endfacet
  facet normal -0.866025 -0.500000 0.000000
    outer loop
      vertex 9.592227 4.270735 5.000000
      vertex 8.494678 6.171745 5.000000
      vertex 9.592227 4.270735 0.000000
    endloop
  endfacet
  facet normal -0.866025 -0.500000 0.000000
    outer loop
      vertex 9.592227 4.270735 0.000000
      vertex 8.494678 6.171745 5.000000
      vertex 8.494678 6.171745 0.000000
    endloop
  endfacet
  facet normal -0.951057 -0.309017 0.000000
    outer loop
      vertex 10.270550 2.183073 5.000000
      vertex 9.592227 4.270735 5.000000
      vertex 10.270550 2.183073 0.000000
    endloop
  endfacet
  facet normal -0.951057 -0.309017 0.000000
    outer loop
      vertex 10.270550 2.183073 0.000000
      vertex 9.592227 4.270735 5.000000
      vertex 9.592227 4.270735 0.000000
    endloop
  endfacet
  facet normal -0.994522 -0.104528 0.000000
    outer loop
      vertex 10.500000 0.000000 5.000000
      vertex 10.270550 2.183073 5.000000
      vertex 10.500000 0.000000 0.000000
    endloop
  endfacet
  facet normal -0.994522 -0.104528 0.000000
    outer loop
      vertex 10.500000 0.000000 0.000000
      vertex 10.270550 2.183073 5.000000
      vertex 10.270550 2.183073 0.000000
    endloop
  endfacet
  facet normal -0.994522 0.104528 0.000000
    outer loop
      vertex 10.500000 0.000000 5.000000
      vertex 10.500000 0.000000 0.000000
      vertex 10.270550 -2.183073 5.000000
    endloop
  endfacet
  facet normal -0.994522 0.104528 0.000000
    outer loop
      vertex 10.270550 -2.183073 5.000000
      vertex 10.500000 0.000000 0.000000
      vertex 10.270550 -2.183073 0.000000
    endloop
  endfacet
  facet normal -0.951057 0.309017 0.000000
    outer loop
      vertex 10.270550 -2.183073 5.000000
      vertex 10.270550 -2.183073 0.000000
      vertex 9.592227 -4.270735 5.000000
    endloop
  endfacet
  facet normal -0.951057 0.309017 0.000000
    outer loop
      vertex 9.592227 -4.270735 5.000000
      vertex 10.270550 -2.183073 0.000000
      vertex 9.592227 -4.270735 0.000000
    endloop
  endfacet
  facet normal -0.866025 0.500000 0.000000
    outer loop
      vertex 9.592227 -4.270735 5.000000
      vertex 9.592227 -4.270735 0.000000
      vertex 8.494678 -6.171745 5.000000
    endloop
  endfacet
  facet normal -0.866025 0.500000 0.000000
    outer loop
      vertex 8.494678 -6.171745 5.000000
      vertex 9.592227 -4.270735 0.000000
      vertex 8.494678 -6.171745 0.000000
    endloop
  endfacet
  facet normal -0.743145 0.669131 0.000000
    outer loop
      vertex 8.494678 -6.171745 5.000000
      vertex 8.494678 -6.171745 0.000000
      vertex 7.025871 -7.803021 5.000000
    endloop
  endfacet
  facet normal -0.743145 0.669131 0.000000
    outer loop
      vertex 7.025871 -7.803021 5.000000
      vertex 8.494678 -6.171745 0.000000
      vertex 7.025871 -7.803021 0.000000
    endloop
  endfacet
  facet normal -0.587785 0.809017 0.000000
    outer loop
      vertex 7.025871 -7.803021 5.000000
      vertex 7.025871 -7.803021 0.000000
      vertex 5.250000 -9.093267 5.000000
    endloop
  endfacet
  facet normal -0.587785 0.809017 0.000000
    outer loop
      vertex 5.250000 -9.093267 5.000000
      vertex 7.025871 -7.803021 0.000000
      vertex 5.250000 -9.093267 0.000000
    endloop
  endfacet
  facet normal -0.406737 0.913545 0.000000
    outer loop
      vertex 5.250000 -9.093267 5.000000
      vertex 5.250000 -9.093267 0.000000
      vertex 3.244678 -9.986093 5.000000
    endloop
  endfacet
  facet normal -0.406737 0.913545 0.000000
    outer loop
      vertex 3.244678 -9.986093 5.000000
      vertex 5.250000 -9.093267 0.000000
      vertex 3.244678 -9.986093 0.000000
    endloop
  endfacet
  facet normal -0.207912 0.978148 0.000000
    outer loop
      vertex 3.244678 -9.986093 5.000000
      vertex 3.244678 -9.986093 0.000000
      vertex 1.097549 -10.442480 5.000000
    endloop
  endfacet
  facet normal -0.207912 0.978148 0.000000
    outer loop
      vertex 1.097549 -10.442480 5.000000
      vertex 3.244678 -9.986093 0.000000
      vertex 1.097549 -10.442480 0.000000
    endloop
  endfacet
  facet normal 0.000000 1.000000 0.000000
    outer loop
      vertex 1.097549 -10.442480 5.000000
      vertex 1.097549 -10.442480 0.000000
      vertex -1.097549 -10.442480 5.000000
    endloop
  endfacet
  facet normal 0.000000 1.000000 -0.000000
    outer loop
      vertex -1.097549 -10.442480 5.000000
      vertex 1.097549 -10.442480 0.000000
      vertex -1.097549 -10.442480 0.000000
    endloop
  endfacet
  facet normal 0.207912 0.978148 -0.000000
    outer loop
      vertex -1.097549 -10.442480 5.000000
      vertex -1.097549 -10.442480 0.000000
      vertex -3.244678 -9.986093 5.000000
    endloop
  endfacet
  facet normal 0.207912 0.978148 -0.000000
    outer loop
      vertex -3.244678 -9.986093 5.000000
      vertex -1.097549 -10.442480 0.000000
      vertex -3.244678 -9.986093 0.000000
    endloop
  endfacet
  facet normal 0.406737 0.913545 -0.000000
    outer loop
      vertex -3.244678 -9.986093 5.000000
      vertex -3.244678 -9.986093 0.000000
      vertex -5.250000 -9.093267 5.000000
    endloop
  endfacet
  facet normal 0.406737 0.913545 -0.000000
    outer loop
      vertex -5.250000 -9.093267 5.000000
      vertex -3.244678 -9.986093 0.000000
      vertex -5.250000 -9.093267 0.000000
    endloop
  endfacet
  facet normal 0.587785 0.809017 -0.000000
    outer loop
      vertex -5.250000 -9.093267 5.000000
      vertex -5.250000 -9.093267 0.000000
      vertex -7.025871 -7.803021 5.000000
    endloop
  endfacet
  facet normal 0.587785 0.809017 -0.000000
    outer loop
      vertex -7.025871 -7.803021 5.000000
      vertex -5.250000 -9.093267 0.000000
      vertex -7.025871 -7.803021 0.000000
    endloop
  endfacet
  facet normal 0.743145 0.669131 0.000000
    outer loop
      vertex -8.494678 -6.171745 5.000000
      vertex -7.025871 -7.803021 5.000000
      vertex -7.025871 -7.803021 0.000000
    endloop
  endfacet
  facet normal 0.743145 0.669131 0.000000
    outer loop
      vertex -8.494678 -6.171745 0.000000
      vertex -8.494678 -6.171745 5.000000
      vertex -7.025871 -7.803021 0.000000
    endloop
  endfacet
  facet normal 0.866025 0.500000 0.000000
    outer loop
      vertex -9.592227 -4.270735 5.000000
      vertex -8.494678 -6.171745 5.000000
      vertex -8.494678 -6.171745 0.000000
    endloop
  endfacet
  facet normal 0.866025 0.500000 0.000000
    outer loop
      vertex -9.592227 -4.270735 0.000000
      vertex -9.592227 -4.270735 5.000000
      vertex -8.494678 -6.171745 0.000000
    endloop
  endfacet
  facet normal 0.951057 0.309017 0.000000
    outer loop
      vertex -10.270550 -2.183073 5.000000
      vertex -9.592227 -4.270735 5.000000
      vertex -9.592227 -4.270735 0.000000
    endloop
  endfacet
  facet normal 0.951057 0.309017 0.000000
    outer loop
      vertex -10.270550 -2.183073 0.000000
      vertex -10.270550 -2.183073 5.000000
      vertex -9.592227 -4.270735 0.000000
    endloop
  endfacet
  facet normal 0.000000 0.000000 1.000000
    outer loop
      vertex -13.107178 2.786017 5.000000
      vertex -13.400000 0.000000 5.000000
      vertex -13.107178 -2.786017 5.000000
    endloop
  endfacet
  facet normal 0.000000 0.000000 1.000000
    outer loop
      vertex -10.840828 -7.876322 5.000000
      vertex -13.107178 2.786017 5.000000
      vertex -12.241509 -5.450271 5.000000
    endloop
  endfacet
  facet normal 0.000000 0.000000 1.000000
    outer loop
      vertex -12.241509 -5.450271 5.000000
      vertex -13.107178 2.786017 5.000000
      vertex -13.107178 -2.786017 5.000000
    endloop
  endfacet
  facet normal 0.000000 0.000000 1.000000
    outer loop
      vertex -8.966350 -9.958141 5.000000
      vertex -13.107178 2.786017 5.000000
      vertex -10.840828 -7.876322 5.000000
    endloop
  endfacet
  facet normal 0.000000 0.000000 1.000000
    outer loop
      vertex -6.700000 -11.604740 5.000000
      vertex -13.107178 2.786017 5.000000
      vertex -8.966350 -9.958141 5.000000
    endloop
  endfacet
  facet normal -0.000000 -0.000000 1.000000
    outer loop
      vertex -9.592227 -4.270735 5.000000
      vertex -13.107178 2.786017 5.000000
      vertex -6.700000 -11.604740 5.000000
    endloop
  endfacet
  facet normal 0.000000 -0.000000 1.000000
    outer loop
      vertex 7.025871 -7.803021 5.000000
      vertex 5.250000 -9.093267 5.000000
      vertex 8.966350 -9.958141 5.000000
    endloop
  endfacet
  facet normal 0.000000 -0.000000 1.000000
    outer loop
      vertex 8.494678 -6.171745 5.000000
      vertex 7.025871 -7.803021 5.000000
      vertex 10.840828 -7.876322 5.000000
    endloop
  endfacet
  facet normal 0.000000 0.000000 1.000000
    outer loop
      vertex -10.270550 2.183073 5.000000
      vertex -9.592227 4.270735 5.000000
      vertex -13.107178 2.786017 5.000000
    endloop
  endfacet
  facet normal 0.000000 -0.000000 1.000000
    outer loop
      vertex 3.244678 -9.986093 5.000000
      vertex 1.097549 -10.442480 5.000000
      vertex 4.140828 -12.744157 5.000000
    endloop
  endfacet
  facet normal 0.000000 0.000000 1.000000
    outer loop
      vertex 9.592227 4.270735 5.000000
      vertex 10.270550 2.183073 5.000000
      vertex 13.107178 2.786017 5.000000
    endloop
  endfacet
  facet normal -0.000000 0.000000 1.000000
    outer loop
      vertex -9.592227 4.270735 5.000000
      vertex -8.494678 6.171745 5.000000
      vertex -13.107178 2.786017 5.000000
    endloop
  endfacet
  facet normal 0.000000 0.000000 1.000000
    outer loop
      vertex 10.270550 2.183073 5.000000
      vertex 10.500000 0.000000 5.000000
      vertex 13.400000 0.000000 5.000000
    endloop
  endfacet
  facet normal 0.000000 0.000000 1.000000
    outer loop
      vertex 1.097549 10.442480 5.000000
      vertex 5.729343 12.036905 5.000000
      vertex 10.500000 14.936905 5.000000
    endloop
  endfacet
  facet normal 0.000000 0.000000 1.000000
    outer loop
      vertex 1.097549 10.442480 5.000000
      vertex 3.244678 9.986093 5.000000
      vertex 6.700000 11.604740 5.000000
    endloop
  endfacet
  facet normal 0.000000 0.000000 1.000000
    outer loop
      vertex 1.097549 10.442480 5.000000
      vertex 6.700000 11.604740 5.000000
      vertex 5.729343 12.036905 5.000000
    endloop
  endfacet
  facet normal 0.000000 0.000000 1.000000
    outer loop
      vertex 10.500000 14.936905 5.000000
      vertex 5.729343 12.036905 5.000000
      vertex 10.500000 12.036905 5.000000
    endloop
  endfacet
  facet normal 0.000000 0.000000 1.000000
    outer loop
      vertex -5.250000 9.093267 5.000000
      vertex -3.244678 9.986093 5.000000
      vertex 1.597917 14.936905 5.000000
    endloop
  endfacet
  facet normal 0.000000 0.000000 1.000000
    outer loop
      vertex 6.480000 20.001905 5.000000
      vertex -13.107178 2.786017 5.000000
      vertex 1.597917 14.936905 5.000000
    endloop
  endfacet
  facet normal 0.000000 0.000000 1.000000
    outer loop
      vertex 4.950000 16.251905 5.000000
      vertex 1.597917 14.936905 5.000000
      vertex 3.210000 15.201905 5.000000
    endloop
  endfacet
  facet normal 0.000000 0.000000 1.000000
    outer loop
      vertex 6.090000 17.901905 5.000000
      vertex 1.597917 14.936905 5.000000
      vertex 4.950000 16.251905 5.000000
    endloop
  endfacet
  facet normal 0.000000 0.000000 1.000000
    outer loop
      vertex 6.480000 20.001905 5.000000
      vertex 1.597917 14.936905 5.000000
      vertex 6.090000 17.901905 5.000000
    endloop
  endfacet
  facet normal 0.000000 -0.000000 1.000000
    outer loop
      vertex 6.240000 21.651905 5.000000
      vertex -13.107178 2.786017 5.000000
      vertex 6.480000 20.001905 5.000000
    endloop
  endfacet
  facet normal 0.000000 -0.000000 1.000000
    outer loop
      vertex 5.580000 22.851905 5.000000
      vertex -13.107178 2.786017 5.000000
      vertex 6.240000 21.651905 5.000000
    endloop
  endfacet
  facet normal 0.000000 -0.000000 1.000000
    outer loop
      vertex 0.930000 19.221905 5.000000
      vertex -13.107178 2.786017 5.000000
      vertex 5.580000 22.851905 5.000000
    endloop
  endfacet
  facet normal 0.000000 0.000000 1.000000
    outer loop
      vertex 0.930000 19.221905 5.000000
      vertex 0.300000 18.861905 5.000000
      vertex -13.107178 2.786017 5.000000
    endloop
  endfacet
  facet normal 0.000000 0.000000 1.000000
    outer loop
      vertex 5.280000 25.161905 5.000000
      vertex 2.760000 24.111905 5.000000
      vertex 4.230000 24.441905 5.000000
    endloop
  endfacet
  facet normal 0.000000 0.000000 1.000000
    outer loop
      vertex 5.910000 26.271905 5.000000
      vertex 2.760000 24.111905 5.000000
      vertex 5.280000 25.161905 5.000000
    endloop
  endfacet
  facet normal 0.000000 0.000000 1.000000
    outer loop
      vertex 6.120000 27.801905 5.000000
      vertex 2.760000 24.111905 5.000000
      vertex 5.910000 26.271905 5.000000
    endloop
  endfacet
  facet normal 0.000000 -0.000000 1.000000
    outer loop
      vertex 5.730000 29.871905 5.000000
      vertex 2.760000 24.111905 5.000000
      vertex 6.120000 27.801905 5.000000
    endloop
  endfacet
  facet normal 0.000000 0.000000 1.000000
    outer loop
      vertex -10.270550 -2.183073 5.000000
      vertex -10.500000 0.000000 5.000000
      vertex -13.107178 2.786017 5.000000
    endloop
  endfacet
  facet normal 0.000000 -0.000000 1.000000
    outer loop
      vertex 1.470000 20.511905 5.000000
      vertex 1.350000 19.761905 5.000000
      vertex 4.410000 23.661905 5.000000
    endloop
  endfacet
  facet normal 0.000000 0.000000 1.000000
    outer loop
      vertex -5.729343 12.036905 5.000000
      vertex -6.700000 11.604740 5.000000
      vertex -13.107178 2.786017 5.000000
    endloop
  endfacet
  facet normal 0.000000 -0.000000 1.000000
    outer loop
      vertex 1.140000 26.781905 5.000000
      vertex -5.820000 14.936905 5.000000
      vertex 4.560000 31.521905 5.000000
    endloop
  endfacet
  facet normal -0.000000 -0.000000 1.000000
    outer loop
      vertex -5.250000 -9.093267 5.000000
      vertex -7.025871 -7.803021 5.000000
      vertex -4.140828 -12.744157 5.000000
    endloop
  endfacet
  facet normal 0.000000 0.000000 1.000000
    outer loop
      vertex -6.700000 11.604740 5.000000
      vertex -8.966350 9.958141 5.000000
      vertex -13.107178 2.786017 5.000000
    endloop
  endfacet
  facet normal 0.000000 0.000000 1.000000
    outer loop
      vertex -0.450000 29.031905 5.000000
      vertex 0.840000 28.641905 5.000000
      vertex 2.610000 32.571905 5.000000
    endloop
  endfacet
  facet normal -0.000000 -0.000000 1.000000
    outer loop
      vertex -8.494678 -6.171745 5.000000
      vertex -9.592227 -4.270735 5.000000
      vertex -6.700000 -11.604740 5.000000
    endloop
  endfacet
  facet normal 0.000000 0.000000 1.000000
    outer loop
      vertex -5.820000 14.936905 5.000000
      vertex -10.500000 14.936905 5.000000
      vertex -10.500000 12.036905 5.000000
    endloop
  endfacet
  facet normal 0.000000 0.000000 1.000000
    outer loop
      vertex -10.500000 12.036905 5.000000
      vertex -5.729343 12.036905 5.000000
      vertex -5.820000 14.936905 5.000000
    endloop
  endfacet
  facet normal -0.000000 -0.000000 1.000000
    outer loop
      vertex -3.244678 -9.986093 5.000000
      vertex -5.250000 -9.093267 5.000000
      vertex -1.400681 -13.326593 5.000000
    endloop
  endfacet
  facet normal 0.000000 -0.000000 1.000000
    outer loop
      vertex 9.592227 -4.270735 5.000000
      vertex 8.494678 -6.171745 5.000000
      vertex 12.241509 -5.450271 5.000000
    endloop
  endfacet
  facet normal 0.000000 0.000000 1.000000
    outer loop
      vertex 7.025871 7.803021 5.000000
      vertex 8.494678 6.171745 5.000000
      vertex 10.840828 7.876322 5.000000
    endloop
  endfacet
  facet normal 0.000000 0.000000 1.000000
    outer loop
      vertex -0.960000 18.741905 5.000000
      vertex -5.820000 14.936905 5.000000
      vertex -5.729343 12.036905 5.000000
    endloop
  endfacet
  facet normal 0.000000 0.000000 1.000000
    outer loop
      vertex -7.025871 7.803021 5.000000
      vertex -13.107178 2.786017 5.000000
      vertex -8.494678 6.171745 5.000000
    endloop
  endfacet
  facet normal 0.000000 0.000000 1.000000
    outer loop
      vertex 1.597917 14.936905 5.000000
      vertex -13.107178 2.786017 5.000000
      vertex -7.025871 7.803021 5.000000
    endloop
  endfacet
  facet normal 0.000000 0.000000 1.000000
    outer loop
      vertex -1.097549 10.442480 5.000000
      vertex 1.097549 10.442480 5.000000
      vertex 10.500000 14.936905 5.000000
    endloop
  endfacet
  facet normal 0.000000 0.000000 1.000000
    outer loop
      vertex 1.597917 14.936905 5.000000
      vertex -7.025871 7.803021 5.000000
      vertex -5.250000 9.093267 5.000000
    endloop
  endfacet
  facet normal 0.000000 -0.000000 1.000000
    outer loop
      vertex 1.597917 14.936905 5.000000
      vertex -3.244678 9.986093 5.000000
      vertex 10.500000 14.936905 5.000000
    endloop
  endfacet
  facet normal 0.000000 0.000000 1.000000
    outer loop
      vertex -3.244678 9.986093 5.000000
      vertex -1.097549 10.442480 5.000000
      vertex 10.500000 14.936905 5.000000
    endloop
  endfacet
  facet normal 0.000000 -0.000000 1.000000
    outer loop
      vertex 6.700000 11.604740 5.000000
      vertex 3.244678 9.986093 5.000000
      vertex 8.966350 9.958141 5.000000
    endloop
  endfacet
  facet normal 0.000000 0.000000 1.000000
    outer loop
      vertex 3.244678 9.986093 5.000000
      vertex 5.250000 9.093267 5.000000
      vertex 8.966350 9.958141 5.000000
    endloop
  endfacet
  facet normal 0.000000 -0.000000 1.000000
    outer loop
      vertex 8.966350 9.958141 5.000000
      vertex 7.025871 7.803021 5.000000
      vertex 10.840828 7.876322 5.000000
    endloop
  endfacet
  facet normal 0.000000 -0.000000 1.000000
    outer loop
      vertex 10.840828 7.876322 5.000000
      vertex 8.494678 6.171745 5.000000
      vertex 12.241509 5.450271 5.000000
    endloop
  endfacet
  facet normal 0.000000 0.000000 1.000000
    outer loop
      vertex 5.250000 9.093267 5.000000
      vertex 7.025871 7.803021 5.000000
      vertex 8.966350 9.958141 5.000000
    endloop
  endfacet
  facet normal 0.000000 -0.000000 1.000000
    outer loop
      vertex 12.241509 5.450271 5.000000
      vertex 9.592227 4.270735 5.000000
      vertex 13.107178 2.786017 5.000000
    endloop
  endfacet
  facet normal -0.000000 0.000000 1.000000
    outer loop
      vertex -0.960000 18.741905 5.000000
      vertex -0.960000 22.221905 5.000000
      vertex -5.820000 14.936905 5.000000
    endloop
  endfacet
  facet normal 0.000000 -0.000000 1.000000
    outer loop
      vertex 13.107178 2.786017 5.000000
      vertex 10.270550 2.183073 5.000000
      vertex 13.400000 0.000000 5.000000
    endloop
  endfacet
  facet normal 0.000000 0.000000 1.000000
    outer loop
      vertex 13.400000 0.000000 5.000000
      vertex 10.500000 0.000000 5.000000
      vertex 13.107178 -2.786017 5.000000
    endloop
  endfacet
  facet normal -0.000000 0.000000 1.000000
    outer loop
      vertex 13.107178 -2.786017 5.000000
      vertex 10.270550 -2.183073 5.000000
      vertex 12.241509 -5.450271 5.000000
    endloop
  endfacet
  facet normal 0.000000 0.000000 1.000000
    outer loop
      vertex 8.494678 6.171745 5.000000
      vertex 9.592227 4.270735 5.000000
      vertex 12.241509 5.450271 5.000000
    endloop
  endfacet
  facet normal 0.000000 -0.000000 1.000000
    outer loop
      vertex 10.270550 -2.183073 5.000000
      vertex 9.592227 -4.270735 5.000000
      vertex 12.241509 -5.450271 5.000000
    endloop
  endfacet
  facet normal 0.000000 0.000000 1.000000
    outer loop
      vertex 12.241509 -5.450271 5.000000
      vertex 8.494678 -6.171745 5.000000
      vertex 10.840828 -7.876322 5.000000
    endloop
  endfacet
  facet normal -0.000000 0.000000 1.000000
    outer loop
      vertex 10.840828 -7.876322 5.000000
      vertex 7.025871 -7.803021 5.000000
      vertex 8.966350 -9.958141 5.000000
    endloop
  endfacet
  facet normal -0.000000 0.000000 1.000000
    outer loop
      vertex 8.966350 -9.958141 5.000000
      vertex 5.250000 -9.093267 5.000000
      vertex 6.700000 -11.604740 5.000000
    endloop
  endfacet
  facet normal 0.000000 -0.000000 1.000000
    outer loop
      vertex 10.500000 0.000000 5.000000
      vertex 10.270550 -2.183073 5.000000
      vertex 13.107178 -2.786017 5.000000
    endloop
  endfacet
  facet normal -0.000000 0.000000 1.000000
    outer loop
      vertex 6.700000 -11.604740 5.000000
      vertex 3.244678 -9.986093 5.000000
      vertex 4.140828 -12.744157 5.000000
    endloop
  endfacet
  facet normal -0.000000 0.000000 1.000000
    outer loop
      vertex 4.140828 -12.744157 5.000000
      vertex 1.097549 -10.442480 5.000000
      vertex 1.400681 -13.326593 5.000000
    endloop
  endfacet
  facet normal 0.000000 -0.000000 1.000000
    outer loop
      vertex 1.097549 -10.442480 5.000000
      vertex -1.097549 -10.442480 5.000000
      vertex 1.400681 -13.326593 5.000000
    endloop
  endfacet
  facet normal -0.000000 0.000000 1.000000
    outer loop
      vertex 1.400681 -13.326593 5.000000
      vertex -3.244678 -9.986093 5.000000
      vertex -1.400681 -13.326593 5.000000
    endloop
  endfacet
  facet normal 0.000000 0.000000 1.000000
    outer loop
      vertex -1.400681 -13.326593 5.000000
      vertex -5.250000 -9.093267 5.000000
      vertex -4.140828 -12.744157 5.000000
    endloop
  endfacet
  facet normal 0.000000 0.000000 1.000000
    outer loop
      vertex -4.140828 -12.744157 5.000000
      vertex -7.025871 -7.803021 5.000000
      vertex -6.700000 -11.604740 5.000000
    endloop
  endfacet
  facet normal -0.000000 -0.000000 1.000000
    outer loop
      vertex -7.025871 -7.803021 5.000000
      vertex -8.494678 -6.171745 5.000000
      vertex -6.700000 -11.604740 5.000000
    endloop
  endfacet
  facet normal -0.000000 -0.000000 1.000000
    outer loop
      vertex -10.270550 -2.183073 5.000000
      vertex -13.107178 2.786017 5.000000
      vertex -9.592227 -4.270735 5.000000
    endloop
  endfacet
  facet normal 0.000000 -0.000000 1.000000
    outer loop
      vertex 4.560000 31.521905 5.000000
      vertex -0.960000 22.221905 5.000000
      vertex 5.730000 29.871905 5.000000
    endloop
  endfacet
  facet normal 0.000000 0.000000 1.000000
    outer loop
      vertex -0.960000 22.221905 5.000000
      vertex -0.570000 22.221905 5.000000
      vertex 5.730000 29.871905 5.000000
    endloop
  endfacet
  facet normal 0.000000 0.000000 1.000000
    outer loop
      vertex -0.570000 22.221905 5.000000
      vertex 0.300000 22.101905 5.000000
      vertex 5.730000 29.871905 5.000000
    endloop
  endfacet
  facet normal 0.000000 -0.000000 1.000000
    outer loop
      vertex 5.250000 -9.093267 5.000000
      vertex 3.244678 -9.986093 5.000000
      vertex 6.700000 -11.604740 5.000000
    endloop
  endfacet
  facet normal 0.000000 0.000000 1.000000
    outer loop
      vertex 5.730000 29.871905 5.000000
      vertex 0.930000 21.771905 5.000000
      vertex 2.760000 24.111905 5.000000
    endloop
  endfacet
  facet normal 0.000000 0.000000 1.000000
    outer loop
      vertex 1.350000 21.231905 5.000000
      vertex 1.470000 20.511905 5.000000
      vertex 4.410000 23.661905 5.000000
    endloop
  endfacet
  facet normal 0.000000 -0.000000 1.000000
    outer loop
      vertex 2.760000 24.111905 5.000000
      vertex 1.350000 21.231905 5.000000
      vertex 4.410000 23.661905 5.000000
    endloop
  endfacet
  facet normal 0.000000 -0.000000 1.000000
    outer loop
      vertex 4.410000 23.661905 5.000000
      vertex 1.350000 19.761905 5.000000
      vertex 5.580000 22.851905 5.000000
    endloop
  endfacet
  facet normal 0.000000 -0.000000 1.000000
    outer loop
      vertex 1.350000 19.761905 5.000000
      vertex 0.930000 19.221905 5.000000
      vertex 5.580000 22.851905 5.000000
    endloop
  endfacet
  facet normal 0.000000 0.000000 1.000000
    outer loop
      vertex 0.300000 18.861905 5.000000
      vertex -0.510000 18.741905 5.000000
      vertex -5.729343 12.036905 5.000000
    endloop
  endfacet
  facet normal 0.000000 -0.000000 1.000000
    outer loop
      vertex -5.729343 12.036905 5.000000
      vertex -13.107178 2.786017 5.000000
      vertex 0.300000 18.861905 5.000000
    endloop
  endfacet
  facet normal 0.000000 -0.000000 1.000000
    outer loop
      vertex -0.960000 18.741905 5.000000
      vertex -5.729343 12.036905 5.000000
      vertex -0.510000 18.741905 5.000000
    endloop
  endfacet
  facet normal 0.000000 0.000000 1.000000
    outer loop
      vertex -5.820000 14.936905 5.000000
      vertex -0.960000 22.221905 5.000000
      vertex 4.560000 31.521905 5.000000
    endloop
  endfacet
  facet normal 0.000000 -0.000000 1.000000
    outer loop
      vertex -0.150000 32.931905 5.000000
      vertex -0.960000 29.001905 5.000000
      vertex 2.610000 32.571905 5.000000
    endloop
  endfacet
  facet normal 0.000000 0.000000 1.000000
    outer loop
      vertex -0.960000 29.001905 5.000000
      vertex -0.660000 29.001905 5.000000
      vertex 2.610000 32.571905 5.000000
    endloop
  endfacet
  facet normal 0.000000 0.000000 1.000000
    outer loop
      vertex 0.300000 22.101905 5.000000
      vertex 0.930000 21.771905 5.000000
      vertex 5.730000 29.871905 5.000000
    endloop
  endfacet
  facet normal 0.000000 0.000000 1.000000
    outer loop
      vertex -0.660000 29.001905 5.000000
      vertex -0.450000 29.031905 5.000000
      vertex 2.610000 32.571905 5.000000
    endloop
  endfacet
  facet normal 0.000000 0.000000 1.000000
    outer loop
      vertex 0.930000 21.771905 5.000000
      vertex 1.350000 21.231905 5.000000
      vertex 2.760000 24.111905 5.000000
    endloop
  endfacet
  facet normal 0.000000 -0.000000 1.000000
    outer loop
      vertex 2.610000 32.571905 5.000000
      vertex 0.840000 28.641905 5.000000
      vertex 4.560000 31.521905 5.000000
    endloop
  endfacet
  facet normal 0.000000 0.000000 1.000000
    outer loop
      vertex 0.840000 28.641905 5.000000
      vertex 1.290000 27.441905 5.000000
      vertex 4.560000 31.521905 5.000000
    endloop
  endfacet
  facet normal 0.000000 -0.000000 1.000000
    outer loop
      vertex 1.290000 27.441905 5.000000
      vertex 1.140000 26.781905 5.000000
      vertex 4.560000 31.521905 5.000000
    endloop
  endfacet
  facet normal 0.000000 -0.000000 1.000000
    outer loop
      vertex 0.750000 26.301905 5.000000
      vertex -5.820000 14.936905 5.000000
      vertex 1.140000 26.781905 5.000000
    endloop
  endfacet
  facet normal 0.000000 0.000000 1.000000
    outer loop
      vertex -8.966350 9.958141 5.000000
      vertex -10.840828 7.876322 5.000000
      vertex -13.107178 2.786017 5.000000
    endloop
  endfacet
  facet normal -0.000000 -0.000000 1.000000
    outer loop
      vertex -1.097549 -10.442480 5.000000
      vertex -3.244678 -9.986093 5.000000
      vertex 1.400681 -13.326593 5.000000
    endloop
  endfacet
  facet normal 0.000000 0.000000 1.000000
    outer loop
      vertex -10.840828 7.876322 5.000000
      vertex -12.241509 5.450271 5.000000
      vertex -13.107178 2.786017 5.000000
    endloop
  endfacet
  facet normal 0.000000 0.000000 1.000000
    outer loop
      vertex -10.500000 0.000000 5.000000
      vertex -10.270550 2.183073 5.000000
      vertex -13.107178 2.786017 5.000000
    endloop
  endfacet
  facet normal 0.000000 0.000000 1.000000
    outer loop
      vertex -5.820000 32.931905 5.000000
      vertex -0.960000 29.001905 5.000000
      vertex -0.150000 32.931905 5.000000
    endloop
  endfacet
  facet normal 0.000000 0.000000 1.000000
    outer loop
      vertex -5.820000 32.931905 5.000000
      vertex -0.960000 25.881905 5.000000
      vertex -0.960000 29.001905 5.000000
    endloop
  endfacet
  facet normal 0.000000 0.000000 1.000000
    outer loop
      vertex 0.750000 26.301905 5.000000
      vertex -0.630000 25.881905 5.000000
      vertex -5.820000 14.936905 5.000000
    endloop
  endfacet
  facet normal 0.000000 -0.000000 1.000000
    outer loop
      vertex -0.960000 25.881905 5.000000
      vertex -5.820000 14.936905 5.000000
      vertex -0.630000 25.881905 5.000000
    endloop
  endfacet
  facet normal 0.000000 -0.000000 1.000000
    outer loop
      vertex -5.820000 32.931905 5.000000
      vertex -5.820000 14.936905 5.000000
      vertex -0.960000 25.881905 5.000000
    endloop
  endfacet
  facet normal 0.000000 -0.000000 1.000000
    outer loop
      vertex -7.875000 34.211905 2.500000
      vertex -7.875000 14.936905 2.500000
      vertex -5.820000 14.936905 2.500000
    endloop
  endfacet
  facet normal -0.000000 0.000000 1.000000
    outer loop
      vertex -0.150000 32.931905 2.500000
      vertex -7.875000 34.211905 2.500000
      vertex -5.820000 32.931905 2.500000
    endloop
  endfacet
  facet normal -0.000000 0.000000 1.000000
    outer loop
      vertex -5.820000 32.931905 2.500000
      vertex -7.875000 34.211905 2.500000
      vertex -5.820000 14.936905 2.500000
    endloop
  endfacet
  facet normal 0.000000 0.000000 1.000000
    outer loop
      vertex 2.610000 32.571905 2.500000
      vertex -7.875000 34.211905 2.500000
      vertex -0.150000 32.931905 2.500000
    endloop
  endfacet
  facet normal 0.000000 0.000000 1.000000
    outer loop
      vertex 7.875000 34.211905 2.500000
      vertex -7.875000 34.211905 2.500000
      vertex 2.610000 32.571905 2.500000
    endloop
  endfacet
  facet normal 0.000000 0.000000 1.000000
    outer loop
      vertex 7.875000 34.211905 2.500000
      vertex 2.610000 32.571905 2.500000
      vertex 4.560000 31.521905 2.500000
    endloop
  endfacet
  facet normal 0.000000 0.000000 1.000000
    outer loop
      vertex 7.875000 34.211905 2.500000
      vertex 4.560000 31.521905 2.500000
      vertex 5.730000 29.871905 2.500000
    endloop
  endfacet
  facet normal 0.000000 0.000000 1.000000
    outer loop
      vertex 7.875000 34.211905 2.500000
      vertex 5.730000 29.871905 2.500000
      vertex 6.120000 27.801905 2.500000
    endloop
  endfacet
  facet normal 0.000000 0.000000 1.000000
    outer loop
      vertex 4.230000 24.441905 2.500000
      vertex 4.410000 23.661905 2.500000
      vertex 5.280000 25.161905 2.500000
    endloop
  endfacet
  facet normal 0.000000 0.000000 1.000000
    outer loop
      vertex 5.580000 22.851905 2.500000
      vertex 6.120000 27.801905 2.500000
      vertex 5.910000 26.271905 2.500000
    endloop
  endfacet
  facet normal 0.000000 0.000000 1.000000
    outer loop
      vertex 5.580000 22.851905 2.500000
      vertex 5.910000 26.271905 2.500000
      vertex 5.280000 25.161905 2.500000
    endloop
  endfacet
  facet normal 0.000000 0.000000 1.000000
    outer loop
      vertex 5.580000 22.851905 2.500000
      vertex 5.280000 25.161905 2.500000
      vertex 4.410000 23.661905 2.500000
    endloop
  endfacet
  facet normal 0.000000 0.000000 1.000000
    outer loop
      vertex 6.240000 21.651905 2.500000
      vertex 6.120000 27.801905 2.500000
      vertex 5.580000 22.851905 2.500000
    endloop
  endfacet
  facet normal 0.000000 0.000000 1.000000
    outer loop
      vertex 6.480000 20.001905 2.500000
      vertex 6.120000 27.801905 2.500000
      vertex 6.240000 21.651905 2.500000
    endloop
  endfacet
  facet normal 0.000000 0.000000 1.000000
    outer loop
      vertex 7.875000 14.936905 2.500000
      vertex 6.120000 27.801905 2.500000
      vertex 6.480000 20.001905 2.500000
    endloop
  endfacet
  facet normal 0.000000 0.000000 1.000000
    outer loop
      vertex 7.875000 14.936905 2.500000
      vertex 6.480000 20.001905 2.500000
      vertex 6.090000 17.901905 2.500000
    endloop
  endfacet
  facet normal 0.000000 0.000000 1.000000
    outer loop
      vertex 7.875000 14.936905 2.500000
      vertex 6.090000 17.901905 2.500000
      vertex 4.950000 16.251905 2.500000
    endloop
  endfacet
  facet normal 0.000000 0.000000 1.000000
    outer loop
      vertex 7.875000 14.936905 2.500000
      vertex 4.950000 16.251905 2.500000
      vertex 3.210000 15.201905 2.500000
    endloop
  endfacet
  facet normal -0.000000 0.000000 1.000000
    outer loop
      vertex 7.875000 14.936905 2.500000
      vertex 3.210000 15.201905 2.500000
      vertex 1.597917 14.936905 2.500000
    endloop
  endfacet
  facet normal 0.000000 0.000000 1.000000
    outer loop
      vertex 7.875000 34.211905 2.500000
      vertex 6.120000 27.801905 2.500000
      vertex 7.875000 14.936905 2.500000
    endloop
  endfacet
  facet normal 0.000000 0.000000 1.000000
    outer loop
      vertex 2.760000 24.111905 2.500000
      vertex 4.410000 23.661905 2.500000
      vertex 4.230000 24.441905 2.500000
    endloop
  endfacet
  facet normal 0.162207 -0.986757 0.000000
    outer loop
      vertex 1.597917 14.936905 5.000000
      vertex 1.597917 14.936905 2.500000
      vertex 3.210000 15.201905 2.500000
    endloop
  endfacet
  facet normal 0.162207 -0.986757 0.000000
    outer loop
      vertex 3.210000 15.201905 5.000000
      vertex 1.597917 14.936905 5.000000
      vertex 3.210000 15.201905 2.500000
    endloop
  endfacet
  facet normal -1.000000 -0.000000 -0.000000
    outer loop
      vertex -5.820000 14.936905 2.500000
      vertex -5.820000 14.936905 5.000000
      vertex -5.820000 32.931905 2.500000
    endloop
  endfacet
  facet normal -1.000000 0.000000 0.000000
    outer loop
      vertex -5.820000 32.931905 2.500000
      vertex -5.820000 14.936905 5.000000
      vertex -5.820000 32.931905 5.000000
    endloop
  endfacet
  facet normal 0.000000 1.000000 0.000000
    outer loop
      vertex -5.820000 32.931905 2.500000
      vertex -5.820000 32.931905 5.000000
      vertex -0.150000 32.931905 2.500000
    endloop
  endfacet
  facet normal 0.000000 1.000000 0.000000
    outer loop
      vertex -0.150000 32.931905 2.500000
      vertex -5.820000 32.931905 5.000000
      vertex -0.150000 32.931905 5.000000
    endloop
  endfacet
  facet normal 0.129339 0.991600 0.000000
    outer loop
      vertex -0.150000 32.931905 2.500000
      vertex -0.150000 32.931905 5.000000
      vertex 2.610000 32.571905 2.500000
    endloop
  endfacet
  facet normal 0.129339 0.991600 0.000000
    outer loop
      vertex 2.610000 32.571905 2.500000
      vertex -0.150000 32.931905 5.000000
      vertex 2.610000 32.571905 5.000000
    endloop
  endfacet
  facet normal 0.474100 0.880471 0.000000
    outer loop
      vertex 2.610000 32.571905 2.500000
      vertex 2.610000 32.571905 5.000000
      vertex 4.560000 31.521905 2.500000
    endloop
  endfacet
  facet normal 0.474100 0.880471 0.000000
    outer loop
      vertex 4.560000 31.521905 2.500000
      vertex 2.610000 32.571905 5.000000
      vertex 4.560000 31.521905 5.000000
    endloop
  endfacet
  facet normal 0.815733 0.578429 0.000000
    outer loop
      vertex 5.730000 29.871905 2.500000
      vertex 4.560000 31.521905 2.500000
      vertex 4.560000 31.521905 5.000000
    endloop
  endfacet
  facet normal 0.815733 0.578429 -0.000000
    outer loop
      vertex 5.730000 29.871905 5.000000
      vertex 5.730000 29.871905 2.500000
      vertex 4.560000 31.521905 5.000000
    endloop
  endfacet
  facet normal 0.982711 0.185148 0.000000
    outer loop
      vertex 6.120000 27.801905 2.500000
      vertex 5.730000 29.871905 2.500000
      vertex 5.730000 29.871905 5.000000
    endloop
  endfacet
  facet normal 0.982711 0.185148 -0.000000
    outer loop
      vertex 6.120000 27.801905 5.000000
      vertex 6.120000 27.801905 2.500000
      vertex 5.730000 29.871905 5.000000
    endloop
  endfacet
  facet normal 0.990712 -0.135980 0.000000
    outer loop
      vertex 5.910000 26.271905 5.000000
      vertex 5.910000 26.271905 2.500000
      vertex 6.120000 27.801905 2.500000
    endloop
  endfacet
  facet normal 0.990712 -0.135980 0.000000
    outer loop
      vertex 6.120000 27.801905 5.000000
      vertex 5.910000 26.271905 5.000000
      vertex 6.120000 27.801905 2.500000
    endloop
  endfacet
  facet normal 0.869686 -0.493606 0.000000
    outer loop
      vertex 5.280000 25.161905 5.000000
      vertex 5.280000 25.161905 2.500000
      vertex 5.910000 26.271905 2.500000
    endloop
  endfacet
  facet normal 0.869686 -0.493606 0.000000
    outer loop
      vertex 5.910000 26.271905 5.000000
      vertex 5.280000 25.161905 5.000000
      vertex 5.910000 26.271905 2.500000
    endloop
  endfacet
  facet normal 0.565528 -0.824729 0.000000
    outer loop
      vertex 4.230000 24.441905 5.000000
      vertex 4.230000 24.441905 2.500000
      vertex 5.280000 25.161905 2.500000
    endloop
  endfacet
  facet normal 0.565528 -0.824729 0.000000
    outer loop
      vertex 5.280000 25.161905 5.000000
      vertex 4.230000 24.441905 5.000000
      vertex 5.280000 25.161905 2.500000
    endloop
  endfacet
  facet normal 0.219038 -0.975716 0.000000
    outer loop
      vertex 2.760000 24.111905 5.000000
      vertex 2.760000 24.111905 2.500000
      vertex 4.230000 24.441905 2.500000
    endloop
  endfacet
  facet normal 0.219038 -0.975716 0.000000
    outer loop
      vertex 4.230000 24.441905 5.000000
      vertex 2.760000 24.111905 5.000000
      vertex 4.230000 24.441905 2.500000
    endloop
  endfacet
  facet normal 0.263117 0.964764 0.000000
    outer loop
      vertex 2.760000 24.111905 2.500000
      vertex 2.760000 24.111905 5.000000
      vertex 4.410000 23.661905 2.500000
    endloop
  endfacet
  facet normal 0.263117 0.964764 0.000000
    outer loop
      vertex 4.410000 23.661905 2.500000
      vertex 2.760000 24.111905 5.000000
      vertex 4.410000 23.661905 5.000000
    endloop
  endfacet
  facet normal 0.569210 0.822192 0.000000
    outer loop
      vertex 4.410000 23.661905 2.500000
      vertex 4.410000 23.661905 5.000000
      vertex 5.580000 22.851905 2.500000
    endloop
  endfacet
  facet normal 0.569210 0.822192 0.000000
    outer loop
      vertex 5.580000 22.851905 2.500000
      vertex 4.410000 23.661905 5.000000
      vertex 5.580000 22.851905 5.000000
    endloop
  endfacet
  facet normal 0.876216 0.481919 0.000000
    outer loop
      vertex 6.240000 21.651905 2.500000
      vertex 5.580000 22.851905 2.500000
      vertex 5.580000 22.851905 5.000000
    endloop
  endfacet
  facet normal 0.876216 0.481919 -0.000000
    outer loop
      vertex 6.240000 21.651905 5.000000
      vertex 6.240000 21.651905 2.500000
      vertex 5.580000 22.851905 5.000000
    endloop
  endfacet
  facet normal 0.989586 0.143940 0.000000
    outer loop
      vertex 6.480000 20.001905 2.500000
      vertex 6.240000 21.651905 2.500000
      vertex 6.240000 21.651905 5.000000
    endloop
  endfacet
  facet normal 0.989586 0.143940 -0.000000
    outer loop
      vertex 6.480000 20.001905 5.000000
      vertex 6.480000 20.001905 2.500000
      vertex 6.240000 21.651905 5.000000
    endloop
  endfacet
  facet normal 0.983189 -0.182592 0.000000
    outer loop
      vertex 6.090000 17.901905 5.000000
      vertex 6.090000 17.901905 2.500000
      vertex 6.480000 20.001905 2.500000
    endloop
  endfacet
  facet normal 0.983189 -0.182592 0.000000
    outer loop
      vertex 6.480000 20.001905 5.000000
      vertex 6.090000 17.901905 5.000000
      vertex 6.480000 20.001905 2.500000
    endloop
  endfacet
  facet normal 0.822730 -0.568432 0.000000
    outer loop
      vertex 4.950000 16.251905 5.000000
      vertex 4.950000 16.251905 2.500000
      vertex 6.090000 17.901905 2.500000
    endloop
  endfacet
  facet normal 0.822730 -0.568432 0.000000
    outer loop
      vertex 6.090000 17.901905 5.000000
      vertex 4.950000 16.251905 5.000000
      vertex 6.090000 17.901905 2.500000
    endloop
  endfacet
  facet normal 0.516665 -0.856188 0.000000
    outer loop
      vertex 3.210000 15.201905 5.000000
      vertex 3.210000 15.201905 2.500000
      vertex 4.950000 16.251905 2.500000
    endloop
  endfacet
  facet normal 0.516665 -0.856188 0.000000
    outer loop
      vertex 4.950000 16.251905 5.000000
      vertex 3.210000 15.201905 5.000000
      vertex 4.950000 16.251905 2.500000
    endloop
  endfacet
  facet normal 0.000000 1.000000 0.000000
    outer loop
      vertex -0.960000 18.741905 2.500000
      vertex -0.960000 18.741905 5.000000
      vertex -0.510000 18.741905 2.500000
    endloop
  endfacet
  facet normal 0.000000 1.000000 0.000000
    outer loop
      vertex -0.510000 18.741905 2.500000
      vertex -0.960000 18.741905 5.000000
      vertex -0.510000 18.741905 5.000000
    endloop
  endfacet
  facet normal 1.000000 0.000000 -0.000000
    outer loop
      vertex -0.960000 18.741905 5.000000
      vertex -0.960000 18.741905 2.500000
      vertex -0.960000 22.221905 2.500000
    endloop
  endfacet
  facet normal 1.000000 0.000000 0.000000
    outer loop
      vertex -0.960000 22.221905 5.000000
      vertex -0.960000 18.741905 5.000000
      vertex -0.960000 22.221905 2.500000
    endloop
  endfacet
  facet normal -0.146549 0.989203 0.000000
    outer loop
      vertex -0.510000 18.741905 2.500000
      vertex -0.510000 18.741905 5.000000
      vertex 0.300000 18.861905 2.500000
    endloop
  endfacet
  facet normal -0.146549 0.989203 0.000000
    outer loop
      vertex 0.300000 18.861905 2.500000
      vertex -0.510000 18.741905 5.000000
      vertex 0.300000 18.861905 5.000000
    endloop
  endfacet
  facet normal -0.496139 0.868243 0.000000
    outer loop
      vertex 0.300000 18.861905 2.500000
      vertex 0.300000 18.861905 5.000000
      vertex 0.930000 19.221905 2.500000
    endloop
  endfacet
  facet normal -0.496139 0.868243 0.000000
    outer loop
      vertex 0.930000 19.221905 2.500000
      vertex 0.300000 18.861905 5.000000
      vertex 0.930000 19.221905 5.000000
    endloop
  endfacet
  facet normal -0.789352 0.613941 0.000000
    outer loop
      vertex 0.930000 19.221905 2.500000
      vertex 0.930000 19.221905 5.000000
      vertex 1.350000 19.761905 2.500000
    endloop
  endfacet
  facet normal -0.789352 0.613941 0.000000
    outer loop
      vertex 1.350000 19.761905 2.500000
      vertex 0.930000 19.221905 5.000000
      vertex 1.350000 19.761905 5.000000
    endloop
  endfacet
  facet normal -0.987441 0.157991 0.000000
    outer loop
      vertex 1.350000 19.761905 2.500000
      vertex 1.350000 19.761905 5.000000
      vertex 1.470000 20.511905 2.500000
    endloop
  endfacet
  facet normal -0.987441 0.157991 0.000000
    outer loop
      vertex 1.470000 20.511905 2.500000
      vertex 1.350000 19.761905 5.000000
      vertex 1.470000 20.511905 5.000000
    endloop
  endfacet
  facet normal -0.986394 -0.164399 -0.000000
    outer loop
      vertex 1.350000 21.231905 2.500000
      vertex 1.470000 20.511905 2.500000
      vertex 1.350000 21.231905 5.000000
    endloop
  endfacet
  facet normal -0.986394 -0.164399 0.000000
    outer loop
      vertex 1.350000 21.231905 5.000000
      vertex 1.470000 20.511905 2.500000
      vertex 1.470000 20.511905 5.000000
    endloop
  endfacet
  facet normal -0.789352 -0.613941 -0.000000
    outer loop
      vertex 0.930000 21.771905 2.500000
      vertex 1.350000 21.231905 2.500000
      vertex 0.930000 21.771905 5.000000
    endloop
  endfacet
  facet normal -0.789352 -0.613941 0.000000
    outer loop
      vertex 0.930000 21.771905 5.000000
      vertex 1.350000 21.231905 2.500000
      vertex 1.350000 21.231905 5.000000
    endloop
  endfacet
  facet normal -0.464007 -0.885832 0.000000
    outer loop
      vertex 0.300000 22.101905 5.000000
      vertex 0.300000 22.101905 2.500000
      vertex 0.930000 21.771905 2.500000
    endloop
  endfacet
  facet normal -0.464007 -0.885832 0.000000
    outer loop
      vertex 0.930000 21.771905 5.000000
      vertex 0.300000 22.101905 5.000000
      vertex 0.930000 21.771905 2.500000
    endloop
  endfacet
  facet normal -0.136637 -0.990621 0.000000
    outer loop
      vertex -0.570000 22.221905 5.000000
      vertex -0.570000 22.221905 2.500000
      vertex 0.300000 22.101905 2.500000
    endloop
  endfacet
  facet normal -0.136637 -0.990621 0.000000
    outer loop
      vertex 0.300000 22.101905 5.000000
      vertex -0.570000 22.221905 5.000000
      vertex 0.300000 22.101905 2.500000
    endloop
  endfacet
  facet normal 0.000000 -1.000000 0.000000
    outer loop
      vertex -0.960000 22.221905 5.000000
      vertex -0.960000 22.221905 2.500000
      vertex -0.570000 22.221905 2.500000
    endloop
  endfacet
  facet normal 0.000000 -1.000000 0.000000
    outer loop
      vertex -0.570000 22.221905 5.000000
      vertex -0.960000 22.221905 5.000000
      vertex -0.570000 22.221905 2.500000
    endloop
  endfacet
  facet normal 0.000000 1.000000 0.000000
    outer loop
      vertex -0.960000 25.881905 2.500000
      vertex -0.960000 25.881905 5.000000
      vertex -0.630000 25.881905 2.500000
    endloop
  endfacet
  facet normal 0.000000 1.000000 0.000000
    outer loop
      vertex -0.630000 25.881905 2.500000
      vertex -0.960000 25.881905 5.000000
      vertex -0.630000 25.881905 5.000000
    endloop
  endfacet
  facet normal 1.000000 0.000000 -0.000000
    outer loop
      vertex -0.960000 25.881905 5.000000
      vertex -0.960000 25.881905 2.500000
      vertex -0.960000 29.001905 2.500000
    endloop
  endfacet
  facet normal 1.000000 0.000000 0.000000
    outer loop
      vertex -0.960000 29.001905 5.000000
      vertex -0.960000 25.881905 5.000000
      vertex -0.960000 29.001905 2.500000
    endloop
  endfacet
  facet normal -0.291162 0.956674 0.000000
    outer loop
      vertex -0.630000 25.881905 2.500000
      vertex -0.630000 25.881905 5.000000
      vertex 0.750000 26.301905 2.500000
    endloop
  endfacet
  facet normal -0.291162 0.956674 0.000000
    outer loop
      vertex 0.750000 26.301905 2.500000
      vertex -0.630000 25.881905 5.000000
      vertex 0.750000 26.301905 5.000000
    endloop
  endfacet
  facet normal -0.776114 0.630593 0.000000
    outer loop
      vertex 0.750000 26.301905 2.500000
      vertex 0.750000 26.301905 5.000000
      vertex 1.140000 26.781905 2.500000
    endloop
  endfacet
  facet normal -0.776114 0.630593 0.000000
    outer loop
      vertex 1.140000 26.781905 2.500000
      vertex 0.750000 26.301905 5.000000
      vertex 1.140000 26.781905 5.000000
    endloop
  endfacet
  facet normal -0.975133 0.221621 0.000000
    outer loop
      vertex 1.140000 26.781905 2.500000
      vertex 1.140000 26.781905 5.000000
      vertex 1.290000 27.441905 2.500000
    endloop
  endfacet
  facet normal -0.975133 0.221621 0.000000
    outer loop
      vertex 1.290000 27.441905 2.500000
      vertex 1.140000 26.781905 5.000000
      vertex 1.290000 27.441905 5.000000
    endloop
  endfacet
  facet normal -0.936329 -0.351123 -0.000000
    outer loop
      vertex 0.840000 28.641905 2.500000
      vertex 1.290000 27.441905 2.500000
      vertex 0.840000 28.641905 5.000000
    endloop
  endfacet
  facet normal -0.936329 -0.351123 0.000000
    outer loop
      vertex 0.840000 28.641905 5.000000
      vertex 1.290000 27.441905 2.500000
      vertex 1.290000 27.441905 5.000000
    endloop
  endfacet
  facet normal -0.289390 -0.957211 0.000000
    outer loop
      vertex -0.450000 29.031905 5.000000
      vertex -0.450000 29.031905 2.500000
      vertex 0.840000 28.641905 2.500000
    endloop
  endfacet
  facet normal -0.289390 -0.957211 0.000000
    outer loop
      vertex 0.840000 28.641905 5.000000
      vertex -0.450000 29.031905 5.000000
      vertex 0.840000 28.641905 2.500000
    endloop
  endfacet
  facet normal 0.141421 -0.989949 0.000000
    outer loop
      vertex -0.660000 29.001905 5.000000
      vertex -0.660000 29.001905 2.500000
      vertex -0.450000 29.031905 2.500000
    endloop
  endfacet
  facet normal 0.141421 -0.989949 0.000000
    outer loop
      vertex -0.450000 29.031905 5.000000
      vertex -0.660000 29.001905 5.000000
      vertex -0.450000 29.031905 2.500000
    endloop
  endfacet
  facet normal 0.000000 -1.000000 0.000000
    outer loop
      vertex -0.960000 29.001905 5.000000
      vertex -0.960000 29.001905 2.500000
      vertex -0.660000 29.001905 2.500000
    endloop
  endfacet
  facet normal 0.000000 -1.000000 0.000000
    outer loop
      vertex -0.660000 29.001905 5.000000
      vertex -0.960000 29.001905 5.000000
      vertex -0.660000 29.001905 2.500000
    endloop
  endfacet
  facet normal 0.000000 -0.000000 1.000000
    outer loop
      vertex -0.960000 22.221905 2.500000
      vertex -0.960000 18.741905 2.500000
      vertex -0.510000 18.741905 2.500000
    endloop
  endfacet
  facet normal -0.000000 0.000000 1.000000
    outer loop
      vertex 0.930000 19.221905 2.500000
      vertex -0.960000 22.221905 2.500000
      vertex 0.300000 18.861905 2.500000
    endloop
  endfacet
  facet normal -0.000000 0.000000 1.000000
    outer loop
      vertex 0.300000 18.861905 2.500000
      vertex -0.960000 22.221905 2.500000
      vertex -0.510000 18.741905 2.500000
    endloop
  endfacet
  facet normal -0.000000 0.000000 1.000000
    outer loop
      vertex 1.350000 19.761905 2.500000
      vertex -0.960000 22.221905 2.500000
      vertex 0.930000 19.221905 2.500000
    endloop
  endfacet
  facet normal -0.000000 0.000000 1.000000
    outer loop
      vertex 1.470000 20.511905 2.500000
      vertex -0.960000 22.221905 2.500000
      vertex 1.350000 19.761905 2.500000
    endloop
  endfacet
  facet normal -0.000000 -0.000000 1.000000
    outer loop
      vertex 1.350000 21.231905 2.500000
      vertex -0.960000 22.221905 2.500000
      vertex 1.470000 20.511905 2.500000
    endloop
  endfacet
  facet normal -0.000000 -0.000000 1.000000
    outer loop
      vertex 0.930000 21.771905 2.500000
      vertex -0.960000 22.221905 2.500000
      vertex 1.350000 21.231905 2.500000
    endloop
  endfacet
  facet normal -0.000000 -0.000000 1.000000
    outer loop
      vertex 0.300000 22.101905 2.500000
      vertex -0.960000 22.221905 2.500000
      vertex 0.930000 21.771905 2.500000
    endloop
  endfacet
  facet normal 0.000000 -0.000000 1.000000
    outer loop
      vertex -0.570000 22.221905 2.500000
      vertex -0.960000 22.221905 2.500000
      vertex 0.300000 22.101905 2.500000
    endloop
  endfacet
  facet normal 0.000000 -0.000000 1.000000
    outer loop
      vertex -0.960000 29.001905 2.500000
      vertex -0.960000 25.881905 2.500000
      vertex -0.630000 25.881905 2.500000
    endloop
  endfacet
  facet normal -0.000000 0.000000 1.000000
    outer loop
      vertex 1.140000 26.781905 2.500000
      vertex -0.960000 29.001905 2.500000
      vertex 0.750000 26.301905 2.500000
    endloop
  endfacet
  facet normal -0.000000 0.000000 1.000000
    outer loop
      vertex 0.750000 26.301905 2.500000
      vertex -0.960000 29.001905 2.500000
      vertex -0.630000 25.881905 2.500000
    endloop
  endfacet
  facet normal -0.000000 0.000000 1.000000
    outer loop
      vertex 1.290000 27.441905 2.500000
      vertex -0.960000 29.001905 2.500000
      vertex 1.140000 26.781905 2.500000
    endloop
  endfacet
  facet normal -0.000000 -0.000000 1.000000
    outer loop
      vertex 0.840000 28.641905 2.500000
      vertex -0.960000 29.001905 2.500000
      vertex 1.290000 27.441905 2.500000
    endloop
  endfacet
  facet normal 0.000000 -0.000000 1.000000
    outer loop
      vertex -0.660000 29.001905 2.500000
      vertex -0.960000 29.001905 2.500000
      vertex 0.840000 28.641905 2.500000
    endloop
  endfacet
  facet normal 0.000000 -0.000000 1.000000
    outer loop
      vertex -0.450000 29.031905 2.500000
      vertex -0.660000 29.001905 2.500000
      vertex 0.840000 28.641905 2.500000
    endloop
  endfacet
endsolid OpenSCAD_Model
