solid OpenSCAD_Model
  facet normal -0.000000 0.000000 -1.000000
    outer loop
      vertex -16.160000 0.000000 0.000000
      vertex -15.806865 3.359853 0.000000
      vertex -15.806865 -3.359853 0.000000
    endloop
  endfacet
  facet normal 0.000000 -0.000000 -1.000000
    outer loop
      vertex -15.806865 -3.359853 0.000000
      vertex -15.806865 3.359853 0.000000
      vertex -14.762895 6.572864 0.000000
    endloop
  endfacet
  facet normal 0.000000 0.000000 -1.000000
    outer loop
      vertex -15.806865 -3.359853 0.000000
      vertex -14.762895 6.572864 0.000000
      vertex -13.073715 9.498610 0.000000
    endloop
  endfacet
  facet normal 0.000000 -0.000000 -1.000000
    outer loop
      vertex -12.935804 5.759391 0.000000
      vertex -13.073715 9.498610 0.000000
      vertex -10.813151 12.009220 0.000000
    endloop
  endfacet
  facet normal 0.000000 0.000000 -1.000000
    outer loop
      vertex -11.455681 8.323039 0.000000
      vertex -10.813151 12.009220 0.000000
      vertex -8.080000 13.994971 0.000000
    endloop
  endfacet
  facet normal 0.000000 -0.000000 -1.000000
    outer loop
      vertex -7.080000 12.262920 0.000000
      vertex -8.080000 13.994971 0.000000
      vertex -4.993715 15.369073 0.000000
    endloop
  endfacet
  facet normal 0.000000 -0.000000 -1.000000
    outer loop
      vertex -4.375681 13.466960 0.000000
      vertex -4.993715 15.369073 0.000000
      vertex -1.689180 16.071474 0.000000
    endloop
  endfacet
  facet normal 0.000000 -0.000000 -1.000000
    outer loop
      vertex -1.480123 14.082430 0.000000
      vertex -1.689180 16.071474 0.000000
      vertex 1.689180 16.071474 0.000000
    endloop
  endfacet
  facet normal 0.000000 0.000000 -1.000000
    outer loop
      vertex 1.480123 14.082430 0.000000
      vertex 1.689180 16.071474 0.000000
      vertex 4.993715 15.369073 0.000000
    endloop
  endfacet
  facet normal 0.000000 0.000000 -1.000000
    outer loop
      vertex 4.375681 13.466960 0.000000
      vertex 4.993715 15.369073 0.000000
      vertex 8.080000 13.994971 0.000000
    endloop
  endfacet
  facet normal -0.000000 0.000000 -1.000000
    outer loop
      vertex 7.080000 12.262920 0.000000
      vertex 8.080000 13.994971 0.000000
      vertex 10.813151 12.009220 0.000000
    endloop
  endfacet
  facet normal -0.000000 0.000000 -1.000000
    outer loop
      vertex 9.474889 10.522931 0.000000
      vertex 10.813151 12.009220 0.000000
      vertex 13.073715 9.498610 0.000000
    endloop
  endfacet
  facet normal -0.000000 0.000000 -1.000000
    outer loop
      vertex 11.455681 8.323039 0.000000
      vertex 13.073715 9.498610 0.000000
      vertex 14.762895 6.572864 0.000000
    endloop
  endfacet
  facet normal -0.000000 0.000000 -1.000000
    outer loop
      vertex 12.935804 5.759391 0.000000
      vertex 14.762895 6.572864 0.000000
      vertex 15.806865 3.359853 0.000000
    endloop
  endfacet
  facet normal -0.000000 0.000000 -1.000000
    outer loop
      vertex 14.160000 0.000000 0.000000
      vertex 15.806865 3.359853 0.000000
      vertex 16.160000 0.000000 0.000000
    endloop
  endfacet
  facet normal -0.000000 0.000000 -1.000000
    outer loop
      vertex 13.850570 -2.944030 0.000000
      vertex 16.160000 0.000000 0.000000
      vertex 15.806865 -3.359853 0.000000
    endloop
  endfacet
  facet normal -0.000000 0.000000 -1.000000
    outer loop
      vertex 12.935804 -5.759391 0.000000
      vertex 15.806865 -3.359853 0.000000
      vertex 14.762895 -6.572864 0.000000
    endloop
  endfacet
  facet normal -0.000000 0.000000 -1.000000
    outer loop
      vertex 11.455681 -8.323039 0.000000
      vertex 14.762895 -6.572864 0.000000
      vertex 13.073715 -9.498610 0.000000
    endloop
  endfacet
  facet normal -0.000000 0.000000 -1.000000
    outer loop
      vertex 9.474889 -10.522931 0.000000
      vertex 13.073715 -9.498610 0.000000
      vertex 10.813151 -12.009220 0.000000
    endloop
  endfacet
  facet normal -0.000000 0.000000 -1.000000
    outer loop
      vertex 7.080000 -12.262920 0.000000
      vertex 10.813151 -12.009220 0.000000
      vertex 8.080000 -13.994971 0.000000
    endloop
  endfacet
  facet normal 0.000000 0.000000 -1.000000
    outer loop
      vertex 4.375681 -13.466960 0.000000
      vertex 8.080000 -13.994971 0.000000
      vertex 4.993715 -15.369073 0.000000
    endloop
  endfacet
  facet normal 0.000000 0.000000 -1.000000
    outer loop
      vertex 1.480123 -14.082430 0.000000
      vertex 4.993715 -15.369073 0.000000
      vertex 1.689180 -16.071474 0.000000
    endloop
  endfacet
  facet normal 0.000000 0.000000 -1.000000
    outer loop
      vertex -4.375681 -13.466960 0.000000
      vertex 1.689180 -16.071474 0.000000
      vertex -1.689180 -16.071474 0.000000
    endloop
  endfacet
  facet normal 0.000000 0.000000 -1.000000
    outer loop
      vertex -7.080000 -12.262920 0.000000
      vertex -1.689180 -16.071474 0.000000
      vertex -4.993715 -15.369073 0.000000
    endloop
  endfacet
  facet normal 0.000000 0.000000 -1.000000
    outer loop
      vertex -9.474889 -10.522931 0.000000
      vertex -4.993715 -15.369073 0.000000
      vertex -8.080000 -13.994971 0.000000
    endloop
  endfacet
  facet normal 0.000000 0.000000 -1.000000
    outer loop
      vertex -15.806865 -3.359853 0.000000
      vertex -8.080000 -13.994971 0.000000
      vertex -10.813151 -12.009220 0.000000
    endloop
  endfacet
  facet normal 0.000000 0.000000 -1.000000
    outer loop
      vertex -15.806865 -3.359853 0.000000
      vertex -10.813151 -12.009220 0.000000
      vertex -13.073715 -9.498610 0.000000
    endloop
  endfacet
  facet normal 0.000000 0.000000 -1.000000
    outer loop
      vertex -15.806865 -3.359853 0.000000
      vertex -13.073715 -9.498610 0.000000
      vertex -14.762895 -6.572864 0.000000
    endloop
  endfacet
  facet normal 0.000000 0.000000 -1.000000
    outer loop
      vertex -13.850570 -2.944030 0.000000
      vertex -15.806865 -3.359853 0.000000
      vertex -14.160000 0.000000 0.000000
    endloop
  endfacet
  facet normal 0.000000 0.000000 -1.000000
    outer loop
      vertex 7.080000 -12.262920 0.000000
      vertex 8.080000 -13.994971 0.000000
      vertex 4.375681 -13.466960 0.000000
    endloop
  endfacet
  facet normal 0.000000 0.000000 -1.000000
    outer loop
      vertex -12.935804 -5.759391 0.000000
      vertex -15.806865 -3.359853 0.000000
      vertex -13.850570 -2.944030 0.000000
    endloop
  endfacet
  facet normal 0.000000 0.000000 -1.000000
    outer loop
      vertex -11.455681 -8.323039 0.000000
      vertex -15.806865 -3.359853 0.000000
      vertex -12.935804 -5.759391 0.000000
    endloop
  endfacet
  facet normal 0.000000 0.000000 -1.000000
    outer loop
      vertex -7.080000 -12.262920 0.000000
      vertex -4.993715 -15.369073 0.000000
      vertex -9.474889 -10.522931 0.000000
    endloop
  endfacet
  facet normal 0.000000 0.000000 -1.000000
    outer loop
      vertex -15.806865 -3.359853 0.000000
      vertex -11.455681 -8.323039 0.000000
      vertex -8.080000 -13.994971 0.000000
    endloop
  endfacet
  facet normal 0.000000 0.000000 -1.000000
    outer loop
      vertex -11.455681 -8.323039 0.000000
      vertex -9.474889 -10.522931 0.000000
      vertex -8.080000 -13.994971 0.000000
    endloop
  endfacet
  facet normal 0.000000 0.000000 -1.000000
    outer loop
      vertex -1.480123 -14.082430 0.000000
      vertex 1.689180 -16.071474 0.000000
      vertex -4.375681 -13.466960 0.000000
    endloop
  endfacet
  facet normal 0.000000 0.000000 -1.000000
    outer loop
      vertex 1.480123 -14.082430 0.000000
      vertex 1.689180 -16.071474 0.000000
      vertex -1.480123 -14.082430 0.000000
    endloop
  endfacet
  facet normal 0.000000 0.000000 -1.000000
    outer loop
      vertex -4.375681 -13.466960 0.000000
      vertex -1.689180 -16.071474 0.000000
      vertex -7.080000 -12.262920 0.000000
    endloop
  endfacet
  facet normal -0.000000 0.000000 -1.000000
    outer loop
      vertex 13.850570 2.944030 0.000000
      vertex 15.806865 3.359853 0.000000
      vertex 14.160000 0.000000 0.000000
    endloop
  endfacet
  facet normal 0.000000 0.000000 -1.000000
    outer loop
      vertex 11.455681 8.323039 0.000000
      vertex 14.762895 6.572864 0.000000
      vertex 12.935804 5.759391 0.000000
    endloop
  endfacet
  facet normal 0.000000 0.000000 -1.000000
    outer loop
      vertex 12.935804 5.759391 0.000000
      vertex 15.806865 3.359853 0.000000
      vertex 13.850570 2.944030 0.000000
    endloop
  endfacet
  facet normal 0.000000 0.000000 -1.000000
    outer loop
      vertex 14.160000 0.000000 0.000000
      vertex 16.160000 0.000000 0.000000
      vertex 13.850570 -2.944030 0.000000
    endloop
  endfacet
  facet normal 0.000000 0.000000 -1.000000
    outer loop
      vertex 13.850570 -2.944030 0.000000
      vertex 15.806865 -3.359853 0.000000
      vertex 12.935804 -5.759391 0.000000
    endloop
  endfacet
  facet normal 0.000000 0.000000 -1.000000
    outer loop
      vertex 12.935804 -5.759391 0.000000
      vertex 14.762895 -6.572864 0.000000
      vertex 11.455681 -8.323039 0.000000
    endloop
  endfacet
  facet normal 0.000000 0.000000 -1.000000
    outer loop
      vertex 11.455681 -8.323039 0.000000
      vertex 13.073715 -9.498610 0.000000
      vertex 9.474889 -10.522931 0.000000
    endloop
  endfacet
  facet normal 0.000000 0.000000 -1.000000
    outer loop
      vertex 9.474889 -10.522931 0.000000
      vertex 10.813151 -12.009220 0.000000
      vertex 7.080000 -12.262920 0.000000
    endloop
  endfacet
  facet normal 0.000000 0.000000 -1.000000
    outer loop
      vertex -9.474889 10.522931 0.000000
      vertex -8.080000 13.994971 0.000000
      vertex -7.080000 12.262920 0.000000
    endloop
  endfacet
  facet normal 0.000000 0.000000 -1.000000
    outer loop
      vertex -11.455681 8.323039 0.000000
      vertex -8.080000 13.994971 0.000000
      vertex -9.474889 10.522931 0.000000
    endloop
  endfacet
  facet normal 0.000000 0.000000 -1.000000
    outer loop
      vertex -7.080000 12.262920 0.000000
      vertex -4.993715 15.369073 0.000000
      vertex -4.375681 13.466960 0.000000
    endloop
  endfacet
  facet normal 0.000000 0.000000 -1.000000
    outer loop
      vertex -13.850570 2.944030 0.000000
      vertex -13.073715 9.498610 0.000000
      vertex -12.935804 5.759391 0.000000
    endloop
  endfacet
  facet normal 0.000000 0.000000 -1.000000
    outer loop
      vertex -15.806865 -3.359853 0.000000
      vertex -13.073715 9.498610 0.000000
      vertex -13.850570 2.944030 0.000000
    endloop
  endfacet
  facet normal 0.000000 0.000000 -1.000000
    outer loop
      vertex -4.375681 13.466960 0.000000
      vertex -1.689180 16.071474 0.000000
      vertex -1.480123 14.082430 0.000000
    endloop
  endfacet
  facet normal 0.000000 -0.000000 -1.000000
    outer loop
      vertex -14.160000 0.000000 0.000000
      vertex -15.806865 -3.359853 0.000000
      vertex -13.850570 2.944030 0.000000
    endloop
  endfacet
  facet normal 0.000000 0.000000 -1.000000
    outer loop
      vertex -12.935804 5.759391 0.000000
      vertex -10.813151 12.009220 0.000000
      vertex -11.455681 8.323039 0.000000
    endloop
  endfacet
  facet normal -0.000000 0.000000 -1.000000
    outer loop
      vertex -1.480123 14.082430 0.000000
      vertex 1.689180 16.071474 0.000000
      vertex 1.480123 14.082430 0.000000
    endloop
  endfacet
  facet normal -0.000000 0.000000 -1.000000
    outer loop
      vertex 1.480123 14.082430 0.000000
      vertex 4.993715 15.369073 0.000000
      vertex 4.375681 13.466960 0.000000
    endloop
  endfacet
  facet normal -0.000000 0.000000 -1.000000
    outer loop
      vertex 4.375681 13.466960 0.000000
      vertex 8.080000 13.994971 0.000000
      vertex 7.080000 12.262920 0.000000
    endloop
  endfacet
  facet normal 0.000000 0.000000 -1.000000
    outer loop
      vertex 7.080000 12.262920 0.000000
      vertex 10.813151 12.009220 0.000000
      vertex 9.474889 10.522931 0.000000
    endloop
  endfacet
  facet normal 0.000000 0.000000 -1.000000
    outer loop
      vertex 9.474889 10.522931 0.000000
      vertex 13.073715 9.498610 0.000000
      vertex 11.455681 8.323039 0.000000
    endloop
  endfacet
  facet normal 0.000000 0.000000 -1.000000
    outer loop
      vertex 4.375681 -13.466960 0.000000
      vertex 4.993715 -15.369073 0.000000
      vertex 1.480123 -14.082430 0.000000
    endloop
  endfacet
  facet normal -0.994522 0.104528 0.000000
    outer loop
      vertex -16.160000 0.000000 0.000000
      vertex -16.160000 0.000000 5.000000
      vertex -15.806865 3.359853 0.000000
    endloop
  endfacet
  facet normal -0.994522 0.104528 0.000000
    outer loop
      vertex -15.806865 3.359853 0.000000
      vertex -16.160000 0.000000 5.000000
      vertex -15.806865 3.359853 5.000000
    endloop
  endfacet
  facet normal -0.994522 -0.104528 -0.000000
    outer loop
      vertex -16.160000 0.000000 0.000000
      vertex -15.806865 -3.359853 0.000000
      vertex -16.160000 0.000000 5.000000
    endloop
  endfacet
  facet normal -0.994522 -0.104528 0.000000
    outer loop
      vertex -16.160000 0.000000 5.000000
      vertex -15.806865 -3.359853 0.000000
      vertex -15.806865 -3.359853 5.000000
    endloop
  endfacet
  facet normal -0.951057 -0.309017 -0.000000
    outer loop
      vertex -15.806865 -3.359853 0.000000
      vertex -14.762895 -6.572864 0.000000
      vertex -15.806865 -3.359853 5.000000
    endloop
  endfacet
  facet normal -0.951057 -0.309017 0.000000
    outer loop
      vertex -15.806865 -3.359853 5.000000
      vertex -14.762895 -6.572864 0.000000
      vertex -14.762895 -6.572864 5.000000
    endloop
  endfacet
  facet normal -0.866025 -0.500000 -0.000000
    outer loop
      vertex -14.762895 -6.572864 0.000000
      vertex -13.073715 -9.498610 0.000000
      vertex -14.762895 -6.572864 5.000000
    endloop
  endfacet
  facet normal -0.866025 -0.500000 0.000000
    outer loop
      vertex -14.762895 -6.572864 5.000000
      vertex -13.073715 -9.498610 0.000000
      vertex -13.073715 -9.498610 5.000000
    endloop
  endfacet
  facet normal -0.743145 -0.669131 -0.000000
    outer loop
      vertex -13.073715 -9.498610 0.000000
      vertex -10.813151 -12.009220 0.000000
      vertex -13.073715 -9.498610 5.000000
    endloop
  endfacet
  facet normal -0.743145 -0.669131 0.000000
    outer loop
      vertex -13.073715 -9.498610 5.000000
      vertex -10.813151 -12.009220 0.000000
      vertex -10.813151 -12.009220 5.000000
    endloop
  endfacet
  facet normal -0.587785 -0.809017 0.000000
    outer loop
      vertex -10.813151 -12.009220 5.000000
      vertex -10.813151 -12.009220 0.000000
      vertex -8.080000 -13.994971 0.000000
    endloop
  endfacet
  facet normal -0.587785 -0.809017 0.000000
    outer loop
      vertex -8.080000 -13.994971 5.000000
      vertex -10.813151 -12.009220 5.000000
      vertex -8.080000 -13.994971 0.000000
    endloop
  endfacet
  facet normal -0.406737 -0.913545 0.000000
    outer loop
      vertex -8.080000 -13.994971 5.000000
      vertex -8.080000 -13.994971 0.000000
      vertex -4.993715 -15.369073 0.000000
    endloop
  endfacet
  facet normal -0.406737 -0.913545 0.000000
    outer loop
      vertex -4.993715 -15.369073 5.000000
      vertex -8.080000 -13.994971 5.000000
      vertex -4.993715 -15.369073 0.000000
    endloop
  endfacet
  facet normal -0.207912 -0.978148 0.000000
    outer loop
      vertex -4.993715 -15.369073 5.000000
      vertex -4.993715 -15.369073 0.000000
      vertex -1.689180 -16.071474 0.000000
    endloop
  endfacet
  facet normal -0.207912 -0.978148 0.000000
    outer loop
      vertex -1.689180 -16.071474 5.000000
      vertex -4.993715 -15.369073 5.000000
      vertex -1.689180 -16.071474 0.000000
    endloop
  endfacet
  facet normal 0.000000 -1.000000 0.000000
    outer loop
      vertex -1.689180 -16.071474 5.000000
      vertex -1.689180 -16.071474 0.000000
      vertex 1.689180 -16.071474 0.000000
    endloop
  endfacet
  facet normal 0.000000 -1.000000 0.000000
    outer loop
      vertex 1.689180 -16.071474 5.000000
      vertex -1.689180 -16.071474 5.000000
      vertex 1.689180 -16.071474 0.000000
    endloop
  endfacet
  facet normal 0.207912 -0.978148 0.000000
    outer loop
      vertex 1.689180 -16.071474 5.000000
      vertex 1.689180 -16.071474 0.000000
      vertex 4.993715 -15.369073 0.000000
    endloop
  endfacet
  facet normal 0.207912 -0.978148 0.000000
    outer loop
      vertex 4.993715 -15.369073 5.000000
      vertex 1.689180 -16.071474 5.000000
      vertex 4.993715 -15.369073 0.000000
    endloop
  endfacet
  facet normal 0.406737 -0.913545 0.000000
    outer loop
      vertex 4.993715 -15.369073 5.000000
      vertex 4.993715 -15.369073 0.000000
      vertex 8.080000 -13.994971 0.000000
    endloop
  endfacet
  facet normal 0.406737 -0.913545 0.000000
    outer loop
      vertex 8.080000 -13.994971 5.000000
      vertex 4.993715 -15.369073 5.000000
      vertex 8.080000 -13.994971 0.000000
    endloop
  endfacet
  facet normal 0.587785 -0.809017 0.000000
    outer loop
      vertex 8.080000 -13.994971 5.000000
      vertex 8.080000 -13.994971 0.000000
      vertex 10.813151 -12.009220 0.000000
    endloop
  endfacet
  facet normal 0.587785 -0.809017 0.000000
    outer loop
      vertex 10.813151 -12.009220 5.000000
      vertex 8.080000 -13.994971 5.000000
      vertex 10.813151 -12.009220 0.000000
    endloop
  endfacet
  facet normal 0.743145 -0.669131 0.000000
    outer loop
      vertex 10.813151 -12.009220 5.000000
      vertex 10.813151 -12.009220 0.000000
      vertex 13.073715 -9.498610 0.000000
    endloop
  endfacet
  facet normal 0.743145 -0.669131 0.000000
    outer loop
      vertex 13.073715 -9.498610 5.000000
      vertex 10.813151 -12.009220 5.000000
      vertex 13.073715 -9.498610 0.000000
    endloop
  endfacet
  facet normal 0.866025 -0.500000 0.000000
    outer loop
      vertex 13.073715 -9.498610 5.000000
      vertex 13.073715 -9.498610 0.000000
      vertex 14.762895 -6.572864 0.000000
    endloop
  endfacet
  facet normal 0.866025 -0.500000 0.000000
    outer loop
      vertex 14.762895 -6.572864 5.000000
      vertex 13.073715 -9.498610 5.000000
      vertex 14.762895 -6.572864 0.000000
    endloop
  endfacet
  facet normal 0.951057 -0.309017 0.000000
    outer loop
      vertex 14.762895 -6.572864 5.000000
      vertex 14.762895 -6.572864 0.000000
      vertex 15.806865 -3.359853 0.000000
    endloop
  endfacet
  facet normal 0.951057 -0.309017 0.000000
    outer loop
      vertex 15.806865 -3.359853 5.000000
      vertex 14.762895 -6.572864 5.000000
      vertex 15.806865 -3.359853 0.000000
    endloop
  endfacet
  facet normal 0.994522 -0.104528 0.000000
    outer loop
      vertex 15.806865 -3.359853 5.000000
      vertex 15.806865 -3.359853 0.000000
      vertex 16.160000 0.000000 0.000000
    endloop
  endfacet
  facet normal 0.994522 -0.104528 0.000000
    outer loop
      vertex 16.160000 0.000000 5.000000
      vertex 15.806865 -3.359853 5.000000
      vertex 16.160000 0.000000 0.000000
    endloop
  endfacet
  facet normal 0.994522 0.104528 0.000000
    outer loop
      vertex 16.160000 0.000000 0.000000
      vertex 15.806865 3.359853 0.000000
      vertex 15.806865 3.359853 5.000000
    endloop
  endfacet
  facet normal 0.994522 0.104528 -0.000000
    outer loop
      vertex 16.160000 0.000000 5.000000
      vertex 16.160000 0.000000 0.000000
      vertex 15.806865 3.359853 5.000000
    endloop
  endfacet
  facet normal 0.951057 0.309017 0.000000
    outer loop
      vertex 15.806865 3.359853 0.000000
      vertex 14.762895 6.572864 0.000000
      vertex 14.762895 6.572864 5.000000
    endloop
  endfacet
  facet normal 0.951057 0.309017 -0.000000
    outer loop
      vertex 15.806865 3.359853 5.000000
      vertex 15.806865 3.359853 0.000000
      vertex 14.762895 6.572864 5.000000
    endloop
  endfacet
  facet normal 0.866025 0.500000 0.000000
    outer loop
      vertex 14.762895 6.572864 0.000000
      vertex 13.073715 9.498610 0.000000
      vertex 13.073715 9.498610 5.000000
    endloop
  endfacet
  facet normal 0.866025 0.500000 -0.000000
    outer loop
      vertex 14.762895 6.572864 5.000000
      vertex 14.762895 6.572864 0.000000
      vertex 13.073715 9.498610 5.000000
    endloop
  endfacet
  facet normal 0.743145 0.669131 0.000000
    outer loop
      vertex 13.073715 9.498610 0.000000
      vertex 10.813151 12.009220 0.000000
      vertex 10.813151 12.009220 5.000000
    endloop
  endfacet
  facet normal 0.743145 0.669131 -0.000000
    outer loop
      vertex 13.073715 9.498610 5.000000
      vertex 13.073715 9.498610 0.000000
      vertex 10.813151 12.009220 5.000000
    endloop
  endfacet
  facet normal 0.587785 0.809017 0.000000
    outer loop
      vertex 8.080000 13.994971 0.000000
      vertex 8.080000 13.994971 5.000000
      vertex 10.813151 12.009220 0.000000
    endloop
  endfacet
  facet normal 0.587785 0.809017 0.000000
    outer loop
      vertex 10.813151 12.009220 0.000000
      vertex 8.080000 13.994971 5.000000
      vertex 10.813151 12.009220 5.000000
    endloop
  endfacet
  facet normal 0.406737 0.913545 0.000000
    outer loop
      vertex 4.993715 15.369073 0.000000
      vertex 4.993715 15.369073 5.000000
      vertex 8.080000 13.994971 0.000000
    endloop
  endfacet
  facet normal 0.406737 0.913545 0.000000
    outer loop
      vertex 8.080000 13.994971 0.000000
      vertex 4.993715 15.369073 5.000000
      vertex 8.080000 13.994971 5.000000
    endloop
  endfacet
  facet normal 0.207912 0.978148 0.000000
    outer loop
      vertex 1.689180 16.071474 0.000000
      vertex 1.689180 16.071474 5.000000
      vertex 4.993715 15.369073 0.000000
    endloop
  endfacet
  facet normal 0.207912 0.978148 0.000000
    outer loop
      vertex 4.993715 15.369073 0.000000
      vertex 1.689180 16.071474 5.000000
      vertex 4.993715 15.369073 5.000000
    endloop
  endfacet
  facet normal 0.000000 1.000000 0.000000
    outer loop
      vertex -1.689180 16.071474 0.000000
      vertex -1.689180 16.071474 5.000000
      vertex 1.689180 16.071474 0.000000
    endloop
  endfacet
  facet normal 0.000000 1.000000 0.000000
    outer loop
      vertex 1.689180 16.071474 0.000000
      vertex -1.689180 16.071474 5.000000
      vertex 1.689180 16.071474 5.000000
    endloop
  endfacet
  facet normal -0.207912 0.978148 0.000000
    outer loop
      vertex -4.993715 15.369073 0.000000
      vertex -4.993715 15.369073 5.000000
      vertex -1.689180 16.071474 0.000000
    endloop
  endfacet
  facet normal -0.207912 0.978148 0.000000
    outer loop
      vertex -1.689180 16.071474 0.000000
      vertex -4.993715 15.369073 5.000000
      vertex -1.689180 16.071474 5.000000
    endloop
  endfacet
  facet normal -0.406737 0.913545 0.000000
    outer loop
      vertex -8.080000 13.994971 0.000000
      vertex -8.080000 13.994971 5.000000
      vertex -4.993715 15.369073 0.000000
    endloop
  endfacet
  facet normal -0.406737 0.913545 0.000000
    outer loop
      vertex -4.993715 15.369073 0.000000
      vertex -8.080000 13.994971 5.000000
      vertex -4.993715 15.369073 5.000000
    endloop
  endfacet
  facet normal -0.587785 0.809017 0.000000
    outer loop
      vertex -10.813151 12.009220 0.000000
      vertex -10.813151 12.009220 5.000000
      vertex -8.080000 13.994971 0.000000
    endloop
  endfacet
  facet normal -0.587785 0.809017 0.000000
    outer loop
      vertex -8.080000 13.994971 0.000000
      vertex -10.813151 12.009220 5.000000
      vertex -8.080000 13.994971 5.000000
    endloop
  endfacet
  facet normal -0.743145 0.669131 0.000000
    outer loop
      vertex -13.073715 9.498610 0.000000
      vertex -13.073715 9.498610 5.000000
      vertex -10.813151 12.009220 0.000000
    endloop
  endfacet
  facet normal -0.743145 0.669131 0.000000
    outer loop
      vertex -10.813151 12.009220 0.000000
      vertex -13.073715 9.498610 5.000000
      vertex -10.813151 12.009220 5.000000
    endloop
  endfacet
  facet normal -0.866025 0.500000 0.000000
    outer loop
      vertex -14.762895 6.572864 0.000000
      vertex -14.762895 6.572864 5.000000
      vertex -13.073715 9.498610 0.000000
    endloop
  endfacet
  facet normal -0.866025 0.500000 0.000000
    outer loop
      vertex -13.073715 9.498610 0.000000
      vertex -14.762895 6.572864 5.000000
      vertex -13.073715 9.498610 5.000000
    endloop
  endfacet
  facet normal -0.951057 0.309017 0.000000
    outer loop
      vertex -15.806865 3.359853 0.000000
      vertex -15.806865 3.359853 5.000000
      vertex -14.762895 6.572864 0.000000
    endloop
  endfacet
  facet normal -0.951057 0.309017 0.000000
    outer loop
      vertex -14.762895 6.572864 0.000000
      vertex -15.806865 3.359853 5.000000
      vertex -14.762895 6.572864 5.000000
    endloop
  endfacet
  facet normal 0.994522 -0.104528 0.000000
    outer loop
      vertex -13.850570 2.944030 0.000000
      vertex -13.850570 2.944030 5.000000
      vertex -14.160000 0.000000 5.000000
    endloop
  endfacet
  facet normal 0.994522 -0.104528 0.000000
    outer loop
      vertex -14.160000 0.000000 0.000000
      vertex -13.850570 2.944030 0.000000
      vertex -14.160000 0.000000 5.000000
    endloop
  endfacet
  facet normal 0.994522 0.104528 0.000000
    outer loop
      vertex -14.160000 0.000000 5.000000
      vertex -13.850570 -2.944030 5.000000
      vertex -13.850570 -2.944030 0.000000
    endloop
  endfacet
  facet normal 0.994522 0.104528 0.000000
    outer loop
      vertex -14.160000 0.000000 0.000000
      vertex -14.160000 0.000000 5.000000
      vertex -13.850570 -2.944030 0.000000
    endloop
  endfacet
  facet normal 0.951057 -0.309017 0.000000
    outer loop
      vertex -12.935804 5.759391 0.000000
      vertex -12.935804 5.759391 5.000000
      vertex -13.850570 2.944030 5.000000
    endloop
  endfacet
  facet normal 0.951057 -0.309017 0.000000
    outer loop
      vertex -13.850570 2.944030 0.000000
      vertex -12.935804 5.759391 0.000000
      vertex -13.850570 2.944030 5.000000
    endloop
  endfacet
  facet normal 0.866025 -0.500000 0.000000
    outer loop
      vertex -11.455681 8.323039 0.000000
      vertex -11.455681 8.323039 5.000000
      vertex -12.935804 5.759391 5.000000
    endloop
  endfacet
  facet normal 0.866025 -0.500000 0.000000
    outer loop
      vertex -12.935804 5.759391 0.000000
      vertex -11.455681 8.323039 0.000000
      vertex -12.935804 5.759391 5.000000
    endloop
  endfacet
  facet normal 0.743145 -0.669131 0.000000
    outer loop
      vertex -9.474889 10.522931 0.000000
      vertex -9.474889 10.522931 5.000000
      vertex -11.455681 8.323039 5.000000
    endloop
  endfacet
  facet normal 0.743145 -0.669131 0.000000
    outer loop
      vertex -11.455681 8.323039 0.000000
      vertex -9.474889 10.522931 0.000000
      vertex -11.455681 8.323039 5.000000
    endloop
  endfacet
  facet normal 0.587785 -0.809017 0.000000
    outer loop
      vertex -7.080000 12.262920 0.000000
      vertex -7.080000 12.262920 5.000000
      vertex -9.474889 10.522931 5.000000
    endloop
  endfacet
  facet normal 0.587785 -0.809017 0.000000
    outer loop
      vertex -9.474889 10.522931 0.000000
      vertex -7.080000 12.262920 0.000000
      vertex -9.474889 10.522931 5.000000
    endloop
  endfacet
  facet normal 0.406737 -0.913545 0.000000
    outer loop
      vertex -4.375681 13.466960 0.000000
      vertex -4.375681 13.466960 5.000000
      vertex -7.080000 12.262920 5.000000
    endloop
  endfacet
  facet normal 0.406737 -0.913545 0.000000
    outer loop
      vertex -7.080000 12.262920 0.000000
      vertex -4.375681 13.466960 0.000000
      vertex -7.080000 12.262920 5.000000
    endloop
  endfacet
  facet normal 0.207912 -0.978148 0.000000
    outer loop
      vertex -1.480123 14.082430 0.000000
      vertex -1.480123 14.082430 5.000000
      vertex -4.375681 13.466960 5.000000
    endloop
  endfacet
  facet normal 0.207912 -0.978148 0.000000
    outer loop
      vertex -4.375681 13.466960 0.000000
      vertex -1.480123 14.082430 0.000000
      vertex -4.375681 13.466960 5.000000
    endloop
  endfacet
  facet normal 0.000000 -1.000000 0.000000
    outer loop
      vertex 1.480123 14.082430 0.000000
      vertex 1.480123 14.082430 5.000000
      vertex -1.480123 14.082430 5.000000
    endloop
  endfacet
  facet normal -0.000000 -1.000000 -0.000000
    outer loop
      vertex -1.480123 14.082430 0.000000
      vertex 1.480123 14.082430 0.000000
      vertex -1.480123 14.082430 5.000000
    endloop
  endfacet
  facet normal -0.207912 -0.978148 -0.000000
    outer loop
      vertex 4.375681 13.466960 0.000000
      vertex 4.375681 13.466960 5.000000
      vertex 1.480123 14.082430 5.000000
    endloop
  endfacet
  facet normal -0.207912 -0.978148 -0.000000
    outer loop
      vertex 1.480123 14.082430 0.000000
      vertex 4.375681 13.466960 0.000000
      vertex 1.480123 14.082430 5.000000
    endloop
  endfacet
  facet normal -0.406737 -0.913545 -0.000000
    outer loop
      vertex 7.080000 12.262920 0.000000
      vertex 7.080000 12.262920 5.000000
      vertex 4.375681 13.466960 5.000000
    endloop
  endfacet
  facet normal -0.406737 -0.913545 -0.000000
    outer loop
      vertex 4.375681 13.466960 0.000000
      vertex 7.080000 12.262920 0.000000
      vertex 4.375681 13.466960 5.000000
    endloop
  endfacet
  facet normal -0.587785 -0.809017 -0.000000
    outer loop
      vertex 9.474889 10.522931 0.000000
      vertex 9.474889 10.522931 5.000000
      vertex 7.080000 12.262920 5.000000
    endloop
  endfacet
  facet normal -0.587785 -0.809017 -0.000000
    outer loop
      vertex 7.080000 12.262920 0.000000
      vertex 9.474889 10.522931 0.000000
      vertex 7.080000 12.262920 5.000000
    endloop
  endfacet
  facet normal -0.743145 -0.669131 0.000000
    outer loop
      vertex 11.455681 8.323039 5.000000
      vertex 9.474889 10.522931 5.000000
      vertex 11.455681 8.323039 0.000000
    endloop
  endfacet
  facet normal -0.743145 -0.669131 0.000000
    outer loop
      vertex 11.455681 8.323039 0.000000
      vertex 9.474889 10.522931 5.000000
      vertex 9.474889 10.522931 0.000000
    endloop
  endfacet
  facet normal -0.866025 -0.500000 0.000000
    outer loop
      vertex 12.935804 5.759391 5.000000
      vertex 11.455681 8.323039 5.000000
      vertex 12.935804 5.759391 0.000000
    endloop
  endfacet
  facet normal -0.866025 -0.500000 0.000000
    outer loop
      vertex 12.935804 5.759391 0.000000
      vertex 11.455681 8.323039 5.000000
      vertex 11.455681 8.323039 0.000000
    endloop
  endfacet
  facet normal -0.951057 -0.309017 0.000000
    outer loop
      vertex 13.850570 2.944030 5.000000
      vertex 12.935804 5.759391 5.000000
      vertex 13.850570 2.944030 0.000000
    endloop
  endfacet
  facet normal -0.951057 -0.309017 0.000000
    outer loop
      vertex 13.850570 2.944030 0.000000
      vertex 12.935804 5.759391 5.000000
      vertex 12.935804 5.759391 0.000000
    endloop
  endfacet
  facet normal -0.994522 -0.104528 0.000000
    outer loop
      vertex 14.160000 0.000000 5.000000
      vertex 13.850570 2.944030 5.000000
      vertex 14.160000 0.000000 0.000000
    endloop
  endfacet
  facet normal -0.994522 -0.104528 0.000000
    outer loop
      vertex 14.160000 0.000000 0.000000
      vertex 13.850570 2.944030 5.000000
      vertex 13.850570 2.944030 0.000000
    endloop
  endfacet
  facet normal -0.994522 0.104528 0.000000
    outer loop
      vertex 14.160000 0.000000 5.000000
      vertex 14.160000 0.000000 0.000000
      vertex 13.850570 -2.944030 5.000000
    endloop
  endfacet
  facet normal -0.994522 0.104528 0.000000
    outer loop
      vertex 13.850570 -2.944030 5.000000
      vertex 14.160000 0.000000 0.000000
      vertex 13.850570 -2.944030 0.000000
    endloop
  endfacet
  facet normal -0.951057 0.309017 0.000000
    outer loop
      vertex 13.850570 -2.944030 5.000000
      vertex 13.850570 -2.944030 0.000000
      vertex 12.935804 -5.759391 5.000000
    endloop
  endfacet
  facet normal -0.951057 0.309017 0.000000
    outer loop
      vertex 12.935804 -5.759391 5.000000
      vertex 13.850570 -2.944030 0.000000
      vertex 12.935804 -5.759391 0.000000
    endloop
  endfacet
  facet normal -0.866025 0.500000 0.000000
    outer loop
      vertex 12.935804 -5.759391 5.000000
      vertex 12.935804 -5.759391 0.000000
      vertex 11.455681 -8.323039 5.000000
    endloop
  endfacet
  facet normal -0.866025 0.500000 0.000000
    outer loop
      vertex 11.455681 -8.323039 5.000000
      vertex 12.935804 -5.759391 0.000000
      vertex 11.455681 -8.323039 0.000000
    endloop
  endfacet
  facet normal -0.743145 0.669131 0.000000
    outer loop
      vertex 11.455681 -8.323039 5.000000
      vertex 11.455681 -8.323039 0.000000
      vertex 9.474889 -10.522931 5.000000
    endloop
  endfacet
  facet normal -0.743145 0.669131 0.000000
    outer loop
      vertex 9.474889 -10.522931 5.000000
      vertex 11.455681 -8.323039 0.000000
      vertex 9.474889 -10.522931 0.000000
    endloop
  endfacet
  facet normal -0.587785 0.809017 0.000000
    outer loop
      vertex 9.474889 -10.522931 5.000000
      vertex 9.474889 -10.522931 0.000000
      vertex 7.080000 -12.262920 5.000000
    endloop
  endfacet
  facet normal -0.587785 0.809017 0.000000
    outer loop
      vertex 7.080000 -12.262920 5.000000
      vertex 9.474889 -10.522931 0.000000
      vertex 7.080000 -12.262920 0.000000
    endloop
  endfacet
  facet normal -0.406737 0.913545 0.000000
    outer loop
      vertex 7.080000 -12.262920 5.000000
      vertex 7.080000 -12.262920 0.000000
      vertex 4.375681 -13.466960 5.000000
    endloop
  endfacet
  facet normal -0.406737 0.913545 0.000000
    outer loop
      vertex 4.375681 -13.466960 5.000000
      vertex 7.080000 -12.262920 0.000000
      vertex 4.375681 -13.466960 0.000000
    endloop
  endfacet
  facet normal -0.207912 0.978148 0.000000
    outer loop
      vertex 4.375681 -13.466960 5.000000
      vertex 4.375681 -13.466960 0.000000
      vertex 1.480123 -14.082430 5.000000
    endloop
  endfacet
  facet normal -0.207912 0.978148 0.000000
    outer loop
      vertex 1.480123 -14.082430 5.000000
      vertex 4.375681 -13.466960 0.000000
      vertex 1.480123 -14.082430 0.000000
    endloop
  endfacet
  facet normal 0.000000 1.000000 0.000000
    outer loop
      vertex 1.480123 -14.082430 5.000000
      vertex 1.480123 -14.082430 0.000000
      vertex -1.480123 -14.082430 5.000000
    endloop
  endfacet
  facet normal 0.000000 1.000000 -0.000000
    outer loop
      vertex -1.480123 -14.082430 5.000000
      vertex 1.480123 -14.082430 0.000000
      vertex -1.480123 -14.082430 0.000000
    endloop
  endfacet
  facet normal 0.207912 0.978148 -0.000000
    outer loop
      vertex -1.480123 -14.082430 5.000000
      vertex -1.480123 -14.082430 0.000000
      vertex -4.375681 -13.466960 5.000000
    endloop
  endfacet
  facet normal 0.207912 0.978148 -0.000000
    outer loop
      vertex -4.375681 -13.466960 5.000000
      vertex -1.480123 -14.082430 0.000000
      vertex -4.375681 -13.466960 0.000000
    endloop
  endfacet
  facet normal 0.406737 0.913545 -0.000000
    outer loop
      vertex -4.375681 -13.466960 5.000000
      vertex -4.375681 -13.466960 0.000000
      vertex -7.080000 -12.262920 5.000000
    endloop
  endfacet
  facet normal 0.406737 0.913545 -0.000000
    outer loop
      vertex -7.080000 -12.262920 5.000000
      vertex -4.375681 -13.466960 0.000000
      vertex -7.080000 -12.262920 0.000000
    endloop
  endfacet
  facet normal 0.587785 0.809017 -0.000000
    outer loop
      vertex -7.080000 -12.262920 5.000000
      vertex -7.080000 -12.262920 0.000000
      vertex -9.474889 -10.522931 5.000000
    endloop
  endfacet
  facet normal 0.587785 0.809017 -0.000000
    outer loop
      vertex -9.474889 -10.522931 5.000000
      vertex -7.080000 -12.262920 0.000000
      vertex -9.474889 -10.522931 0.000000
    endloop
  endfacet
  facet normal 0.743145 0.669131 0.000000
    outer loop
      vertex -11.455681 -8.323039 5.000000
      vertex -9.474889 -10.522931 5.000000
      vertex -9.474889 -10.522931 0.000000
    endloop
  endfacet
  facet normal 0.743145 0.669131 0.000000
    outer loop
      vertex -11.455681 -8.323039 0.000000
      vertex -11.455681 -8.323039 5.000000
      vertex -9.474889 -10.522931 0.000000
    endloop
  endfacet
  facet normal 0.866025 0.500000 0.000000
    outer loop
      vertex -12.935804 -5.759391 5.000000
      vertex -11.455681 -8.323039 5.000000
      vertex -11.455681 -8.323039 0.000000
    endloop
  endfacet
  facet normal 0.866025 0.500000 0.000000
    outer loop
      vertex -12.935804 -5.759391 0.000000
      vertex -12.935804 -5.759391 5.000000
      vertex -11.455681 -8.323039 0.000000
    endloop
  endfacet
  facet normal 0.951057 0.309017 0.000000
    outer loop
      vertex -13.850570 -2.944030 5.000000
      vertex -12.935804 -5.759391 5.000000
      vertex -12.935804 -5.759391 0.000000
    endloop
  endfacet
  facet normal 0.951057 0.309017 0.000000
    outer loop
      vertex -13.850570 -2.944030 0.000000
      vertex -13.850570 -2.944030 5.000000
      vertex -12.935804 -5.759391 0.000000
    endloop
  endfacet
  facet normal 0.000000 0.000000 1.000000
    outer loop
      vertex -15.806865 3.359853 5.000000
      vertex -16.160000 0.000000 5.000000
      vertex -15.806865 -3.359853 5.000000
    endloop
  endfacet
  facet normal 0.000000 0.000000 1.000000
    outer loop
      vertex -13.073715 -9.498610 5.000000
      vertex -15.806865 3.359853 5.000000
      vertex -14.762895 -6.572864 5.000000
    endloop
  endfacet
  facet normal 0.000000 0.000000 1.000000
    outer loop
      vertex -14.762895 -6.572864 5.000000
      vertex -15.806865 3.359853 5.000000
      vertex -15.806865 -3.359853 5.000000
    endloop
  endfacet
  facet normal -0.000000 -0.000000 1.000000
    outer loop
      vertex -13.850570 -2.944030 5.000000
      vertex -15.806865 3.359853 5.000000
      vertex -13.073715 -9.498610 5.000000
    endloop
  endfacet
  facet normal 0.000000 0.000000 1.000000
    outer loop
      vertex -1.480123 14.082430 5.000000
      vertex 1.480123 14.082430 5.000000
      vertex 1.689180 16.071474 5.000000
    endloop
  endfacet
  facet normal 0.000000 0.000000 1.000000
    outer loop
      vertex -7.080000 12.262920 5.000000
      vertex -4.375681 13.466960 5.000000
      vertex -1.689180 16.071474 5.000000
    endloop
  endfacet
  facet normal 0.000000 -0.000000 1.000000
    outer loop
      vertex -10.813151 12.009220 5.000000
      vertex -15.806865 3.359853 5.000000
      vertex -8.080000 13.994971 5.000000
    endloop
  endfacet
  facet normal 0.000000 -0.000000 1.000000
    outer loop
      vertex -13.073715 9.498610 5.000000
      vertex -15.806865 3.359853 5.000000
      vertex -10.813151 12.009220 5.000000
    endloop
  endfacet
  facet normal 0.000000 -0.000000 1.000000
    outer loop
      vertex -14.762895 6.572864 5.000000
      vertex -15.806865 3.359853 5.000000
      vertex -13.073715 9.498610 5.000000
    endloop
  endfacet
  facet normal -0.000000 0.000000 1.000000
    outer loop
      vertex -12.935804 -5.759391 5.000000
      vertex -13.850570 -2.944030 5.000000
      vertex -13.073715 -9.498610 5.000000
    endloop
  endfacet
  facet normal 0.000000 -0.000000 1.000000
    outer loop
      vertex 7.080000 -12.262920 5.000000
      vertex 4.375681 -13.466960 5.000000
      vertex 8.080000 -13.994971 5.000000
    endloop
  endfacet
  facet normal 0.000000 -0.000000 1.000000
    outer loop
      vertex 11.455681 -8.323039 5.000000
      vertex 9.474889 -10.522931 5.000000
      vertex 13.073715 -9.498610 5.000000
    endloop
  endfacet
  facet normal 0.000000 0.000000 1.000000
    outer loop
      vertex 1.480123 14.082430 5.000000
      vertex 4.375681 13.466960 5.000000
      vertex 4.993715 15.369073 5.000000
    endloop
  endfacet
  facet normal 0.000000 0.000000 1.000000
    outer loop
      vertex -8.080000 13.994971 5.000000
      vertex -15.806865 3.359853 5.000000
      vertex -11.455681 8.323039 5.000000
    endloop
  endfacet
  facet normal 0.000000 -0.000000 1.000000
    outer loop
      vertex -8.080000 13.994971 5.000000
      vertex -9.474889 10.522931 5.000000
      vertex -4.993715 15.369073 5.000000
    endloop
  endfacet
  facet normal 0.000000 0.000000 1.000000
    outer loop
      vertex -8.080000 13.994971 5.000000
      vertex -11.455681 8.323039 5.000000
      vertex -9.474889 10.522931 5.000000
    endloop
  endfacet
  facet normal 0.000000 -0.000000 1.000000
    outer loop
      vertex -4.993715 15.369073 5.000000
      vertex -7.080000 12.262920 5.000000
      vertex -1.689180 16.071474 5.000000
    endloop
  endfacet
  facet normal 0.000000 0.000000 1.000000
    outer loop
      vertex -9.474889 10.522931 5.000000
      vertex -7.080000 12.262920 5.000000
      vertex -4.993715 15.369073 5.000000
    endloop
  endfacet
  facet normal 0.000000 -0.000000 1.000000
    outer loop
      vertex -1.689180 16.071474 5.000000
      vertex -4.375681 13.466960 5.000000
      vertex 1.689180 16.071474 5.000000
    endloop
  endfacet
  facet normal 0.000000 0.000000 1.000000
    outer loop
      vertex -4.375681 13.466960 5.000000
      vertex -1.480123 14.082430 5.000000
      vertex 1.689180 16.071474 5.000000
    endloop
  endfacet
  facet normal 0.000000 -0.000000 1.000000
    outer loop
      vertex 1.689180 16.071474 5.000000
      vertex 1.480123 14.082430 5.000000
      vertex 4.993715 15.369073 5.000000
    endloop
  endfacet
  facet normal -0.000000 0.000000 1.000000
    outer loop
      vertex -4.375681 -13.466960 5.000000
      vertex -7.080000 -12.262920 5.000000
      vertex -4.993715 -15.369073 5.000000
    endloop
  endfacet
  facet normal 0.000000 -0.000000 1.000000
    outer loop
      vertex 4.993715 15.369073 5.000000
      vertex 4.375681 13.466960 5.000000
      vertex 8.080000 13.994971 5.000000
    endloop
  endfacet
  facet normal -0.000000 0.000000 1.000000
    outer loop
      vertex -12.935804 5.759391 5.000000
      vertex -11.455681 8.323039 5.000000
      vertex -15.806865 3.359853 5.000000
    endloop
  endfacet
  facet normal 0.000000 -0.000000 1.000000
    outer loop
      vertex 8.080000 13.994971 5.000000
      vertex 7.080000 12.262920 5.000000
      vertex 10.813151 12.009220 5.000000
    endloop
  endfacet
  facet normal 0.000000 -0.000000 1.000000
    outer loop
      vertex 10.813151 12.009220 5.000000
      vertex 9.474889 10.522931 5.000000
      vertex 13.073715 9.498610 5.000000
    endloop
  endfacet
  facet normal 0.000000 -0.000000 1.000000
    outer loop
      vertex 13.073715 9.498610 5.000000
      vertex 11.455681 8.323039 5.000000
      vertex 14.762895 6.572864 5.000000
    endloop
  endfacet
  facet normal 0.000000 -0.000000 1.000000
    outer loop
      vertex 14.762895 6.572864 5.000000
      vertex 12.935804 5.759391 5.000000
      vertex 15.806865 3.359853 5.000000
    endloop
  endfacet
  facet normal 0.000000 -0.000000 1.000000
    outer loop
      vertex 15.806865 3.359853 5.000000
      vertex 13.850570 2.944030 5.000000
      vertex 16.160000 0.000000 5.000000
    endloop
  endfacet
  facet normal 0.000000 0.000000 1.000000
    outer loop
      vertex 16.160000 0.000000 5.000000
      vertex 14.160000 0.000000 5.000000
      vertex 15.806865 -3.359853 5.000000
    endloop
  endfacet
  facet normal 0.000000 -0.000000 1.000000
    outer loop
      vertex 14.160000 0.000000 5.000000
      vertex 13.850570 -2.944030 5.000000
      vertex 15.806865 -3.359853 5.000000
    endloop
  endfacet
  facet normal 0.000000 0.000000 1.000000
    outer loop
      vertex 15.806865 -3.359853 5.000000
      vertex 12.935804 -5.759391 5.000000
      vertex 14.762895 -6.572864 5.000000
    endloop
  endfacet
  facet normal 0.000000 0.000000 1.000000
    outer loop
      vertex 14.762895 -6.572864 5.000000
      vertex 11.455681 -8.323039 5.000000
      vertex 13.073715 -9.498610 5.000000
    endloop
  endfacet
  facet normal 0.000000 0.000000 1.000000
    outer loop
      vertex 4.375681 13.466960 5.000000
      vertex 7.080000 12.262920 5.000000
      vertex 8.080000 13.994971 5.000000
    endloop
  endfacet
  facet normal 0.000000 0.000000 1.000000
    outer loop
      vertex 13.073715 -9.498610 5.000000
      vertex 9.474889 -10.522931 5.000000
      vertex 10.813151 -12.009220 5.000000
    endloop
  endfacet
  facet normal 0.000000 0.000000 1.000000
    outer loop
      vertex 7.080000 12.262920 5.000000
      vertex 9.474889 10.522931 5.000000
      vertex 10.813151 12.009220 5.000000
    endloop
  endfacet
  facet normal 0.000000 0.000000 1.000000
    outer loop
      vertex 10.813151 -12.009220 5.000000
      vertex 7.080000 -12.262920 5.000000
      vertex 8.080000 -13.994971 5.000000
    endloop
  endfacet
  facet normal 0.000000 0.000000 1.000000
    outer loop
      vertex 9.474889 10.522931 5.000000
      vertex 11.455681 8.323039 5.000000
      vertex 13.073715 9.498610 5.000000
    endloop
  endfacet
  facet normal -0.000000 0.000000 1.000000
    outer loop
      vertex 8.080000 -13.994971 5.000000
      vertex 4.375681 -13.466960 5.000000
      vertex 4.993715 -15.369073 5.000000
    endloop
  endfacet
  facet normal 0.000000 0.000000 1.000000
    outer loop
      vertex 11.455681 8.323039 5.000000
      vertex 12.935804 5.759391 5.000000
      vertex 14.762895 6.572864 5.000000
    endloop
  endfacet
  facet normal -0.000000 0.000000 1.000000
    outer loop
      vertex 4.993715 -15.369073 5.000000
      vertex 1.480123 -14.082430 5.000000
      vertex 1.689180 -16.071474 5.000000
    endloop
  endfacet
  facet normal 0.000000 0.000000 1.000000
    outer loop
      vertex 12.935804 5.759391 5.000000
      vertex 13.850570 2.944030 5.000000
      vertex 15.806865 3.359853 5.000000
    endloop
  endfacet
  facet normal -0.000000 0.000000 1.000000
    outer loop
      vertex 1.689180 -16.071474 5.000000
      vertex -1.480123 -14.082430 5.000000
      vertex -1.689180 -16.071474 5.000000
    endloop
  endfacet
  facet normal 0.000000 0.000000 1.000000
    outer loop
      vertex 13.850570 2.944030 5.000000
      vertex 14.160000 0.000000 5.000000
      vertex 16.160000 0.000000 5.000000
    endloop
  endfacet
  facet normal 0.000000 0.000000 1.000000
    outer loop
      vertex -1.689180 -16.071474 5.000000
      vertex -4.375681 -13.466960 5.000000
      vertex -4.993715 -15.369073 5.000000
    endloop
  endfacet
  facet normal 0.000000 -0.000000 1.000000
    outer loop
      vertex 13.850570 -2.944030 5.000000
      vertex 12.935804 -5.759391 5.000000
      vertex 15.806865 -3.359853 5.000000
    endloop
  endfacet
  facet normal 0.000000 0.000000 1.000000
    outer loop
      vertex -4.993715 -15.369073 5.000000
      vertex -7.080000 -12.262920 5.000000
      vertex -8.080000 -13.994971 5.000000
    endloop
  endfacet
  facet normal -0.000000 0.000000 1.000000
    outer loop
      vertex -7.080000 -12.262920 5.000000
      vertex -9.474889 -10.522931 5.000000
      vertex -8.080000 -13.994971 5.000000
    endloop
  endfacet
  facet normal 0.000000 0.000000 1.000000
    outer loop
      vertex -8.080000 -13.994971 5.000000
      vertex -11.455681 -8.323039 5.000000
      vertex -10.813151 -12.009220 5.000000
    endloop
  endfacet
  facet normal 0.000000 -0.000000 1.000000
    outer loop
      vertex 9.474889 -10.522931 5.000000
      vertex 7.080000 -12.262920 5.000000
      vertex 10.813151 -12.009220 5.000000
    endloop
  endfacet
  facet normal 0.000000 0.000000 1.000000
    outer loop
      vertex -10.813151 -12.009220 5.000000
      vertex -12.935804 -5.759391 5.000000
      vertex -13.073715 -9.498610 5.000000
    endloop
  endfacet
  facet normal 0.000000 0.000000 1.000000
    outer loop
      vertex -13.850570 -2.944030 5.000000
      vertex -14.160000 0.000000 5.000000
      vertex -15.806865 3.359853 5.000000
    endloop
  endfacet
  facet normal 0.000000 -0.000000 1.000000
    outer loop
      vertex 4.375681 -13.466960 5.000000
      vertex 1.480123 -14.082430 5.000000
      vertex 4.993715 -15.369073 5.000000
    endloop
  endfacet
  facet normal 0.000000 -0.000000 1.000000
    outer loop
      vertex 1.480123 -14.082430 5.000000
      vertex -1.480123 -14.082430 5.000000
      vertex 1.689180 -16.071474 5.000000
    endloop
  endfacet
  facet normal -0.000000 0.000000 1.000000
    outer loop
      vertex -1.480123 -14.082430 5.000000
      vertex -4.375681 -13.466960 5.000000
      vertex -1.689180 -16.071474 5.000000
    endloop
  endfacet
  facet normal -0.000000 -0.000000 1.000000
    outer loop
      vertex -11.455681 -8.323039 5.000000
      vertex -12.935804 -5.759391 5.000000
      vertex -10.813151 -12.009220 5.000000
    endloop
  endfacet
  facet normal -0.000000 -0.000000 1.000000
    outer loop
      vertex -9.474889 -10.522931 5.000000
      vertex -11.455681 -8.323039 5.000000
      vertex -8.080000 -13.994971 5.000000
    endloop
  endfacet
  facet normal 0.000000 0.000000 1.000000
    outer loop
      vertex -14.160000 0.000000 5.000000
      vertex -13.850570 2.944030 5.000000
      vertex -15.806865 3.359853 5.000000
    endloop
  endfacet
  facet normal 0.000000 -0.000000 1.000000
    outer loop
      vertex 12.935804 -5.759391 5.000000
      vertex 11.455681 -8.323039 5.000000
      vertex 14.762895 -6.572864 5.000000
    endloop
  endfacet
  facet normal 0.000000 0.000000 1.000000
    outer loop
      vertex -13.850570 2.944030 5.000000
      vertex -12.935804 5.759391 5.000000
      vertex -15.806865 3.359853 5.000000
    endloop
  endfacet
endsolid OpenSCAD_Model
